<ttFont>
          <CharString index="0">
            rmoveto
            42 19 -60 callsubr
            6 57 -62 callgsubr
            -18 10 -42 hhcurveto
            -41 -35 callgsubr
            -6 -57 rlineto
            -19 -2 17 -9 42 hhcurveto
            return
          </CharString>
          <CharString index="1">
            41 14 10 12 9 hvcurveto
            77 103 7 46 callsubr
            -7 -19 -9 vhcurveto
            -40 -80 -14 57 callsubr
            return
          </CharString>
          <CharString index="2">
            52 40 28 53 27 hvcurveto
            -61 7 37 -19 42 hhcurveto
            55 31 31 47 13 -3 14 -9 hvcurveto
            -100 callsubr
            return
          </CharString>
          <CharString index="3">
            rmoveto
            24 hlineto
            17 16 2 15 10 hvcurveto
            33 56 21 -56 rlineto
            -11 5 15 -6 20 hhcurveto
            25 hlineto
            12 8 5 7 1 hvcurveto
            5 -1 5 -4 6 vhcurveto
            -42 97 rlineto
            17 -8 -17 3 -23 hhcurveto
            -8 hlineto
            -23 -19 -3 -17 -11 hvcurveto
            -64 -97 rlineto
            -2 -6 -4 -5 -5 vvcurveto
            -8 -1 6 -4 14 hhcurveto
            return
          </CharString>
          <CharString index="4">
            -102 callgsubr
            endchar
          </CharString>
          <CharString index="5">
            -87 callgsubr
            149 hmoveto
            34 17 36 callsubr
            5 57 -62 callgsubr
            -15 10 -35 -88 callsubr
            return
          </CharString>
          <CharString index="6">
            rmoveto
            65 callsubr
            17 callsubr
            8 26 2 hvcurveto
            4 65 14 113 20 189 rrcurveto
            16 -15 12 -35 vhcurveto
            -20 hlineto
            -34 -19 -9 -19 -2 hvcurveto
            -5 -44 -19 -177 -11 -111 -2 -18 -2 -27 -1 -16 rrcurveto
            -87 -3 43 -23 49 hhcurveto
            return
          </CharString>
          <CharString index="7">
            -22 callgsubr
            -7 7 24 1 hvcurveto
            3 37 14 123 10 103 rrcurveto
            4 37 8 62 13 vvcurveto
            15 -14 9 -32 vhcurveto
            -10 hlineto
            -42 -5 -15 -32 -11 hvcurveto
            return
          </CharString>
          <CharString index="8">
            rmoveto
            21 5 3 10 10 -12 24 -40 81 hvcurveto
            19 -11 -28 7 -33 hhcurveto
            -33 -17 -3 -10 -12 6 -5 80 -102 hvcurveto
            -11 8 13 -11 41 hhcurveto
            return
          </CharString>
          <CharString index="9">
            -27 callsubr
            -60 -6 -46 -43 -62 hhcurveto
            -62 -36 43 60 6 hvcurveto
            50 467 rlineto
            18 1 -14 -57 callsubr
            -1 hvcurveto
            -50 -473 rlineto
            return
          </CharString>
          <CharString index="10">
            30 53 -33 38 hhcurveto
            41 30 28 42 17 hvcurveto
            1 4 2 154 callgsubr
            -5 7 -14 5 vhcurveto
            -9 93 callsubr
            -3 1 -5 hhcurveto
            -10 -7 44 callsubr
            -12 -9 -2 -9 hhcurveto
            return
          </CharString>
          <CharString index="11">
            -95 callgsubr
            endchar
          </CharString>
          <CharString index="12">
            -99 callgsubr
            endchar
          </CharString>
          <CharString index="13">
            -93 callgsubr
            endchar
          </CharString>
          <CharString index="14">
            50 473 10 callsubr
            -89 callsubr
            return
          </CharString>
          <CharString index="15">
            rmoveto
            46 hlineto
            24 20 6 13 4 hvcurveto
            112 378 28 117 2 -117 39 -378 rlineto
            -13 1 18 -6 23 hhcurveto
            47 hlineto
            26 19 6 13 4 hvcurveto
            196 648 3 5 -1 5 1 4 rlinecurve
            14 1 -14 9 -37 hhcurveto
            -19 hlineto
            -33 -20 -8 -18 -4 hvcurveto
            -101 -410 -12 -47 -10 -42 -13 -49 rlinecurve
            -1 43 -1 52 -3 43 -33 416 rcurveline
            15 -1 -16 5 -28 hhcurveto
            -32 hlineto
            -28 -16 -5 -15 -4 hvcurveto
            -114 -415 -10 -42 -14 -47 -12 -48 rlinecurve
            -1 44 1 47 -3 45 -20 410 rcurveline
            18 -1 -18 8 -34 hhcurveto
            -23 hlineto
            -36 -16 -9 -14 -2 hvcurveto
            -4 -2 -5 1 -5 vhcurveto
            73 -648 rlineto
            -13 1 16 -6 27 hhcurveto
            endchar
          </CharString>
          <CharString index="16">
            9 12 110 16 144 vhcurveto
            93 10 -36 52 -76 hhcurveto
            -57 -48 -34 -41 -31 hvcurveto
            34 -3 5 33 -31 hhcurveto
            -17 -78 -6 -25 -2 hvcurveto
            -1 -11 6 -30 -9 -92 -36 -332 rcurveline
            -18 -1 14 -10 35 hhcurveto
            26 hlineto
            34 17 9 19 2 hvcurveto
            105 callsubr
            25 16 25 21 28 hhcurveto
            35 10 -23 -42 -4 hvcurveto
            return
          </CharString>
          <CharString index="17">
            rmoveto
            2 callgsubr
            hvcurveto
            8 11 12 25 hhcurveto
            17 17 -8 -16 hvcurveto
            -37 -66 -22 -22 vvcurveto
            -8 28 -13 19 vhcurveto
            return
          </CharString>
          <CharString index="18">
            -30 -98 callsubr
            return
          </CharString>
          <CharString index="19">
            hhcurveto
            -26 callgsubr
            -5 -57 rlineto
            -19 -3 14 -9 36 hhcurveto
            return
          </CharString>
          <CharString index="20">
            rmoveto
            194 hlineto
            19 8 11 26 2 49 callsubr
            2 -5 11 -19 hhcurveto
            -194 hlineto
            -17 -9 34 callsubr
            -13 rlineto
            -26 -2 6 -11 17 hhcurveto
            return
          </CharString>
          <CharString index="21">
            388 hlineto
            17 10 13 31 3 hvcurveto
            2 23 rlineto
            31 3 -6 13 -18 hhcurveto
            -252 hlineto
            329 502 rlineto
            1 2 0 3 4 vvcurveto
            24 3 -11 54 -15 hhcurveto
            -365 hlineto
            -18 -8 -13 -31 -3 hvcurveto
            -3 -23 rlineto
            -31 -3 5 -13 18 hhcurveto
            232 hlineto
            -331 -502 rlineto
            -2 -3 29 callsubr
            -25 -2 12 -51 15 hhcurveto
            return
          </CharString>
          <CharString index="22">
            rmoveto
            60 7 26 35 48 vvcurveto
            -41 callsubr
            -29 -20 rlineto
            -8 -4 -42 callsubr
            -18 -14 -15 -29 vhcurveto
            -44 hlineto
            -34 -17 79 callsubr
            -37 -354 rlineto
            -25 -17 -25 -21 -28 hhcurveto
            -36 -11 23 40 4 hvcurveto
            35 337 rlineto
            19 2 121 callsubr
            -25 hlineto
            -36 -16 -10 -19 -1 hvcurveto
            -39 -363 rlineto
            -91 -9 37 -50 79 hhcurveto
            return
          </CharString>
          <CharString index="23">
            rmoveto
            35 34 6 10 22 hvcurveto
            23 12 12 17 1 28 1 34 -10 33 -29 -9 rrcurveto
            -9 -22 -22 -7 -34 hhcurveto
            -93 -38 80 163 17 hvcurveto
            164 18 52 78 93 hhcurveto
            31 23 -7 -7 17 hvcurveto
            24 -11 21 52 4 34 2 18 -4 15 -20 6 rrcurveto
            8 -20 -34 6 -37 hhcurveto
            -188 -92 -116 -240 -25 hvcurveto
            -246 -26 83 -112 181 hhcurveto
            endchar
          </CharString>
          <CharString index="24">
            rmoveto
            63 66 41 110 12 hvcurveto
            58 558 rlineto
            72 callgsubr
            48 callsubr
            -58 -556 rlineto
            -39 -4 -11 -13 -19 -16 -10 4 -6 hhcurveto
            -19 -13 -44 132 callgsubr
            -3 37 -9 50 hhcurveto
            endchar
          </CharString>
          <CharString index="25">
            -81 -36 63 184 19 hvcurveto
            183 20 48 62 82 hhcurveto
            80 36 -62 -183 -20 hvcurveto
            return
          </CharString>
          <CharString index="26">
            66 callsubr
            11 18 1 hvcurveto
            -74 callgsubr
            return
          </CharString>
          <CharString index="27">
            -20 34 callgsubr
            -41 -373 -3 -25 1 -25 2 -25 rlinecurve
            -4 -2 -7 25 -7 24 -10 24 rlinecurve
            -158 380 rlineto
            21 -8 -15 4 -21 hhcurveto
            -26 hlineto
            -36 -15 75 callgsubr
            return
          </CharString>
          <CharString index="28">
            589 -107 callsubr
            return
          </CharString>
          <CharString index="29">
            rmoveto
            40 14 10 12 10 hvcurveto
            77 103 6 4 12 vvcurveto
            10 -16 3 -33 -33 -29 -6 -20 -9 vhcurveto
            -37 100 callsubr
            5 -3 21 vhcurveto
            151 hmoveto
            42 13 10 12 9 hvcurveto
            79 103 5 46 callsubr
            -6 -20 -9 vhcurveto
            -38 -80 -16 57 callsubr
            return
          </CharString>
          <CharString index="30">
            161 -7 rmoveto
            51 44 31 47 27 hvcurveto
            -59 8 36 -19 42 hhcurveto
            65 callsubr
            17 callsubr
            7 27 1 hvcurveto
            7 88 35 310 21 198 rrcurveto
            18 1 -15 10 -36 hhcurveto
            -22 -6 callgsubr
            -24 -232 rlineto
            21 -20 -26 16 -41 hhcurveto
            -103 -74 -95 -171 -17 hvcurveto
            -171 -19 53 -100 89 hhcurveto
            return
          </CharString>
          <CharString index="31">
            rmoveto
            -82 callsubr
            -33 callgsubr
            return
          </CharString>
          <CharString index="32">
            -131 -14 24 -144 115 hhcurveto
            48 103 rmoveto
            -52 -4 86 86 9 hvcurveto
            return
          </CharString>
          <CharString index="33">
            39 hlineto
            22 18 5 14 5 hvcurveto
            46 137 rlineto
            179 hlineto
            return
          </CharString>
          <CharString index="34">
            -293 hlineto
            -23 1 callgsubr
            -66 -628 rlineto
            -25 -3 9 -11 23 hhcurveto
            return
          </CharString>
          <CharString index="35">
            hstemhm
            33.63 125.6 121.76999 172 return
          </CharString>
          <CharString index="36">
            -10 -51 callsubr
            return
          </CharString>
          <CharString index="37">
            rmoveto
            58 40 39 55 6 hvcurveto
            55 5 -31 39 -58 hhcurveto
            -58 -39 -39 -55 -6 hvcurveto
            -55 -6 31 -39 58 hhcurveto
            6 52 rmoveto
            -26 -13 15 26 3 hvcurveto
            26 3 16 16 26 hhcurveto
            26 13 -16 -26 -3 hvcurveto
            -26 -3 -17 -15 -25 hhcurveto
            return
          </CharString>
          <CharString index="38">
            21 -18 -30 31 -55 hhcurveto
            -95 -75 -92 -171 -19 hvcurveto
            return
          </CharString>
          <CharString index="39">
            269 hlineto
            19 21 callgsubr
            147 callgsubr
            -170 hlineto
            59 563 rlineto
            18 2 -14 -57 callsubr
            -2 hvcurveto
            -67 -638 rlineto
            -25 -3 9 -11 23 hhcurveto
            return
          </CharString>
          <CharString index="40">
            -101 callgsubr
            -108 -32 callsubr
            return
          </CharString>
          <CharString index="41">
            35.84 126.93 152.29001 126.13 return
          </CharString>
          <CharString index="42">
            rmoveto
            -41 -35 callgsubr
            -6 -57 rlineto
            -19 -2 17 -9 42 hhcurveto
            42 19 -60 callsubr
            6 57 -62 callgsubr
            -18 10 -42 hhcurveto
            endchar
          </CharString>
          <CharString index="43">
            rmoveto
            126 61 78 132 14 hvcurveto
            49 471 -62 callgsubr
            -15 11 -35 hhcurveto
            -32 hlineto
            -35 144 callgsubr
            -48 -459 rlineto
            -76 -8 -21 -33 -48 -26 -14 7 -10 hhcurveto
            -20 -1 -21 -51 -3 -27 rrcurveto
            -26 -2 56 -15 48 hhcurveto
            return
          </CharString>
          <CharString index="44">
            -17 -35 -46 -69 hhcurveto
            -54 -36 25 94 hvcurveto
            -3 19 22 -2 30 hhcurveto
            return
          </CharString>
          <CharString index="45">
            182 hlineto
            166 98 108 242 25 hvcurveto
            242 26 -75 108 -166 hhcurveto
            -182 48 callgsubr
            -628 rlineto
            136 callsubr
            return
          </CharString>
          <CharString index="46">
            294 rmoveto
            15 hlineto
            21 9 6 12 1 hvcurveto
            40 378 rlineto
            7 1 -12 6 -6 hhcurveto
            -127 -25 -9 -2 -4 -5 -1 -8 rlinecurve
            -14 -2 1 -29 13 hhcurveto
            66 13 -34 -321 rlineto
            -12 -1 10 -6 19 hhcurveto
            return
          </CharString>
          <CharString index="47">
            10 -17 callsubr
            return
          </CharString>
          <CharString index="48">
            58 47 36 43 32 hvcurveto
            -58 8 36 -19 42 hhcurveto
            50 31 28 40 3 hvcurveto
            -15 callgsubr
            return
          </CharString>
          <CharString index="49">
            0 108 488 111 hstem
            47.46 132.86 255.7 136.11 vstem
            335 707 rmoveto
            -154 -106 -122 -228 -24 hvcurveto
            -11 -110 14 -88 41 -63 rrcurveto
            3 -5 -30 9 -25 hhcurveto
            -18 -9 -13 -30 -3 hvcurveto
            -2 -22 118 callgsubr
            199 hlineto
            18 8 106 callsubr
            2 18 1 17 -1 8 -9 5 rlinecurve
            -53 22 -24 84 16 154 rrcurveto
            160 17 51 85 82 hhcurveto
            81 33 -85 -160 -17 hvcurveto
            -16 -154 -42 -83 -57 -23 -8 -6 -4 -7 -2 -17 -2 -18 rcurveline
            -30 -4 8 -13 18 hhcurveto
            198 hlineto
            19 7 106 callsubr
            2 22 rlineto
            30 4 147 callgsubr
            -25 -33 -9 -3 -6 hvcurveto
            56 63 33 88 11 110 rrcurveto
            228 24 -80 122 -177 hhcurveto
            endchar
          </CharString>
          <CharString index="50">
            10 -36 hhcurveto
            -30 hlineto
            -36 -16 -10 -18 return
          </CharString>
          <CharString index="51">
            66 callsubr
            10 18 1 hvcurveto
            30 276 rlineto
            204 hlineto
            -29 -276 113 callsubr
            69 648 10 callsubr
            -31 -6 callgsubr
            -27 -260 rlineto
            -204 hlineto
            27 260 29 callgsubr
            -35 hhcurveto
            -32 hlineto
            -36 -16 -10 13 callgsubr
            -10 36 hhcurveto
            return
          </CharString>
          <CharString index="52">
            0 callgsubr
            -17 -1 -13 -6 -9 -12 -67 -96 rcurveline
            -3 -6 -5 -8 -3 vvcurveto
            -7 -1 7 -5 13 hhcurveto
            24 hlineto
            20 14 5 13 9 hvcurveto
            38 55 28 -56 rlineto
            -12 5 14 -5 20 hhcurveto
            26 hlineto
            12 8 5 7 1 hvcurveto
            4 -2 7 -4 6 vhcurveto
            -47 96 -3 5 -3 3 -4 3 rlinecurve
            14 9 8 3 8 hhcurveto
            return
          </CharString>
          <CharString index="53">
            38 15 56 25 14 -3 6 -13 hvcurveto
            -55 hlineto
            10 99 rlineto
            16 -14 12 -36 vhcurveto
            -19 hlineto
            -34 -19 -9 -19 -2 hvcurveto
            -11 -99 rlineto
            return
          </CharString>
          <CharString index="54">
            -49 callsubr
            -11 return
          </CharString>
          <CharString index="55">
            -82 -269 -8 -29 -7 -31 -8 -30 rlinecurve
            -4 hlineto
            26 1 37 -2 24 vhcurveto
            -11 273 rlineto
            13 -1 -18 6 -42 hhcurveto
            -39 -17 -10 -18 hvcurveto
            -1 -4 1 -12 1 -8 49 -456 rcurveline
            return
          </CharString>
          <CharString index="56">
            -18 -2 hvcurveto
            return
          </CharString>
          <CharString index="57">
            -248 -25 94 -110 151 hhcurveto
            return
          </CharString>
          <CharString index="58">
            -4 -3 -9 hhcurveto
            return
          </CharString>
          <CharString index="59">
            -104 callsubr
            50 -366 -51 callgsubr
          </CharString>
          <CharString index="60">
            97 3 70 61 11 106 4 32 -5 28 -10 20 3 3 rcurveline
            -2 10 16 -1 15 hhcurveto
            15 8 11 26 3 hvcurveto
            2 15 rlineto
            27 2 -6 12 -17 hhcurveto
            -138 hlineto
            return
          </CharString>
          <CharString index="61">
            rmoveto
            30 47 rlineto
            5 7 1 5 5 vvcurveto
            15 -27 18 -14 -8 -6 -5 -9 -6 vhcurveto
            -24 -37 rlineto
            22 -34 -42 11 -48 hhcurveto
            -172 -98 -108 -248 -26 hvcurveto
            -12 -121 16 -88 37 -59 -35 -55 rcurveline
            -4 -5 -2 -7 -4 vvcurveto
            -15 26 -18 14 8 7 5 9 6 vhcurveto
            26 40 rlineto
            -27 36 45 -13 52 hhcurveto
            -53 callgsubr
            13 128 -18 91 -41 58 rrcurveto
            -334 -277 rmoveto
            183 20 48 62 82 hhcurveto
            29 23 -8 -18 16 hvcurveto
            -221 -346 -3 34 1 42 5 51 rlinecurve
            246 hmoveto
            -33 callgsubr
            -34 -26 11 26 -17 hvcurveto
            227 353 5 -36 0 -47 -7 -60 rlinecurve
            endchar
          </CharString>
          <CharString index="62">
            111 192 111 175 111 return
          </CharString>
          <CharString index="63">
            131 78 94 174 18 hvcurveto
            return
          </CharString>
          <CharString index="64">
            rmoveto
            5 7 2 5 6 vvcurveto
            15 -29 19 -14 -6 -7 -4 -7 -5 vhcurveto
            -18 -27 rlineto
            17 -26 -33 9 -40 hhcurveto
            -132 -78 -95 -174 -18 hvcurveto
            -9 -83 9 -65 27 -45 -20 -29 rcurveline
            -6 -8 -2 -4 -6 vvcurveto
            -15 29 -20 13 6 7 4 8 5 vhcurveto
            14 21 rlineto
            -17 26 33 -9 40 hhcurveto
            -44 callsubr
            9 82 -9 65 -25 45 rrcurveto
            -246 -191 rmoveto
            120 12 26 48 51 hhcurveto
            19 15 -7 -15 10 hvcurveto
            -137 -199 1 16 1 18 2 19 rlinecurve
            144 hmoveto
            -33 callsubr
            -19 -14 7 14 -10 hvcurveto
            137 198 -1 -15 -1 -17 -2 -18 rlinecurve
            endchar
          </CharString>
          <CharString index="65">
            -3 -7 -6 vvcurveto
            1 -13 27 -18 -27 vvcurveto
            return
          </CharString>
          <CharString index="66">
            30 -21 50 -25 -5 -5 -1 -4 -4 vhcurveto
            return
          </CharString>
          <CharString index="67">
            -141 -104 callsubr
            32 1 callsubr
          </CharString>
          <CharString index="68">
            -46 callgsubr
            -35 -4 69 -29 68 hhcurveto
            return
          </CharString>
          <CharString index="69">
            16 81 50 58 51 -46 25 -58 return
          </CharString>
          <CharString index="70">
            rmoveto
            hintmask 10111110
            -1 callsubr
            hintmask 10111101
            -75 callsubr
            hintmask 11011101
            -84 callgsubr
            hintmask 10111101
            -13 callsubr
            endchar
          </CharString>
          <CharString index="71">
            66 0 111 190 111 177 111 54 callsubr
            324 700 rmoveto
            -182 hlineto
            -23 1 callgsubr
            -27 -252 rlineto
            -27 hlineto
            -28 -6 -36 -42 -23 7 -10 16 hvcurveto
            26 hlineto
            -28 -265 rlineto
            136 callsubr
            182 hlineto
            166 98 108 242 25 hvcurveto
            242 26 -75 108 -166 hhcurveto
            81 -350 rmoveto
            -175 -19 -49 -64 -79 hhcurveto
            -78 hlineto
            20 190 rlineto
            87 hlineto
            28 5 36 41 24 -7 10 -15 hvcurveto
            -86 hlineto
            19 177 rlineto
            77 hlineto
            79 36 -64 -175 -18 hvcurveto
            endchar
          </CharString>
          <CharString index="72">
            20 2 -7 28 -42 hhcurveto
            -41 -30 -34 -41 -26 hvcurveto
            25 -3 1 42 -29 hhcurveto
            -20 -71 -7 -22 -2 hvcurveto
            -2 -14 9 -28 -10 -93 -35 -332 rcurveline
            return
          </CharString>
          <CharString index="73">
            -50 -55 callgsubr
            hintmask 11011100
            -32 callgsubr
            hintmask 10111100
            59 callgsubr
            hintmask 10111010
            100 callgsubr
            hintmask 11011100
            -200 -355 rmoveto
            -33 callgsubr
            -82 callsubr
            endchar
          </CharString>
          <CharString index="74">
            -121 -13 -27 -48 -50 hhcurveto
            return
          </CharString>
          <CharString index="75">
            -587 rmoveto
            -105 callsubr
            return
          </CharString>
          <CharString index="76">
            34 14 27 28 4 43 rrcurveto
            63 7 -39 38 -68 hhcurveto
            -46 -54 -13 -25 -3 hvcurveto
            -13 -1 13 -26 9 9 15 18 37 hhcurveto
            38 11 -24 -26 -2 hvcurveto
            -29 -3 -23 -30 -43 hhcurveto
            return
          </CharString>
          <CharString index="77">
            rmoveto
            -43 -16 54 112 12 hvcurveto
            117 12 29 50 49 hhcurveto
            23 18 -10 -15 13 hvcurveto
            -27 -257 rlineto
            -30 -20 -24 -21 -26 hhcurveto
            return
          </CharString>
          <CharString index="78">
            82 -2 -100 callgsubr
            return
          </CharString>
          <CharString index="79">
            -39 callsubr
            endchar
          </CharString>
          <CharString index="80">
            hlineto
            -35 -17 106 callgsubr
            -49 -467 rlineto
            return
          </CharString>
          <CharString index="81">
            -11 -25 -3 hvcurveto
            return
          </CharString>
          <CharString index="82">
            vstem
            89 -2 rmoveto
            30 hlineto
            36 17 10 18 1 hvcurveto
            30 307 rlineto
            5 hlineto
            133 -318 rlineto
            -14 6 19 -3 25 hhcurveto
            41 hlineto
            33 15 5 10 1 hvcurveto
            4 0 6 -4 9 vhcurveto
            -151 321 205 314 rlineto
            5 8 4 8 5 vvcurveto
            8 1 -14 6 -33 hhcurveto
            -41 hlineto
            -25 -18 -3 -14 -8 hvcurveto
            -188 -307 rlineto
            -6 hlineto
            34 296 -62 callgsubr
            -15 10 -36 hhcurveto
            -30 hlineto
            -36 -16 -10 13 callgsubr
            -10 36 hhcurveto
            return
          </CharString>
          <CharString index="83">
            hlineto
            39 callgsubr
            return
          </CharString>
          <CharString index="84">
            53 479 rmoveto
            -38 -29 16 72 8 hvcurveto
            72 8 32 17 37 hhcurveto
            38 30 -17 -72 -8 hvcurveto
            -72 -8 -32 -16 -38 hhcurveto
            return
          </CharString>
          <CharString index="85">
            175 -7 rmoveto
            -92 callgsubr
            return
          </CharString>
          <CharString index="86">
            139 callgsubr
            416.06 -414.81999 28 callgsubr
            return
          </CharString>
          <CharString index="87">
            rmoveto
            28 12 6 10 8 hvcurveto
            61 79 11 13 10 vvcurveto
            16 -12 4 -25 -31 -26 -6 -21 -10 vhcurveto
            -28 -69 -10 -20 -9 vvcurveto
            -10 6 -3 16 vhcurveto
            return
          </CharString>
          <CharString index="88">
            -30 -8 27 callsubr
            return
          </CharString>
          <CharString index="89">
            61 callsubr
            -17 -11 -8 -2 -8 hhcurveto
            return
          </CharString>
          <CharString index="90">
            18 2 hvcurveto
            return
          </CharString>
          <CharString index="91">
            -38 32 51 -21 68 hhcurveto
            71 89 30 37 4 hvcurveto
            19 2 -23 48 -17 -12 -38 -34 -58 hhcurveto
            -56 -32 34 89 8 hvcurveto
            210 hlineto
            13 36 38 15 1 hvcurveto
            168 11 -44 93 -123 hhcurveto
            -46 -42 -11 -24 -35 hvcurveto
            22 -26 -45 13 -55 hhcurveto
            -84 -83 -31 -32 -2 hvcurveto
            -17 -2 21 -51 19 14 40 31 58 hhcurveto
            38 23 -16 -27 6 hvcurveto
            -7 -16 -7 -19 -4 -21 -184 -1 -60 -80 -11 -101 rrcurveto
            return
          </CharString>
          <CharString index="92">
            -12 callsubr
            -10 return
          </CharString>
          <CharString index="93">
            0 107 436 167 hstem
            5 524.37 vstem
            31 hmoveto
            462 hlineto
            19 11 12 21 2 hvcurveto
            4 34 1 15 0 11 -4 14 rlinecurve
            -133 577 rlineto
            19 -4 -11 7 -16 hhcurveto
            -60 hlineto
            -16 -12 -8 -18 -8 hvcurveto
            -245 -577 -6 -15 -4 -10 -1 -16 rlinecurve
            -5 -34 rlineto
            -21 -1 9 -11 18 hhcurveto
            113 107 rmoveto
            171 436 rlineto
            9 hlineto
            77 -436 rlineto
            endchar
          </CharString>
          <CharString index="94">
            -55 -16 -28 -28 -30 hhcurveto
            return
          </CharString>
          <CharString index="95">
            rlineto
            -18 -2 14 return
          </CharString>
          <CharString index="96">
            rmoveto
            -71 callgsubr
            return
          </CharString>
          <CharString index="97">
            28 callsubr
            157 hmoveto
            -61 callgsubr
            endchar
          </CharString>
          <CharString index="98">
            25 2 51 68 76 vvcurveto
            22 -13 16 -27 vhcurveto
            -16 hlineto
            -36 -16 -16 -24 hvcurveto
            -48 -8 -36 -40 vvcurveto
            return
          </CharString>
          <CharString index="99">
            13 2 -1 24 return
          </CharString>
          <CharString index="100">
            hlineto
            36 16 10 18 return
          </CharString>
          <CharString index="101">
            100 114 82 141 100 return
          </CharString>
          <CharString index="102">
            hstemhm
            49.45 519.55 -518 132 return
          </CharString>
          <CharString index="103">
            rmoveto
            71 callgsubr
            -2 hvcurveto
            -31 -297 rlineto
            return
          </CharString>
          <CharString index="104">
            hstemhm
            14.62 429.64 -406.31999 128.06 return
          </CharString>
          <CharString index="105">
            hmoveto
            -86 callsubr
            return
          </CharString>
          <CharString index="106">
            -105 callsubr
            hintmask 11011110
            -69 callsubr
            return
          </CharString>
          <CharString index="107">
            rmoveto
            55 37 24 51 17 -7 13 -13 hvcurveto
            10 callgsubr
            return
          </CharString>
          <CharString index="108">
            -580 -95 callsubr
          </CharString>
          <CharString index="109">
            -9 -1 8 -7 15 hhcurveto
            36 452 rmoveto
            -36 -3 37 56 5 hvcurveto
            52 6 11 40 37 hhcurveto
            37 2 -40 -52 -6 hvcurveto
            -56 -5 -11 -37 -37 hhcurveto
            302 -455 rmoveto
            61 75 28 138 14 hvcurveto
            137 14 -68 29 -61 hhcurveto
            -62 -73 -29 -137 -15 hvcurveto
            -138 -14 68 -28 61 hhcurveto
            return
          </CharString>
          <CharString index="110">
            14 callsubr
            21 hvcurveto
            return
          </CharString>
          <CharString index="111">
            -1 3 5 -1 4 hhcurveto
            9 5 6 10 7 hvcurveto
            17 10 8 3 8 hhcurveto
            return
          </CharString>
          <CharString index="112">
            -7 -9 -5 -14 hhcurveto
            -22 -27 5 38 return
          </CharString>
          <CharString index="113">
            -581 rmoveto
            -105 callsubr
            return
          </CharString>
          <CharString index="114">
            rlineto
            103 hlineto
            18 8 106 callsubr
            1 12 rlineto
            30 3 -6 13 -18 hhcurveto
            -104 hlineto
            18 162 rlineto
            18 1 -12 10 -28 hhcurveto
            -14 hlineto
            -29 -13 106 callgsubr
            -18 -162 rlineto
            -104 92 callgsubr
            -1 -12 118 callgsubr
            105 hlineto
            return
          </CharString>
          <CharString index="115">
            48 callsubr
            -37 -352 rlineto
            return
          </CharString>
          <CharString index="116">
            -97 -10 60 -59 84 hhcurveto
            244 313 rmoveto
            92 14 30 32 42 hhcurveto
            41 15 -37 -87 -8 hvcurveto
            -344 -210 rmoveto
            -34 -15 23 38 4 hvcurveto
            6 59 45 26 68 1 -4 -42 1 -37 7 -31 rrcurveto
            -25 -20 -29 -12 -29 hhcurveto
            endchar
          </CharString>
          <CharString index="117">
            29 callgsubr
            -36 hhcurveto
            return
          </CharString>
          <CharString index="118">
            22 hlineto
            11 6 8 17 1 hvcurveto
            1 9 rlineto
            17 2 -3 8 -11 hhcurveto
            -22 hlineto
            26 246 rlineto
            10 -7 6 -21 vhcurveto
            -23 hlineto
            -13 -12 -1 -11 -6 hvcurveto
            -164 -257 -1 -2 0 -2 -1 -3 rlinecurve
            -14 -2 7 -31 9 hhcurveto
            return
          </CharString>
          <CharString index="119">
            -78 rmoveto
            19 hlineto
            25 15 8 18 6 hvcurveto
            238 715 rlineto
            3 10 1 4 4 vvcurveto
            14 -11 7 -24 vhcurveto
            -19 hlineto
            -25 -15 -8 -18 -7 hvcurveto
            -238 -716 rlineto
            -2 -8 -1 -5 -4 vvcurveto
            -13 11 -8 24 vhcurveto
            endchar
          </CharString>
          <CharString index="120">
            34.17 127.06 121.77 return
          </CharString>
          <CharString index="121">
            rmoveto
            -6 49 callgsubr
            6 return
          </CharString>
          <CharString index="122">
            -34 19 callsubr
            return
          </CharString>
          <CharString index="123">
            rmoveto
            34 30 23 40 3 hvcurveto
            41 5 -24 23 -35 hhcurveto
            -34 -29 -23 -41 -5 hvcurveto
            -40 -4 24 -23 35 hhcurveto
            endchar
          </CharString>
          <CharString index="124">
            69 callgsubr
            35 callsubr
            -12 -6 return
          </CharString>
          <CharString index="125">
            hlineto
            37 17 -60 callsubr
            return
          </CharString>
          <CharString index="126">
            -7 67 callgsubr
            return
          </CharString>
          <CharString index="127">
            467 rmoveto
            12 hlineto
            18 10 7 16 4 hvcurveto
            16 62 25 113 1 9 rrcurveto
            18 2 -15 10 -37 hhcurveto
            -10 -24 callsubr
            -1 hvcurveto
            -1 -8 3 -176 rlineto
            -16 1 8 -7 18 hhcurveto
            return
          </CharString>
          <CharString index="128">
            154 callgsubr
            -4 7 -13 5 vhcurveto
            return
          </CharString>
          <CharString index="129">
            1 87 callgsubr
            return
          </CharString>
          <CharString index="130">
            89 callsubr
            16.57999 120 118.89 return
          </CharString>
          <CharString index="131">
            -26 hvcurveto
            -50 callsubr
            return
          </CharString>
          <CharString index="132">
            30 6 callgsubr
            return
          </CharString>
          <CharString index="133">
            -105 291 -11 callgsubr
          </CharString>
          <CharString index="134">
            103 334 101 -5 -20 return
          </CharString>
          <CharString index="135">
            rmoveto
            -61 callgsubr
            return
          </CharString>
          <CharString index="136">
            -1 -4 -4 vvcurveto
            return
          </CharString>
          <CharString index="137">
            hstemhm
            33.63 125.6 -8.23001 120 10 172 return
          </CharString>
          <CharString index="138">
            125 -78.5 129.5 return
          </CharString>
          <CharString index="139">
            -13 -9 101 117 104 388 -20 return
          </CharString>
          <CharString index="140">
            rlineto
            30 2 -6 13 -17 hhcurveto
            return
          </CharString>
          <CharString index="141">
            -26 callsubr
            -1 return
          </CharString>
          <CharString index="142">
            -6 -49 callsubr
            return
          </CharString>
          <CharString index="143">
            10 18 3 hvcurveto
            return
          </CharString>
          <CharString index="144">
            30.87 386.13 return
          </CharString>
          <CharString index="145">
            34.96 539.04 return
          </CharString>
          <CharString index="146">
            -193 113 return
          </CharString>
          <CharString index="147">
            -72 callsubr
            hintmask 10111100
            return
          </CharString>
          <CharString index="148">
            -50 callsubr
            13 111 129 callgsubr
            return
          </CharString>
          <CharString index="149">
            rmoveto
            -1 4 4 -1 4 hhcurveto
            8 6 6 10 7 hvcurveto
            17 10 8 3 9 hhcurveto
            return
          </CharString>
          <CharString index="150">
            hstemhm
            33.55 125.57 return
          </CharString>
          <CharString index="151">
            -5 30 callgsubr
            return
          </CharString>
          <CharString index="152">
            -51 -25 -33 -40 -6 -56 rrcurveto
            -90 -9 80 -40 102 hhcurveto
            return
          </CharString>
          <CharString index="153">
            4 12 vvcurveto
            10 -17 3 -33 -33 -28 return
          </CharString>
          <CharString index="154">
            hstem
            55 callgsubr
            vstem
            return
          </CharString>
          <CharString index="155">
            -19 -24 callsubr
            -3 hvcurveto
            return
          </CharString>
          <CharString index="156">
            hvcurveto
            2 13 rlineto
            25 return
          </CharString>
          <CharString index="157">
            -7 callsubr
            3 hvcurveto
            8 83 10 callsubr
            -23 -6 callgsubr
            -9 -83 -15 callsubr
            return
          </CharString>
          <CharString index="158">
            35 334 rlineto
            23 9 28 31 31 hhcurveto
            return
          </CharString>
          <CharString index="159">
            33 callgsubr
            74 154 return
          </CharString>
          <CharString index="160">
            -174 405 125 -116 116 0 -20 return
          </CharString>
          <CharString index="161">
            hstem
            37 callgsubr
            vstem
            return
          </CharString>
          <CharString index="162">
            -7 73 184 75 50 73 185 74 -4 -20 hstemhm
            67 88 87 89 45 86.56 89.44 89 return
          </CharString>
          <CharString index="163">
            89 callsubr
            255.46999 return
          </CharString>
          <CharString index="164">
            -25 -10 vvcurveto
            -10 6 -3 20 vhcurveto
            return
          </CharString>
          <CharString index="165">
            -74 -7 112 492 112 return
          </CharString>
          <CharString index="166">
            31 64 callgsubr
            return
          </CharString>
          <CharString index="167">
            2 4 1 4 6 vvcurveto
            9 -4 7 -13 5 vhcurveto
            61 callsubr
            return
          </CharString>
          <CharString index="168">
            -8 3 rlineto
            1 -4 -4 1 -3 hhcurveto
            -10 -6 153 callgsubr
            return
          </CharString>
          <CharString index="169">
            -40 -212 91 553 91 -79 86 return
          </CharString>
          <CharString index="170">
            0 85 callgsubr
            return
          </CharString>
          <CharString index="171">
            35 16 36 callsubr
            return
          </CharString>
          <CharString index="172">
            50 30 28 40 4 hvcurveto
            return
          </CharString>
          <CharString index="173">
            rmoveto
            32 hlineto
            35 16 return
          </CharString>
          <CharString index="174">
            hstemhm
            33.63 125.6 24.76999 53 44 172 -135 53 hintmask 0000000000000000
            return
          </CharString>
          <CharString index="175">
            -21 -206 rlineto
            -2 -25 -2 -23 -10 vvcurveto
            -78 42 -25 48 return
          </CharString>
          <CharString index="176">
            -14 2 18 -5 return
          </CharString>
          <CharString index="177">
            9 73 6 73 9 74 rrcurveto
            endchar
          </CharString>
          <CharString index="178">
            -103 -11 49 -37 67 hhcurveto
            return
          </CharString>
          <CharString index="179">
            58 89 callsubr
            201.57999 78 -24.11 return
          </CharString>
          <CharString index="180">
            vvcurveto
            -83 52 -34 64 55 37 24 51 17 -7 13 -13 vhcurveto
            -6 -12 -5 -11 hhcurveto
            -23 -11 7 24 return
          </CharString>
          <CharString index="181">
            hlineto
            18 9 13 30 3 hvcurveto
            2 return
          </CharString>
          <CharString index="182">
            93 callgsubr
            -3 hvcurveto
            return
          </CharString>
          <CharString index="183">
            -158 -8 104 331 104 return
          </CharString>
          <CharString index="184">
            111 598 -20 return
          </CharString>
          <CharString index="185">
            90 callsubr
            74 154 103 callsubr
            hintmask 10111010
            return
          </CharString>
          <CharString index="186">
            -10 -19 -2 hvcurveto
            return
          </CharString>
          <CharString index="187">
            -8 callgsubr
            49 154 hstem
            19 callgsubr
            vstem
            return
          </CharString>
          <CharString index="188">
            -90 148 rmoveto
            96 155 rlineto
            2 hlineto
            -6 -27 -4 -22 -3 -28 -8 -78 rcurveline
            endchar
          </CharString>
          <CharString index="189">
            62 callgsubr
            vstem
            return
          </CharString>
          <CharString index="190">
            hstemhm
            41 127 22 125 hintmask 11101000
            return
          </CharString>
          <CharString index="191">
            13 30 3 hvcurveto
            3 25 rlineto
            30 2 return
          </CharString>
          <CharString index="192">
            -249 703 -20 return
          </CharString>
          <CharString index="193">
            72 callgsubr
            endchar
          </CharString>
          <CharString index="194">
            rmoveto
            95 callsubr
            return
          </CharString>
          <CharString index="195">
            74 callgsubr
            -8 4 -9 13 -4 vhcurveto
            return
          </CharString>
          <CharString index="196">
            hstemhm
            47.07 134.35 return
          </CharString>
          <CharString index="197">
            -8 118 callsubr
            return
          </CharString>
          <CharString index="198">
            144 callsubr
            -19 hhcurveto
            return
          </CharString>
          <CharString index="199">
            125 callsubr
            -13 return
          </CharString>
          <CharString index="200">
            3 rlineto
            1 -5 return
          </CharString>
          <CharString index="201">
            hstemhm
            344.5 117.5 -114 121.5 return
          </CharString>
          <CharString index="202">
            -172 -98 -108 -248 24 callsubr
            return
          </CharString>
          <CharString index="203">
            -6 callgsubr
            -9 -83 rlineto
            -18 -2 13 -10 36 hhcurveto
            endchar
          </CharString>
          <CharString index="204">
            78 callgsubr
            46 122 return
          </CharString>
          <CharString index="205">
            -2 -40 -18 -19 6 -10 17 hvcurveto
            return
          </CharString>
          <CharString index="206">
            hstemhm
            -19 493 hintmask 10111000
            return
          </CharString>
          <CharString index="207">
            -80 -16 -25 -10 vvcurveto
            -10 return
          </CharString>
          <CharString index="208">
            128 148 7 8 6 8 1 8 rlinecurve
            20 2 -28 21 -16 hhcurveto
            return
          </CharString>
          <CharString index="209">
            50.62 434.38 return
          </CharString>
          <CharString index="210">
            58 callgsubr
            6 72 return
          </CharString>
          <CharString index="211">
            rmoveto
            -53 callgsubr
            return
          </CharString>
          <CharString index="212">
            37 354 rlineto
            return
          </CharString>
          <CharString index="213">
            13 30 4 hvcurveto
            return
          </CharString>
          <CharString index="214">
            hlineto
            -17 -9 -13 -29 -2 hvcurveto
            -1 -8 rlineto
            -29 -4 6 -13 17 hhcurveto
            return
          </CharString>
          <CharString index="215">
            hlineto
            -17 -9 -13 -30 -2 hvcurveto
            -1 -7 rlineto
            -29 -3 5 -14 18 hhcurveto
            return
          </CharString>
          <CharString index="216">
            -6 callgsubr
            -9 -83 -38 callgsubr
            return
          </CharString>
          <CharString index="217">
            208 rlineto
            -21 18 27 -16 42 hhcurveto
            102 74 95 171 18 hvcurveto
            return
          </CharString>
          <CharString index="218">
            94 92 82 93 hstem
            18.88 404.38 vstem
            return
          </CharString>
          <CharString index="219">
            42 callgsubr
            endchar
          </CharString>
          <CharString index="220">
            -38 callgsubr
            59 callsubr
            return
          </CharString>
          <CharString index="221">
            235 0 111 43 112 37 111 175 111 return
          </CharString>
          <CharString index="222">
            145 callsubr
            -17 hhcurveto
            return
          </CharString>
          <CharString index="223">
            -241 -7 100 660 -20 return
          </CharString>
          <CharString index="224">
            -103 0 111 591 -20 return
          </CharString>
          <CharString index="225">
            104 392 37 0 -20 return
          </CharString>
          <CharString index="226">
            25 rlineto
            30 2 -6 13 return
          </CharString>
          <CharString index="227">
            -8 152 callsubr
            return
          </CharString>
          <CharString index="228">
            -14 10 -36 hhcurveto
            return
          </CharString>
          <CharString index="229">
            -20 74 154 return
          </CharString>
          <CharString index="230">
            vstem
            164 -140 rmoveto
            15 hlineto
            28 14 -60 callsubr
            return
          </CharString>
          <CharString index="231">
            -54 -112 -12 hvcurveto
            -117 -12 -29 -50 -49 hhcurveto
            endchar
          </CharString>
          <CharString index="232">
            rlineto
            -30 -3 7 return
          </CharString>
          <CharString index="233">
            -1 rmoveto
            15 hlineto
            21 8 6 10 2 hvcurveto
            7 73 rlineto
            return
          </CharString>
          <CharString index="234">
            21 callsubr
            -8 3 rlineto
            1 return
          </CharString>
          <CharString index="235">
            hstemhm
            -19 493 -321 120 return
          </CharString>
          <CharString index="236">
            hstemhm
            34 457 -429 126 return
          </CharString>
          <CharString index="237">
            6 2 4 4 vvcurveto
            return
          </CharString>
          <CharString index="238">
            -16 -10 -18 -3 hvcurveto
            return
          </CharString>
          <CharString index="239">
            83 -62 callgsubr
            return
          </CharString>
          <CharString index="240">
            hlineto
            -69 -667 rlineto
            -19 10 -9 39 vhcurveto
            17 hlineto
            return
          </CharString>
          <CharString index="241">
            58 -7 callgsubr
            return
          </CharString>
          <CharString index="242">
            129 hlineto
            -7 -73 rlineto
            -10 -2 8 -6 20 hhcurveto
            return
          </CharString>
          <CharString index="243">
            -25 -2 9 -11 23 hhcurveto
            return
          </CharString>
          <CharString index="244">
            -7 113 597 -20 return
          </CharString>
          <CharString index="245">
            422 101 135 101 return
          </CharString>
          <CharString index="246">
            37 448.9 return
          </CharString>
          <CharString index="247">
            -20 84 113 return
          </CharString>
          <CharString index="248">
            -59 250 48 227 -20 248 -20 hstem
            return
          </CharString>
          <CharString index="249">
            hlineto
            19 9 13 30 3 hvcurveto
            return
          </CharString>
          <CharString index="250">
            58 132 59 109 59 return
          </CharString>
          <CharString index="251">
            rlineto
            30 4 -7 13 return
          </CharString>
          <CharString index="252">
            rlineto
            30 3 -7 13 return
          </CharString>
          <CharString index="253">
            648 rlineto
            18 return
          </CharString>
          <CharString index="254">
            101 48 101 vstem
            return
          </CharString>
          <CharString index="255">
            hvcurveto
            3 25 115 callsubr
            return
          </CharString>
          <CharString index="256">
            471 0 101 -101 111 311 101 return
          </CharString>
          <CharString index="257">
            125.5 58.5 return
          </CharString>
          <CharString index="258">
            -13 -6 -14 hhcurveto
            -20 -24 9 8 -25 hvcurveto
            return
          </CharString>
          <CharString index="259">
            104 429 -20 return
          </CharString>
          <CharString index="260">
            -15 7 -35 hhcurveto
            return
          </CharString>
        <CharString name=".notdef">
          3 0 50 600 50 hstem
          -20 573 vstem
          -20 hmoveto
          500 hlineto
          73 700 rlineto
          -500 hlineto
          218 -305 rmoveto
          -144 255 rlineto
          340 hlineto
          -428 -555 rmoveto
          53 510 144 -255 rlineto
          203 -255 rmoveto
          -143 255 196 255 rlineto
          -427 -555 rmoveto
          196 255 144 -255 rlineto
          endchar
        </CharString>
        <CharString name="A">
          -41 callgsubr
          hstemhm
          -19 493 hintmask 10110000
          23 -2 -106 callgsubr
          hintmask 11010000
          -85 callgsubr
          endchar
        </CharString>
        <CharString name="AE">
          114 callsubr
          94 callsubr
          hintmask 11111000
          26 -2 128 callgsubr
          hintmask 11110100
          51 callgsubr
          hintmask 11111000
          -18 callgsubr
        </CharString>
        <CharString name="AEacute">
          114 callsubr
          56 154 94 callsubr
          hintmask 11111100
          417 756 rmoveto
          -106 callsubr
          -391 -758 128 callgsubr
          hintmask 11111010
          51 callgsubr
          hintmask 11111100
          -18 callgsubr
        </CharString>
        <CharString name="Aacute">
          -41 callgsubr
          74 154 99 callsubr
          276 756 rmoveto
          -106 callsubr
          -253 -758 -106 callgsubr
          hintmask 11011000
          -85 callgsubr
          endchar
        </CharString>
        <CharString name="Abreve">
          -41 callgsubr
          74 82 99 callsubr
          306 -63 callgsubr
          -283 -758 -106 callgsubr
          hintmask 11011000
          -85 callgsubr
          endchar
        </CharString>
        <CharString name="Acircumflex">
          -41 callgsubr
          68 145 99 callsubr
          206 750 -107 callgsubr
          -183 -68 callgsubr
          hintmask 11011000
          -85 callgsubr
          endchar
        </CharString>
        <CharString name="Adieresis">
          -41 callgsubr
          84 113 hstemhm
          188.5 101 48 101 hintmask 10111100
          233 766 -102 callsubr
          -359 -768 -23 callgsubr
        </CharString>
        <CharString name="Agrave">
          -41 callgsubr
          74 154 99 callsubr
          326 756 -99 callsubr
          -303 -758 -106 callgsubr
          hintmask 11011000
          -85 callgsubr
          endchar
        </CharString>
        <CharString name="Amacron">
          -41 callgsubr
          97 86 99 callsubr
          211 779 -87 callsubr
          -188 -781 -106 callgsubr
          hintmask 11011000
          -85 callgsubr
          endchar
        </CharString>
        <CharString name="Aogonek">
          -6 -170 67 257 -10 callgsubr
          hstemhm
          316 65 hintmask 11011000
          460 -98 70 callgsubr
          16 4 21 8 21 hvcurveto
          -37 callgsubr
          -13 callgsubr
          -101 643 rlineto
          17 -3 -16 8 -32 hhcurveto
          -47 hlineto
          -30 -19 -8 -17 -7 hvcurveto
          -233 -643 rlineto
          -2 -6 -2 -5 -5 vvcurveto
          -12 callgsubr
          -74 callsubr
          17 -128 rlineto
          -26 -38 -7 -42 -24 -58 callgsubr
          -278 356 rmoveto
          hintmask 11101000
          -85 callgsubr
          endchar
        </CharString>
        <CharString name="Aring">
          -41 callgsubr
          50 52 83 53 hstemhm
          220 53 81 53 hintmask 00000000
          hintmask 10111110
          303 732 -70 callsubr
          -286 -786 rmoveto
          45 callgsubr
          -13 callgsubr
          hintmask 10101110
          -101 643 rlineto
          17 -3 -16 8 -32 hhcurveto
          -47 hlineto
          -30 -19 -8 -17 -7 hvcurveto
          -233 -643 rlineto
          -2 -6 -2 -5 -5 vvcurveto
          hintmask 10111110
          -12 callgsubr
          159 260 rmoveto
          hintmask 11001110
          -85 callgsubr
          endchar
        </CharString>
        <CharString name="Aringacute">
          -6 154 104 484 53 21 114 hstemhm
          207 53 81 53 hintmask 00000000
          hintmask 11111000
          291 816 rmoveto
          37 19 10 12 12 hvcurveto
          79 68 7 3 8 vvcurveto
          10 1 -18 3 -37 hhcurveto
          -37 -28 -6 -20 -15 hvcurveto
          -16 -23 -11 -16 -20 -36 rrcurveto
          -10 -1 7 -3 21 hhcurveto
          182 -782 rmoveto
          -97 617 rlineto
          hintmask 11011000
          10 14 6 17 2 19 rrcurveto
          55 5 -31 39 -58 hhcurveto
          -58 -39 -39 -55 -6 hvcurveto
          -2 -16 2 -15 4 -12 -226 -624 rcurveline
          -2 -6 -2 -5 -5 vvcurveto
          -12 callgsubr
          45 callgsubr
          hintmask 11111000
          -13 callgsubr
          hintmask 11011000
          -213 666 rmoveto
          26 3 16 16 26 hhcurveto
          26 13 -16 -26 -3 hvcurveto
          -26 -3 -17 -15 -25 hhcurveto
          -26 -13 15 26 3 hvcurveto
          -78 -442 rmoveto
          -85 callgsubr
          endchar
        </CharString>
        <CharString name="Atilde">
          -41 callgsubr
          77 callgsubr
          -19 493 hintmask 10101100
          174 761 -11 callsubr
          hintmask 10110100
          -97 callsubr
          hintmask 10101100
          -77 callgsubr
          -141 -767 -106 callgsubr
          hintmask 11001100
          -85 callgsubr
          endchar
        </CharString>
        <CharString name="B">
          28 0 105 200 104 187 104 hstemhm
          365 128 -115 129 hintmask 11110000
          72 hmoveto
          178 hlineto
          160 71 76 122 12 hvcurveto
          11 101 -54 49 -50 16 rrcurveto
          4 vlineto
          hintmask 11101000
          53 25 45 58 9 77 rrcurveto
          107 11 -56 65 -143 hhcurveto
          -173 hlineto
          -24 1 callgsubr
          -66 -628 rlineto
          hintmask 11110000
          -25 -3 9 -11 24 hhcurveto
          136 409 rmoveto
          20 187 rlineto
          hintmask 11101000
          82 hlineto
          53 21 -27 -64 -6 hvcurveto
          -61 -6 -32 -35 -50 hhcurveto
          -114 -304 rmoveto
          21 200 rlineto
          hintmask 11110000
          90 hlineto
          59 26 -30 -66 -7 hvcurveto
          -70 -7 -32 -34 -55 hhcurveto
          endchar
        </CharString>
        <CharString name="C">
          60 callgsubr
          24 callgsubr
          vstem
          289 -7 -84 callsubr
        </CharString>
        <CharString name="CR">
          -374 endchar
        </CharString>
        <CharString name="Cacute">
          60 callgsubr
          49 154 24 callgsubr
          vstem
          296 756 rmoveto
          -106 callsubr
          -7 -763 -84 callsubr
        </CharString>
        <CharString name="Cacute.loclPLK">
          60 callgsubr
          49 154 24 callgsubr
          vstem
          306 756 -75 callgsubr
          -17 -763 -84 callsubr
        </CharString>
        <CharString name="Ccaron">
          60 callgsubr
          46 145 24 callgsubr
          vstem
          321 753 -103 callgsubr
          -32 -760 -84 callsubr
        </CharString>
        <CharString name="Ccedilla">
          -52 -211 64 140 115 485 114 hstem
          46.53 135.66 44.81 84 vstem
          447 693 rmoveto
          8 -20 -34 6 -37 hhcurveto
          -188 -92 -116 -240 -25 hvcurveto
          -21 -203 52 -112 121 -33 rrcurveto
          -20 -57 -6 -16 -9 -66 callgsubr
          14 46 rlineto
          -1 10 11 0 11 hhcurveto
          35 34 6 10 22 hvcurveto
          23 12 12 17 1 28 1 34 -10 33 -29 -9 rrcurveto
          -9 -22 -22 -7 -34 hhcurveto
          -93 -38 80 163 17 hvcurveto
          164 18 52 78 93 hhcurveto
          31 23 -7 -7 17 hvcurveto
          24 -11 21 52 4 34 2 18 -4 15 -20 6 rrcurveto
          endchar
        </CharString>
        <CharString name="Ccircumflex">
          60 callgsubr
          43 145 24 callgsubr
          vstem
          226 750 -107 callgsubr
          63 -757 -84 callsubr
        </CharString>
        <CharString name="Cdotaccent">
          60 callgsubr
          59 113 24 callgsubr
          90.81 120 vstem
          327 766 -107 callsubr
          -38 -773 -84 callsubr
        </CharString>
        <CharString name="D">
          66 63 callsubr
          54 callsubr
          68 hmoveto
          -62 callsubr
          112 111 rmoveto
          -27 callgsubr
          endchar
        </CharString>
        <CharString name="Dcaron">
          66 63 callsubr
          53 145 54 callsubr
          324 753 -103 callgsubr
          -256 -753 rmoveto
          -62 callsubr
          112 111 rmoveto
          -27 callgsubr
          endchar
        </CharString>
        <CharString name="Dcroat">
          -36 callsubr
        </CharString>
        <CharString name="E">
          -54 0 -45 callsubr
          47 callsubr
          71 hmoveto
          -105 callgsubr
          endchar
        </CharString>
        <CharString name="Eacute">
          -54 0 -45 callsubr
          56 154 47 callsubr
          270 756 rmoveto
          -106 callsubr
          -199 -756 rmoveto
          -105 callgsubr
          endchar
        </CharString>
        <CharString name="Ebreve">
          -54 0 -45 callsubr
          56 82 47 callsubr
          300 -63 callgsubr
          -229 -756 rmoveto
          -105 callgsubr
          endchar
        </CharString>
        <CharString name="Ecaron">
          -54 0 -45 callsubr
          53 145 47 callsubr
          295 753 -103 callgsubr
          -224 -753 rmoveto
          -105 callgsubr
          endchar
        </CharString>
        <CharString name="Ecircumflex">
          -54 0 -45 callsubr
          50 145 47 callsubr
          200 750 -107 callgsubr
          -129 -750 rmoveto
          -105 callgsubr
          endchar
        </CharString>
        <CharString name="Edieresis">
          -54 0 -45 callsubr
          66 113 hstem
          182.5 147 callsubr
          227 766 -102 callsubr
          -305 -766 rmoveto
          -105 callgsubr
          endchar
        </CharString>
        <CharString name="Edotaccent">
          -54 0 -45 callsubr
          66 113 hstemhm
          247 120 callgsubr
          hintmask 11111000
          301 766 -107 callsubr
          -230 -766 rmoveto
          -105 callgsubr
          endchar
        </CharString>
        <CharString name="Egrave">
          -54 0 -45 callsubr
          56 154 47 callsubr
          320 756 -99 callsubr
          -249 -756 rmoveto
          -105 callgsubr
          endchar
        </CharString>
        <CharString name="Emacron">
          -54 0 -45 callsubr
          79 86 47 callsubr
          205 779 -87 callsubr
          -134 -779 rmoveto
          -105 callgsubr
          endchar
        </CharString>
        <CharString name="Eng">
          79 -212 101 813 -20 54 callgsubr
          526 702 rmoveto
          -80 callsubr
          -18 -2 13 -10 36 hhcurveto
          20 hlineto
          36 17 10 18 1 hvcurveto
          42 383 2 23 -1 22 -2 23 rlinecurve
          5 2 6 -21 5 -22 9 -20 rlinecurve
          160 -382 -10 -93 rlineto
          -40 -4 -11 -12 -19 -16 -10 4 -6 hhcurveto
          -19 -13 -44 132 callgsubr
          -3 37 -9 50 hhcurveto
          63 66 41 110 12 hvcurveto
          77 735 rlineto
          18 22 callsubr
          endchar
        </CharString>
        <CharString name="Eogonek">
          -54 -177 67 110 -45 callsubr
          hstem
          299 65 vstem
          443 -105 109 callgsubr
          6 7 3 12 2 16 3 25 rcurveline
          -104 callgsubr
          250 hlineto
          -17 -33 -5 -32 -20 -58 callgsubr
          endchar
        </CharString>
        <CharString name="Eth">
          -36 callsubr
        </CharString>
        <CharString name="Euro">
          -8 -7 114 127 72 82 72 133 114 hstemhm
          61 137 -134 133 hintmask 11111000
          282 -7 rmoveto
          94 83 43 36 4 hvcurveto
          16 1 -16 56 -28 -15 -38 -37 -67 hhcurveto
          -59 -36 41 86 -7 hvcurveto
          190 hlineto
          19 9 10 23 2 hvcurveto
          1 7 rlineto
          23 2 -7 9 -18 hhcurveto
          hintmask 11110100
          -199 hlineto
          15 2 14 1 16 vhcurveto
          2 12 2 13 1 12 rrcurveto
          200 hlineto
          18 9 10 23 2 hvcurveto
          1 7 rlineto
          23 3 -7 9 -19 hhcurveto
          -192 hlineto
          91 25 45 42 63 64 25 -31 12 hhcurveto
          21 38 54 24 3 hvcurveto
          27 3 -68 40 -90 hhcurveto
          -145 -92 -81 -166 -40 hvcurveto
          -35 hlineto
          -18 -9 -9 -23 -3 hvcurveto
          -1 -7 rlineto
          -23 -2 7 -10 19 hhcurveto
          28 hlineto
          -1 -12 -1 -12 -2 -13 -1 -15 -2 -15 -1 -15 rrcurveto
          hintmask 11111000
          -29 hlineto
          -19 -9 -9 -23 -2 hvcurveto
          -1 -7 rlineto
          -23 -2 7 -10 18 hhcurveto
          36 hlineto
          -165 5 71 -76 145 hhcurveto
          endchar
        </CharString>
        <CharString name="F">
          -88 302 111 176 111 hstem
          41 395.37 vstem
          89 -2 22 callgsubr
          29 276 rlineto
          159 hlineto
          18 9 13 30 3 148 callsubr
          -159 hlineto
          18 176 rlineto
          171 hlineto
          18 9 13 30 3 148 callsubr
          -270 48 callgsubr
          -638 -38 callgsubr
          endchar
        </CharString>
        <CharString name="G">
          41 14 callgsubr
          134 callgsubr
          354 593 -79 callgsubr
          endchar
        </CharString>
        <CharString name="Gbreve">
          41 14 callgsubr
          49 82 134 callgsubr
          349 -63 callgsubr
          5 -163 -79 callgsubr
          endchar
        </CharString>
        <CharString name="Gcircumflex">
          41 14 callgsubr
          43 145 134 callgsubr
          249 750 -107 callgsubr
          105 -157 -79 callgsubr
          endchar
        </CharString>
        <CharString name="Gcommaaccent">
          41 14 callgsubr
          43 callgsubr
          41.31 108 vstem
          354 593 -79 callgsubr
          -62 -644 rmoveto
          -16 hlineto
          -36 -15 -16 -24 hvcurveto
          -78 -17 -30 -20 vvcurveto
          -14 23 -5 15 29 58 71 78 22 -12 16 -29 vhcurveto
          endchar
        </CharString>
        <CharString name="Gdotaccent">
          41 14 callgsubr
          59 113 43 callgsubr
          112.31 120 vstem
          350 766 -107 callsubr
          4 -173 -79 callgsubr
          endchar
        </CharString>
        <CharString name="H">
          90 302 112 288 -20 hstem
          41 538 vstem
          89 -2 -56 callsubr
          endchar
        </CharString>
        <CharString name="Hbar">
          90 302 112 67 87 134 -20 hstem
          103.5 133 204 133 vstem
          634 568 rmoveto
          -66 hlineto
          11 106 10 callsubr
          -31 -6 callgsubr
          -11 -106 rlineto
          -204 hlineto
          11 106 29 callgsubr
          -35 hhcurveto
          -32 -6 callgsubr
          -11 -106 rlineto
          -72 hlineto
          -31 98 callsubr
          73 hlineto
          -48 -455 -38 callgsubr
          32 hlineto
          122 callgsubr
          1 hvcurveto
          30 276 rlineto
          204 hlineto
          -29 -276 113 callsubr
          48 455 rlineto
          67 hlineto
          29 98 callgsubr
          -215 -154 rmoveto
          -204 hlineto
          7 67 rlineto
          204 hlineto
          endchar
        </CharString>
        <CharString name="Hcircumflex">
          90 302 112 288 145 callgsubr
          41 538 vstem
          253 750 -107 callgsubr
          -164 -752 -56 callsubr
          endchar
        </CharString>
        <CharString name="I">
          85 callsubr
          hstem
          40 201 vstem
          88 -3 -81 callsubr
          endchar
        </CharString>
        <CharString name="IJ">
          106 137 callsubr
          hstem
          40 549 vstem
          88 -3 -81 callsubr
          251 -4 -64 callsubr
          endchar
        </CharString>
        <CharString name="Iacute">
          85 callsubr
          73 154 hstem
          40 262 vstem
          154 756 rmoveto
          -106 callsubr
          -66 -759 -81 callsubr
          endchar
        </CharString>
        <CharString name="Iacute_J.loclNLD">
          106 137 callsubr
          73 154 hstem
          40 608 vstem
          154 756 rmoveto
          -106 callsubr
          346 hmoveto
          -106 callsubr
          -412 -759 -81 callsubr
          251 -4 -64 callsubr
          endchar
        </CharString>
        <CharString name="Ibreve">
          85 callsubr
          73 82 hstem
          40 281 vstem
          184 -63 callgsubr
          -96 -759 -81 callsubr
          endchar
        </CharString>
        <CharString name="Icircumflex">
          85 callsubr
          67 145 hstem
          40 263 vstem
          84 750 -107 callgsubr
          4 -753 -81 callsubr
          endchar
        </CharString>
        <CharString name="Idieresis">
          85 callsubr
          83 113 hstem
          66.5 147 callsubr
          111 766 -102 callsubr
          -172 -769 -81 callsubr
          endchar
        </CharString>
        <CharString name="Idotaccent">
          85 callsubr
          83 113 hstemhm
          131 120 callgsubr
          hintmask 11100000
          185 766 -107 callsubr
          -97 -769 -81 callsubr
          endchar
        </CharString>
        <CharString name="Igrave">
          85 callsubr
          73 154 hstem
          40 201 vstem
          204 756 -99 callsubr
          -116 -759 -81 callsubr
          endchar
        </CharString>
        <CharString name="Imacron">
          85 callsubr
          96 86 hstem
          40 274.07 vstem
          89 779 -87 callsubr
          -1 -782 -81 callsubr
          endchar
        </CharString>
        <CharString name="Iogonek">
          -249 -173 67 809 -20 hstem
          83 65 vstem
          227 -101 70 callgsubr
          20 6 28 13 27 hvcurveto
          3 4 2 4 6 vvcurveto
          -74 callgsubr
          13 hlineto
          -14 -30 -4 -30 -18 -58 callgsubr
          endchar
        </CharString>
        <CharString name="Itilde">
          85 callsubr
          79 123 callgsubr
          40 275 hintmask 00000000
          hintmask 10110000
          65 761 rmoveto
          4 callsubr
          hintmask 11010000
          -54 callgsubr
          hintmask 10110000
          -9 callgsubr
          32 -768 -81 callsubr
          endchar
        </CharString>
        <CharString name="J">
          -156 137 callsubr
          hstem
          -25 352 vstem
          77 -7 -64 callsubr
          endchar
        </CharString>
        <CharString name="Jcircumflex">
          -156 137 callsubr
          67 145 hstem
          -25 412 vstem
          168 750 -107 callgsubr
          -91 -757 -64 callsubr
          endchar
        </CharString>
        <CharString name="K">
          -1 125 callgsubr
          41 499 -25 callsubr
          endchar
        </CharString>
        <CharString name="Kcommaaccent">
          -1 125 callgsubr
          180 108 -25 callsubr
          112 -236 -76 callgsubr
          endchar
        </CharString>
        <CharString name="L">
          117 callsubr
          hstem
          42 332.49 vstem
          71 hmoveto
          -68 callsubr
          endchar
        </CharString>
        <CharString name="Lacute">
          117 callsubr
          75 154 hstem
          42 332.49 vstem
          156 757 rmoveto
          -106 callsubr
          -85 -757 rmoveto
          -68 callsubr
          endchar
        </CharString>
        <CharString name="Lcaron">
          -103 0 111 589 -20 22 -20 hstemhm
          305 108 hintmask 10110000
          71 hmoveto
          -68 callsubr
          266 516 rmoveto
          hintmask 11010000
          -9 callsubr
          hintmask 10110000
          -15 24 -5 16 vhcurveto
          endchar
        </CharString>
        <CharString name="Lcommaaccent">
          117 callsubr
          hstem
          141 108 vstem
          71 hmoveto
          -68 callsubr
          91 -238 -76 callgsubr
          endchar
        </CharString>
        <CharString name="Ldot">
          -103 0 111 185 127 279 -20 hstem
          256 122 vstem
          71 hmoveto
          -68 callsubr
          240 296 16 callsubr
        </CharString>
        <CharString name="Lslash">
          117 callsubr
          hstem
          41 332.49 vstem
          351 111 rmoveto
          -170 hlineto
          59 563 rlineto
          18 2 -14 -57 callsubr
          -2 hvcurveto
          -67 -638 rlineto
          -25 -3 9 -11 23 hhcurveto
          269 hlineto
          19 21 callgsubr
          147 callgsubr
          endchar
        </CharString>
        <CharString name="M">
          178 125 callgsubr
          34.96 638.04 vstem
          330 229 rmoveto
          23 hlineto
          17 10 6 14 8 hvcurveto
          108 171 11 18 10 19 9 18 rlinecurve
          4 -1 -5 -20 -5 -21 -2 -20 rlinecurve
          -41 -387 rlineto
          -19 -2 14 -9 35 hhcurveto
          26 hlineto
          36 16 9 19 3 hvcurveto
          68 648 rlineto
          19 1 -14 9 -36 hhcurveto
          -27 hlineto
          -28 -15 -7 -17 -12 hvcurveto
          -164 -264 -10 -15 -7 -17 -5 -16 rlinecurve
          -3 16 -4 17 -6 15 -110 264 rcurveline
          17 -7 -15 7 -27 hhcurveto
          -28 hlineto
          -36 -15 -9 -19 -2 hvcurveto
          -68 -648 rlineto
          -19 -2 13 -9 36 hhcurveto
          26 hlineto
          36 16 9 19 3 hvcurveto
          40 387 2 20 0 21 -1 20 rlinecurve
          4 1 6 -18 5 -19 7 -18 rlinecurve
          72 -171 rlineto
          -14 6 8 -6 18 hhcurveto
          endchar
        </CharString>
        <CharString name="N">
          79 702 -20 54 callgsubr
          -29 callsubr
          endchar
        </CharString>
        <CharString name="NULL">
          -511 endchar
        </CharString>
        <CharString name="Nacute">
          79 702 -20 74 154 54 callgsubr
          317 756 rmoveto
          -106 callsubr
          -235 -758 -100 callgsubr
          endchar
        </CharString>
        <CharString name="Nacute.loclPLK">
          79 702 -20 74 154 54 callgsubr
          327 756 -75 callgsubr
          -245 -758 -100 callgsubr
          endchar
        </CharString>
        <CharString name="Ncaron">
          79 702 -20 71 145 54 callgsubr
          342 753 -103 callgsubr
          -260 -755 -100 callgsubr
          endchar
        </CharString>
        <CharString name="Ncommaaccent">
          79 125 callgsubr
          217 108 vstem
          -29 callsubr
          156 -236 -76 callgsubr
          endchar
        </CharString>
        <CharString name="Ntilde">
          79 702 -20 77 callgsubr
          38 callsubr
          hintmask 00000000
          hintmask 10110000
          215 761 -11 callsubr
          hintmask 11010000
          -97 callsubr
          hintmask 10110000
          -77 callgsubr
          -123 -767 -100 callgsubr
          endchar
        </CharString>
        <CharString name="O">
          -31 callgsubr
          hstem
          -65 callgsubr
          vstem
          271 -7 -98 callgsubr
          endchar
        </CharString>
        <CharString name="OE">
          320 -7 111 -104 -45 callsubr
          -104 111 hstemhm
          46.67 134.75 hintmask 01110100
          804 700 rmoveto
          -303 hlineto
          -23 -11 34 callsubr
          -10 rlineto
          hintmask 10101100
          38 -32 -44 15 -59 hhcurveto
          -157 -93 -113 -243 -27 hvcurveto
          -248 -26 93 -110 138 hhcurveto
          54 48 14 29 39 hvcurveto
          hintmask 01110100
          136 callsubr
          303 hlineto
          18 9 84 callsubr
          -5 13 -18 hhcurveto
          -204 hlineto
          20 192 rlineto
          183 hlineto
          17 10 84 callsubr
          -6 13 -17 hhcurveto
          -183 hlineto
          18 175 rlineto
          204 hlineto
          17 11 13 30 2 hvcurveto
          3 25 33 callsubr
          hintmask 10101100
          -520 -596 -76 callsubr
          endchar
        </CharString>
        <CharString name="Oacute">
          -31 callgsubr
          49 154 hstem
          -65 callgsubr
          vstem
          322 756 rmoveto
          -106 callsubr
          -51 -763 -98 callgsubr
          endchar
        </CharString>
        <CharString name="Oacute.loclPLK">
          -31 callgsubr
          49 154 hstem
          -65 callgsubr
          vstem
          332 756 -75 callgsubr
          -61 -763 -98 callgsubr
          endchar
        </CharString>
        <CharString name="Obreve">
          -31 callgsubr
          49 82 hstem
          -65 callgsubr
          vstem
          352 -63 callgsubr
          -81 -763 -98 callgsubr
          endchar
        </CharString>
        <CharString name="Ocircumflex">
          -31 callgsubr
          43 145 hstem
          -65 callgsubr
          vstem
          252 750 -107 callgsubr
          19 -757 -98 callgsubr
          endchar
        </CharString>
        <CharString name="Odieresis">
          -31 callgsubr
          59 113 89 callsubr
          53.07999 101 48 101 -47.61 133.43 hintmask 11111010
          279 766 -87 callgsubr
          hintmask 11111100
          149 hmoveto
          34 17 36 callsubr
          5 57 -62 callgsubr
          -15 10 -35 -88 callsubr
          -157 -773 104 callsubr
          hintmask 11111010
          247 26 -92 109 -153 hhcurveto
          -172 -98 -108 -248 -26 hvcurveto
          hintmask 11111100
          41 callsubr
          hintmask 11111010
          183 20 48 62 82 hhcurveto
          80 36 -62 -183 -20 hvcurveto
          hintmask 11111100
          -33 callgsubr
          endchar
        </CharString>
        <CharString name="Ograve">
          -31 callgsubr
          49 154 hstem
          -65 callgsubr
          vstem
          372 756 -99 callsubr
          -101 -763 -98 callgsubr
          endchar
        </CharString>
        <CharString name="Ohorn">
          -31 callgsubr
          -93 38 -1 callgsubr
          hintmask 00000000
          hintmask 10110100
          632 706 -55 callgsubr
          hintmask 11011000
          -32 callgsubr
          hintmask 10111000
          59 callgsubr
          hintmask 10110100
          100 callgsubr
          hintmask 11011000
          -200 -355 rmoveto
          -33 callgsubr
          -82 callsubr
          endchar
        </CharString>
        <CharString name="Ohungarumlaut">
          -31 callgsubr
          49 154 hstem
          -65 callgsubr
          vstem
          260 756 -78 callsubr
          -140 -763 -98 callgsubr
          endchar
        </CharString>
        <CharString name="Omacron">
          -31 callgsubr
          72 86 hstem
          -65 callgsubr
          vstem
          257 779 -87 callsubr
          14 -786 -98 callgsubr
          endchar
        </CharString>
        <CharString name="Oslash">
          -31 callgsubr
          79 callgsubr
          520 628 -46 callsubr
        </CharString>
        <CharString name="Oslashacute">
          -31 callgsubr
          49 154 79 callgsubr
          319 756 rmoveto
          -106 callsubr
          201 -128 -46 callsubr
        </CharString>
        <CharString name="Otilde">
          -31 callgsubr
          55 75 -42 75 hstemhm
          -65 callgsubr
          hintmask 00000000
          hintmask 11011100
          220 761 -11 callsubr
          hintmask 11101100
          -97 callsubr
          hintmask 11011100
          -77 callgsubr
          61 -772 -98 callgsubr
          endchar
        </CharString>
        <CharString name="P">
          275 110 204 111 hstem
          41 449.99 vstem
          90 -2 rmoveto
          27 hlineto
          36 17 10 18 1 hvcurveto
          27 249 rlineto
          84 hlineto
          44 143 25 189 20 hvcurveto
          185 19 -118 26 -73 hhcurveto
          -170 hlineto
          -24 -12 -26 callsubr
          -67 -638 -15 callsubr
          37 hhcurveto
          119 387 rmoveto
          21 204 rlineto
          70 hlineto
          30 38 -18 -82 -8 hvcurveto
          -86 -9 -43 -18 -27 hhcurveto
          endchar
        </CharString>
        <CharString name="Q">
          88 596 111 hstem
          45.69 134.73 255.47 133.68 vstem
          480 -163 rmoveto
          29 37 71 14 3 hvcurveto
          1 7 -2 6 -9 4 -167 76 rcurveline
          4 vlineto
          106 43 67 107 20 181 rrcurveto
          247 26 -86 110 -159 hhcurveto
          -176 -94 -109 -248 -26 hvcurveto
          -19 -182 42 -100 86 -54 rrcurveto
          -50 79 228 -127 14 hhcurveto
          -197 265 rmoveto
          -81 -36 64 184 19 hvcurveto
          183 20 49 63 81 hhcurveto
          80 36 -63 -183 -20 hvcurveto
          -184 -19 -49 -64 -80 hhcurveto
          endchar
        </CharString>
        <CharString name="R">
          84 callgsubr
          hstem
          139 callsubr
          vstem
          -29 callgsubr
          endchar
        </CharString>
        <CharString name="Racute">
          84 callgsubr
          56 154 hstem
          139 callsubr
          vstem
          274 756 rmoveto
          -106 callsubr
          -187 -758 -86 callgsubr
          endchar
        </CharString>
        <CharString name="Rcaron">
          84 callgsubr
          53 145 hstem
          139 callsubr
          vstem
          299 753 -103 callgsubr
          -212 -755 -86 callgsubr
          endchar
        </CharString>
        <CharString name="Rcommaaccent">
          84 callgsubr
          hstem
          176 108 vstem
          -29 callgsubr
          -83 -633 -76 callgsubr
          endchar
        </CharString>
        <CharString name="S">
          58 callsubr
          hstem
          57 131 86 132 vstem
          -22 callsubr
          endchar
        </CharString>
        <CharString name="Sacute">
          58 callsubr
          47 154 hstem
          57 131 86 132 vstem
          245 756 rmoveto
          -106 callsubr
          -70 -763 rmoveto
          -92 callgsubr
          endchar
        </CharString>
        <CharString name="Sacute.loclPLK">
          58 callsubr
          47 154 hstem
          57 131 86 132 vstem
          255 756 -75 callgsubr
          -80 -763 rmoveto
          -92 callgsubr
          endchar
        </CharString>
        <CharString name="Scaron">
          58 callsubr
          44 150 callgsubr
          270 753 -103 callgsubr
          -95 -760 rmoveto
          -92 callgsubr
          endchar
        </CharString>
        <CharString name="Scedilla">
          -74 -211 64 141 111 492 112 hstemhm
          57 131 -22 84 24 132 hintmask 11110100
          282 400 rmoveto
          -52 32 -42 27 55 vvcurveto
          44 30 39 66 21 25 -5 -12 30 vhcurveto
          -2 7 10 -4 7 hhcurveto
          22 17 56 24 10 -6 10 -11 6 hvcurveto
          19 -32 -56 10 -45 hhcurveto
          -124 -92 -83 -134 -93 53 -45 71 -44 hvcurveto
          49 -30 44 -27 -54 vvcurveto
          -70 -48 -24 -51 -41 -34 12 22 -37 vhcurveto
          4 -5 -5 3 -6 hhcurveto
          -23 -18 -53 -29 -22 24 -14 21 -9 hvcurveto
          hintmask 11101100
          26 -15 30 -7 32 -3 rrcurveto
          -18 -50 -5 -15 -8 -66 callgsubr
          13 46 rlineto
          hintmask 11110100
          132 7 79 83 138 vvcurveto
          90 -51 43 -73 45 vhcurveto
          endchar
        </CharString>
        <CharString name="Scircumflex">
          58 callsubr
          41 150 callgsubr
          175 750 -107 callgsubr
          -757 vmoveto
          -92 callgsubr
          endchar
        </CharString>
        <CharString name="Scommaaccent">
          58 callsubr
          hstemhm
          57 131 -73 108 51 132 hintmask 11101000
          -22 callsubr
          hintmask 11011000
          -39 -231 -76 callgsubr
          endchar
        </CharString>
        <CharString name="T">
          -57 589 111 hstem
          102 callsubr
          vstem
          184 -2 -59 callgsubr
          endchar
        </CharString>
        <CharString name="Tbar">
          -57 308 87 194 111 hstem
          27 458 vstem
          463 700 rmoveto
          -379 75 callsubr
          -3 -25 53 callgsubr
          123 hlineto
          -20 -194 rlineto
          -116 hlineto
          -30 98 callsubr
          116 hlineto
          -30 -282 113 callsubr
          30 282 rlineto
          111 hlineto
          30 98 callgsubr
          -112 hlineto
          21 194 rlineto
          123 hlineto
          18 10 13 30 2 hvcurveto
          4 119 callsubr
          -18 hhcurveto
          endchar
        </CharString>
        <CharString name="Tcaron">
          -57 589 111 53 145 hstem
          102 callsubr
          vstem
          274 753 -103 callgsubr
          -90 -755 -59 callgsubr
          endchar
        </CharString>
        <CharString name="Thorn">
          162 109 205 111 115 -20 hstem
          36.96 438.03 vstem
          84 -2 rmoveto
          31 hlineto
          35 17 -60 callsubr
          14 136 rlineto
          83 hlineto
          44 142 25 189 21 hvcurveto
          184 19 -118 27 -73 hhcurveto
          -73 hlineto
          9 87 -62 callgsubr
          -15 10 -35 hhcurveto
          -31 hlineto
          -36 -15 75 callgsubr
          -18 -2 13 -10 36 hhcurveto
          110 273 rmoveto
          22 205 rlineto
          67 hlineto
          32 37 -18 -82 -9 hvcurveto
          -87 -9 -42 -18 -28 hhcurveto
          endchar
        </CharString>
        <CharString name="U">
          33 callgsubr
          hstemhm
          51 132 hintmask 00000000
          hintmask 11100000
          264 -7 -96 callsubr
        </CharString>
        <CharString name="Uacute">
          52 callsubr
          -5 callsubr
          hintmask 11110000
          314 756 rmoveto
          -106 callsubr
          hintmask 11101000
          -50 -763 -96 callsubr
        </CharString>
        <CharString name="Ubreve">
          33 callgsubr
          74 82 -5 callsubr
          hintmask 11110000
          344 -63 callgsubr
          hintmask 11101000
          -80 -763 -96 callsubr
        </CharString>
        <CharString name="Ucircumflex">
          33 callgsubr
          68 145 -5 callsubr
          hintmask 11110000
          244 750 -107 callgsubr
          hintmask 11101000
          20 -757 -96 callsubr
        </CharString>
        <CharString name="Udieresis">
          33 callgsubr
          84 113 hstem
          51 132 43.5 147 callsubr
          271 766 -102 callsubr
          -156 -773 -96 callsubr
        </CharString>
        <CharString name="Ugrave">
          52 callsubr
          -5 callsubr
          hintmask 11110000
          364 756 -99 callsubr
          hintmask 11101000
          -100 -763 -96 callsubr
        </CharString>
        <CharString name="Uhorn">
          33 callgsubr
          hstem
          51 132 395 72 vstem
          650 755 -83 callgsubr
        </CharString>
        <CharString name="Uhungarumlaut">
          52 callsubr
          -5 callsubr
          hintmask 11110000
          252 756 -78 callsubr
          hintmask 11101000
          -139 -763 -96 callsubr
        </CharString>
        <CharString name="Umacron">
          33 callgsubr
          97 86 -5 callsubr
          hintmask 11110000
          249 779 -87 callsubr
          hintmask 11101000
          15 -786 -96 callsubr
        </CharString>
        <CharString name="Uogonek">
          72 -162 67 88 77 callsubr
          hstem
          51 132 138 65 vstem
          521 702 rmoveto
          -30 -48 callgsubr
          26 24 2 5 22 hvcurveto
          -11 -27 -4 -26 -17 -58 callgsubr
          135 callgsubr
          14 27 hvcurveto
          65 34 40 61 8 82 50 473 rcurveline
          18 2 121 callsubr
          endchar
        </CharString>
        <CharString name="Uring">
          33 callgsubr
          50 52 83 53 hstemhm
          51 132 75 53 81 53 hintmask 00000000
          hintmask 11111110
          341 732 -70 callsubr
          -83 -791 rmoveto
          147 95 77 131 13 hvcurveto
          hintmask 11011110
          -93 callsubr
          hintmask 11111110
          -21 callgsubr
          endchar
        </CharString>
        <CharString name="Utilde">
          33 callgsubr
          80 75 -42 75 -5 callsubr
          hintmask 00000000
          hintmask 11011000
          212 761 -11 callsubr
          hintmask 11101000
          -97 callsubr
          hintmask 11011000
          -77 callgsubr
          hintmask 11100100
          62 -772 -96 callsubr
        </CharString>
        <CharString name="V">
          -3 -2 136 568 -20 hstem
          54 487 vstem
          198 -2 rmoveto
          58 hlineto
          25 20 5 14 5 hvcurveto
          230 648 2 7 2 5 1 5 rlinecurve
          13 1 153 callsubr
          -28 hlineto
          -25 -20 -6 -18 -6 hvcurveto
          -156 -481 -16 -63 rlineto
          -3 hlineto
          -2 63 -53 481 rlineto
          18 -2 -19 6 -25 hhcurveto
          -29 hlineto
          -35 -18 -8 -12 -1 hvcurveto
          -1 -5 2 -5 1 -6 97 -649 rcurveline
          69 callsubr
          25 hhcurveto
          endchar
        </CharString>
        <CharString name="W">
          241 125 callgsubr
          55 729 vstem
          172 -2 -92 callsubr
        </CharString>
        <CharString name="Wacute">
          241 115 callgsubr
          55 729 vstem
          397 756 rmoveto
          -106 callsubr
          -225 -758 -92 callsubr
        </CharString>
        <CharString name="Wcircumflex">
          241 702 145 callgsubr
          55 729 vstem
          327 750 -107 callgsubr
          -155 -752 -92 callsubr
        </CharString>
        <CharString name="Wdieresis">
          241 702 140 callsubr
          hstem
          309.5 147 callsubr
          354 766 -102 callsubr
          -331 -768 -92 callsubr
        </CharString>
        <CharString name="Wgrave">
          241 115 callgsubr
          55 729 vstem
          447 756 -99 callsubr
          -275 -758 -92 callsubr
        </CharString>
        <CharString name="X">
          -5 125 callgsubr
          -13 543 vstem
          38 -2 rmoveto
          34 hlineto
          25 18 1 17 8 hvcurveto
          135 262 72 -262 rlineto
          -14 4 19 -4 24 hhcurveto
          35 hlineto
          36 17 7 11 1 hvcurveto
          1 7 -3 6 -3 10 -116 325 rcurveline
          176 297 rlineto
          5 10 4 7 6 vvcurveto
          12 2 -18 6 -35 hhcurveto
          -35 hlineto
          -25 -19 -2 -16 -7 hvcurveto
          -118 -238 -61 238 rlineto
          15 -3 -20 3 -23 hhcurveto
          -37 hlineto
          -37 -18 -7 -11 -1 hvcurveto
          -7 3 -7 4 -9 vhcurveto
          105 -295 -190 -327 -6 -11 -3 -6 -1 -6 rlinecurve
          -12 -1 15 -6 37 hhcurveto
          endchar
        </CharString>
        <CharString name="Y">
          -27 125 callgsubr
          52 467 vstem
          199 -2 -90 callgsubr
          endchar
        </CharString>
        <CharString name="Y.loclGUA">
          32 callsubr
          129 callsubr
          hintmask 11110000
          441 701 -4 callsubr
          hintmask 11101000
          -94 callgsubr
          hintmask 11110000
          112 callgsubr
        </CharString>
        <CharString name="Yacute">
          -27 115 callgsubr
          52 467 vstem
          264 756 rmoveto
          -106 callsubr
          -65 -758 -90 callgsubr
          endchar
        </CharString>
        <CharString name="Yacute.loclGUA">
          32 callsubr
          75 154 129 callsubr
          hintmask 11111000
          271 756 rmoveto
          -106 callsubr
          170 -55 -4 callsubr
          hintmask 11110100
          -94 callgsubr
          hintmask 11111000
          112 callgsubr
        </CharString>
        <CharString name="Ycircumflex">
          -27 702 145 callgsubr
          52 467 vstem
          194 750 -107 callgsubr
          5 -752 -90 callgsubr
          endchar
        </CharString>
        <CharString name="Ycircumflex.loclGUA">
          32 callsubr
          69 145 129 callsubr
          hintmask 11111000
          201 750 -107 callgsubr
          240 -49 -4 callsubr
          hintmask 11110100
          -94 callgsubr
          hintmask 11111000
          112 callgsubr
        </CharString>
        <CharString name="Ydieresis">
          -27 702 140 callsubr
          hstem
          176.5 147 callsubr
          221 766 -102 callsubr
          -171 -768 -90 callgsubr
          endchar
        </CharString>
        <CharString name="Ydieresis.loclGUA">
          32 callsubr
          85 113 hstemhm
          62 126 -4.5 101 48 101 hintmask 11110110
          228 766 -102 callsubr
          64 -65 -4 callsubr
          hintmask 11111010
          -94 callgsubr
          hintmask 11110110
          112 callgsubr
        </CharString>
        <CharString name="Ygrave">
          -27 115 callgsubr
          52 467 vstem
          314 756 -99 callsubr
          -115 -758 -90 callgsubr
          endchar
        </CharString>
        <CharString name="Ygrave.loclGUA">
          32 callsubr
          75 154 129 callsubr
          hintmask 11111000
          321 756 -99 callsubr
          120 -55 -4 callsubr
          hintmask 11110100
          -94 callgsubr
          hintmask 11111000
          112 callgsubr
        </CharString>
        <CharString name="Z">
          -4 63 callsubr
          hstem
          7 502 vstem
          32 -2 callsubr
          endchar
        </CharString>
        <CharString name="Zacute">
          -4 63 callsubr
          56 154 hstem
          7 502 vstem
          278 756 rmoveto
          -106 callsubr
          -246 -756 rmoveto
          -86 callsubr
          endchar
        </CharString>
        <CharString name="Zacute.loclPLK">
          -4 63 callsubr
          56 154 hstem
          7 502 vstem
          288 756 -75 callgsubr
          -256 -756 rmoveto
          -86 callsubr
          endchar
        </CharString>
        <CharString name="Zcaron">
          -4 63 callsubr
          53 145 hstem
          7 502 vstem
          303 753 -103 callgsubr
          -271 -753 rmoveto
          -86 callsubr
          endchar
        </CharString>
        <CharString name="Zdotaccent">
          -4 63 callsubr
          66 113 hstemhm
          255 120 callgsubr
          hintmask 11110000
          309 766 -107 callsubr
          -277 -766 rmoveto
          -86 callsubr
          endchar
        </CharString>
        <CharString name="a">
          -19 callsubr
          -72 callsubr
          hintmask 10111000
          162 -8 rmoveto
          -105 callsubr
          hintmask 11011000
          -69 callsubr
          hintmask 10111000
          -75 callsubr
          hintmask 11011000
          -84 callgsubr
          hintmask 10111000
          -13 callsubr
          endchar
        </CharString>
        <CharString name="aacute">
          63 callgsubr
          154 40 callsubr
          240 579 rmoveto
          -106 callsubr
          -78 -587 -88 callgsubr
        </CharString>
        <CharString name="abreve">
          52 callgsubr
          40 callsubr
          270 579 rmoveto
          81 50 50 59 6 hvcurveto
          20 2 -13 7 -18 hhcurveto
          -14 -7 -8 -11 -7 hvcurveto
          -17 -9 -13 -18 -49 hhcurveto
          -46 -11 16 17 -7 hvcurveto
          13 -4 -5 8 -15 hhcurveto
          -18 -15 -7 -20 -2 hvcurveto
          -59 -6 39 -50 81 hhcurveto
          -108 -587 -88 callgsubr
        </CharString>
        <CharString name="acircumflex">
          -19 callsubr
          68 145 40 callsubr
          170 573 -107 callgsubr
          -8 -581 -88 callgsubr
        </CharString>
        <CharString name="acute">
          -255 121 callgsubr
          40 174 vstem
          66 579 rmoveto
          -106 callsubr
          endchar
        </CharString>
        <CharString name="acute.loclPLK">
          -255 121 callgsubr
          45 150 vstem
          74 579 -75 callgsubr
          endchar
        </CharString>
        <CharString name="acutecomb">
          -511 121 callgsubr
          -13 174 vstem
          13 579 rmoveto
          -106 callsubr
          endchar
        </CharString>
        <CharString name="adieresis">
          -19 callsubr
          84 113 hstemhm
          33.63 125.6 -6.73001 101 27.5 172 -151.5 101 hintmask 00000000
          hintmask 10110101
          197 589 -102 callsubr
          hintmask 10111010
          -184 -597 rmoveto
          -105 callsubr
          hintmask 11011010
          -69 callsubr
          hintmask 10111010
          -75 callsubr
          hintmask 11011000
          -84 callgsubr
          hintmask 10111010
          -13 callsubr
          endchar
        </CharString>
        <CharString name="ae">
          177 -7 100 -100 103 120 90 124 100 94 callgsubr
          hintmask 01111110
          156 -7 rmoveto
          62 55 25 34 30 hvcurveto
          hintmask 10111110
          -16 callsubr
          hintmask 01111110
          9 callsubr
        </CharString>
        <CharString name="aeacute">
          177 -7 100 -100 103 120 90 124 140 callgsubr
          94 callgsubr
          hintmask 01111111
          348 579 rmoveto
          -106 callsubr
          -192 -586 rmoveto
          62 55 25 34 30 hvcurveto
          hintmask 10111111
          -16 callsubr
          hintmask 01111111
          9 callsubr
        </CharString>
        <CharString name="agrave">
          63 callgsubr
          154 40 callsubr
          290 579 -99 callsubr
          -128 -587 -88 callgsubr
        </CharString>
        <CharString name="amacron">
          -19 callsubr
          97 86 40 callsubr
          175 602 -87 callsubr
          -13 -610 -88 callgsubr
        </CharString>
        <CharString name="ampersand">
          9 -7 100 226 100 188 100 hstemhm
          6.96 130.04 -75 127 109 129 hintmask 11110000
          491 419 rmoveto
          -35 hlineto
          10 99 rlineto
          19 2 -11 9 -30 hhcurveto
          -27 hlineto
          -29 -17 -9 -19 -4 hvcurveto
          -22 -99 rlineto
          hintmask 11101000
          -72 hlineto
          -47 -25 47 50 5 hvcurveto
          45 4 20 46 44 19 13 -8 6 hhcurveto
          13 20 38 32 4 hvcurveto
          27 2 -51 11 -38 hhcurveto
          -101 -71 -63 -109 -11 hvcurveto
          -8 -71 23 -52 43 -24 -1 -4 rcurveline
          -68 -24 -32 -66 -10 -90 rrcurveto
          hintmask 11110100
          -141 -15 63 -70 112 hhcurveto
          54 46 16 25 50 hvcurveto
          -30 17 27 -11 41 hhcurveto
          25 54 3 39 5 hvcurveto
          8 1 -5 55 -16 -5 -5 -5 -12 hhcurveto
          -18 -5 14 41 4 hvcurveto
          19 171 rlineto
          34 74 callsubr
          15 rlineto
          hintmask 11110000
          30 3 -7 12 -17 hhcurveto
          -354 -214 rmoveto
          79 8 27 35 66 hhcurveto
          hintmask 11110100
          80 hlineto
          -20 -188 rlineto
          -3 0 -4 -1 -3 vhcurveto
          -18 -41 -27 -10 -31 hhcurveto
          hintmask 11110000
          -47 -22 33 79 8 hvcurveto
          endchar
        </CharString>
        <CharString name="aogonek">
          -30 -187 67 112 27 callsubr
          -72 callsubr
          -134 65 hintmask 11011010
          463 -115 109 callgsubr
          hintmask 11011100
          32 11 18 27 35 vvcurveto
          13 -3 14 -9 vhcurveto
          -100 callsubr
          hintmask 11101100
          -69 callsubr
          -131 -14 24 -144 115 hhcurveto
          52 40 28 53 27 hvcurveto
          6 -49 25 -22 32 -7 rrcurveto
          hintmask 11011010
          -19 -34 -6 -35 -21 -58 callgsubr
          -162 455 rmoveto
          -17 -162 rlineto
          -13 callsubr
          -52 -4 86 86 9 hvcurveto
          hintmask 11101010
          111 12 28 51 53 hhcurveto
          27 16 -14 -13 12 hvcurveto
          hintmask 11011010
          -3 -14 -4 -22 -3 -26 rrcurveto
          endchar
        </CharString>
        <CharString name="approxequal">
          -73 92 72 -37 72 73 73 -38 73 hstemhm
          36 369 hintmask 00000000
          hintmask 01011000
          221 291 rmoveto
          hintmask 01101000
          -10 28 30 -9 24 hhcurveto
          47 33 26 43 18 hvcurveto
          3 7 1 5 3 vvcurveto
          7 -3 6 -9 5 vhcurveto
          -8 4 -20 10 -6 -9 -15 -14 rlinecurve
          -15 -13 -13 -5 -14 hhcurveto
          -20 -24 8 8 -25 hvcurveto
          hintmask 01011000
          9 -29 -30 10 -23 hhcurveto
          -48 -33 -27 -42 -18 hvcurveto
          -3 -7 108 callgsubr
          15 15 rlinecurve
          15 13 13 5 14 hhcurveto
          20 24 -8 -8 25 hvcurveto
          hintmask 01101000
          -14 -181 rmoveto
          hintmask 10101000
          -9 28 30 -9 24 hhcurveto
          47 33 26 43 19 hvcurveto
          3 6 1 5 4 vvcurveto
          -1 6 -3 7 -8 4 -9 5 rcurveline
          -20 10 -6 -9 -15 -14 rrcurveto
          -15 -13 151 callsubr
          hintmask 01101000
          9 -28 -31 9 -23 hhcurveto
          -48 -33 -26 -43 -18 hvcurveto
          -3 -6 -1 -5 -4 vvcurveto
          1 -6 3 -7 8 -4 9 -5 rcurveline
          19 -10 7 9 15 14 rrcurveto
          15 13 13 6 14 hhcurveto
          20 24 -9 -8 25 hvcurveto
          endchar
        </CharString>
        <CharString name="aring">
          -19 callsubr
          50 52 83 53 67 callsubr
          hintmask 1011111010000000
          267 555 -70 callsubr
          hintmask 1010110100000000
          -111 -615 rmoveto
          -105 callsubr
          hintmask 1100110100000000
          -69 callsubr
          hintmask 1010110100000000
          -75 callsubr
          hintmask 1100110000000000
          -84 callgsubr
          hintmask 1010110100000000
          -13 callsubr
          endchar
        </CharString>
        <CharString name="aringacute">
          -19 callsubr
          50 52 83 53 26 154 67 callsubr
          hintmask 1011111101000000
          286 769 rmoveto
          -106 callsubr
          -19 -214 rmoveto
          58 40 39 55 6 hvcurveto
          hintmask 1010101101000000
          55 5 -31 39 -58 hhcurveto
          -58 -39 -39 -55 -6 hvcurveto
          hintmask 1011111101000000
          -55 -6 31 -39 58 hhcurveto
          6 52 rmoveto
          -26 -13 15 26 3 hvcurveto
          hintmask 1010101101000000
          26 3 16 16 26 hhcurveto
          26 13 -16 -26 -3 hvcurveto
          hintmask 1011111101000000
          -26 -3 -17 -15 -25 hhcurveto
          hintmask 1010101010000000
          -111 -615 rmoveto
          -105 callsubr
          hintmask 1100101010000000
          -69 callsubr
          hintmask 1010101010000000
          -75 callsubr
          hintmask 1100101000000000
          -84 callgsubr
          hintmask 1010101010000000
          -13 callsubr
          endchar
        </CharString>
        <CharString name="arrowdown">
          18 -3 712 hstem
          15.95 503.05 vstem
          499 341 rmoveto
          -203 -184 55 523 rlineto
          19 2 -11 10 -27 hhcurveto
          -16 hlineto
          -27 -13 79 callsubr
          -54 -520 -156 179 -9 11 -11 -2 -2 -18 rlinecurve
          -8 -69 -3 -23 3 -7 14 -15 rlinecurve
          188 -212 rlineto
          5 -5 4 -2 8 9 4 2 6 hflex1
          233 212 17 16 4 9 2 20 rlinecurve
          8 71 2 14 -12 5 -10 -10 rlinecurve
          endchar
        </CharString>
        <CharString name="arrowleft">
          89 212 94 222 -20 hstem
          3 591 vstem
          569 306 rmoveto
          -406 hlineto
          175 191 rlineto
          19 18 -1 12 -27 hhcurveto
          -61 hlineto
          -20 -13 -5 -14 -13 hvcurveto
          -210 -228 rlineto
          -6 -5 -2 -5 -7 vvcurveto
          -1 -9 1 -4 4 -6 163 -226 rcurveline
          -14 10 12 -5 20 hhcurveto
          54 hlineto
          24 6 11 21 -15 hvcurveto
          -131 180 rlineto
          410 hlineto
          18 11 12 27 3 hvcurveto
          2 16 rlineto
          27 2 -8 12 -19 hhcurveto
          endchar
        </CharString>
        <CharString name="arrowright">
          89 222 93 213 -20 hstem
          2.8 591.2 vstem
          589 282 rmoveto
          -163 227 rlineto
          14 -10 -12 5 -20 hhcurveto
          -54 hlineto
          -24 -5 -12 -20 14 hvcurveto
          132 -181 rlineto
          -411 hlineto
          -18 -11 -11 -27 -3 hvcurveto
          -1 -16 rlineto
          -28 -3 8 -11 19 hhcurveto
          407 hlineto
          -175 -191 rlineto
          -19 -18 1 -12 27 hhcurveto
          60 hlineto
          20 13 5 14 13 hvcurveto
          210 227 6 6 2 5 1 7 rlinecurve
          1 9 -1 4 -5 5 rrcurveto
          endchar
        </CharString>
        <CharString name="arrowup">
          -6 125 callgsubr
          16 503.04 vstem
          504 490 rmoveto
          -188 212 rlineto
          -4 5 -5 2 -8 -8 -5 -2 -6 hflex1
          -233 -213 -16 -15 -4 -9 -3 -20 rlinecurve
          -8 -71 -1 -14 11 -5 10 10 rlinecurve
          204 185 -55 -524 rlineto
          -19 -3 11 -10 27 hhcurveto
          16 hlineto
          27 13 10 19 2 hvcurveto
          54 520 156 -179 10 -11 10 2 2 18 rlinecurve
          8 69 3 23 -3 7 -14 15 rlinecurve
          endchar
        </CharString>
        <CharString name="asciicircum">
          -151 319 366 hstemhm
          256 86 hintmask 00000000
          hintmask 11000000
          342 351 rmoveto
          -73 308 rlineto
          19 -3 -11 7 -17 hhcurveto
          -27 hlineto
          -16 -12 -7 -19 -9 hvcurveto
          -136 -308 rlineto
          -3 -6 -1 -5 -4 vvcurveto
          -11 -1 7 -6 18 hhcurveto
          20 hlineto
          21 15 8 19 8 hvcurveto
          93 233 41 -233 rlineto
          -19 3 15 -8 22 hhcurveto
          19 hlineto
          19 8 6 11 1 hvcurveto
          4 -1 5 6 vvcurveto
          endchar
        </CharString>
        <CharString name="asciitilde">
          -74 221 72 -37 72 hstemhm
          42 355 hintmask 00000000
          hintmask 10100000
          294 221 rmoveto
          48 33 26 43 18 hvcurveto
          3 6 1 5 4 vvcurveto
          6 -3 7 -9 4 vhcurveto
          -9 5 -19 10 -7 -9 -14 -14 rlinecurve
          -15 -14 151 callsubr
          hintmask 01100000
          9 -28 -30 9 -24 hhcurveto
          -47 -33 -26 -43 -18 hvcurveto
          -3 -6 108 callgsubr
          14 14 rlinecurve
          15 14 12 6 14 hhcurveto
          20 24 -9 -8 25 hvcurveto
          hintmask 10100000
          -9 29 30 -9 23 hhcurveto
          endchar
        </CharString>
        <CharString name="asterisk">
          -212 708 -20 hstem
          161 52.5 vstem
          95 421 rmoveto
          6 9 4 10 7 hvcurveto
          56 77 41 -77 rlineto
          -9 5 7 -5 7 hhcurveto
          12 18 12 11 2 hvcurveto
          1 6 -2 6 -4 8 -43 83 rcurveline
          74 27 12 5 7 5 1 10 rlinecurve
          17 2 -8 15 -15 hhcurveto
          -4 -4 0 -3 -7 hvcurveto
          -66 -24 9 132 callsubr
          -7 8 -19 hhcurveto
          -18 -9 -8 -51 callsubr
          -8 -83 -62 24 rlineto
          3 -6 -5 0 -3 hhcurveto
          -17 -9 -18 -14 -2 hvcurveto
          -1 -10 6 -5 12 -5 66 -27 rcurveline
          -59 -83 -6 -8 -4 -6 1 -6 rlinecurve
          -11 -2 16 -12 13 hhcurveto
          endchar
        </CharString>
        <CharString name="at">
          281 -124 50 131 72 -72 86 279 85 150 50 hstemhm
          55 60 97 106 349 60 hintmask 11011111
          441 707 rmoveto
          -217 -169 -205 -264 -214 112 -148 163 44 98 11 39 20 -5 9 -9 hvcurveto
          -18 -32 -29 -73 hhcurveto
          -132 -88 126 185 237 143 183 181 136 92 -108 -170 -132 -52 -118 -57 -14 -16 8 27 hvcurveto
          27 26 278 11 vvcurveto
          13 -9 10 -29 vhcurveto
          -9 hlineto
          -30 -5 -10 -29 -10 hvcurveto
          18 -15 -30 25 -41 hhcurveto
          -98 -66 -110 -159 hvcurveto
          hintmask 10111111
          -129 55 -52 59 44 36 24 41 21 vhcurveto
          hintmask 11011111
          -40 11 32 -25 51 hhcurveto
          119 87 144 179 199 -114 128 -172 hvcurveto
          hintmask 10111111
          -14 -504 rmoveto
          -42 -18 -22 -18 -21 hhcurveto
          -29 -19 23 79 105 23 72 57 21 15 -11 -11 11 hvcurveto
          -9 -47 -7 -99 -2 -51 rrcurveto
          endchar
        </CharString>
        <CharString name="atilde">
          -19 callsubr
          80 75 -42 75 -72 callsubr
          hintmask 00000000
          hintmask 10101100
          138 81 callgsubr
          hintmask 10110100
          -97 callsubr
          hintmask 10101110
          -77 callgsubr
          34 -596 rmoveto
          -105 callsubr
          hintmask 11010110
          -69 callsubr
          hintmask 10101110
          -75 callsubr
          hintmask 11010100
          -84 callgsubr
          hintmask 10101110
          -13 callsubr
          endchar
        </CharString>
        <CharString name="b">
          -7 103 333 101 223 -20 hstem
          313.81 128.65 vstem
          256 -7 rmoveto
          92 73 100 169 18 hvcurveto
          173 18 -53 95 -103 hhcurveto
          -43 -30 -17 -20 -23 hvcurveto
          26 232 rlineto
          18 1 121 callsubr
          -22 hlineto
          -37 -56 callgsubr
          -74 -699 rlineto
          -18 -2 15 -10 35 hhcurveto
          10 hlineto
          25 16 4 17 7 hvcurveto
          13 46 rlineto
          -44 21 39 -28 46 hhcurveto
          -27 103 rmoveto
          -26 -20 19 28 -14 hvcurveto
          28 260 rlineto
          16 16 21 10 23 hhcurveto
          47 19 -45 -121 -13 hvcurveto
          -116 -11 -27 -51 -43 hhcurveto
          endchar
        </CharString>
        <CharString name="backslash">
          -222 125 callgsubr
          54 212.25 vstem
          203 -21 rmoveto
          29 hlineto
          20 13 8 13 1 hvcurveto
          1 4 -1 4 -1 18 -112 649 rcurveline
          18 -3 -12 9 -22 hhcurveto
          -27 hlineto
          -22 -11 -8 -13 -2 hvcurveto
          -4 0 -3 2 -16 vhcurveto
          110 -652 rlineto
          -19 2 14 -8 21 hhcurveto
          endchar
        </CharString>
        <CharString name="bar">
          -311 -139 908 hstem
          13 184 vstem
          159 769 rmoveto
          -13 hlineto
          -28 -13 -9 -51 callsubr
          -90 -854 rlineto
          -18 -1 11 -9 28 hhcurveto
          13 hlineto
          29 13 9 18 1 hvcurveto
          90 854 -62 callgsubr
          -11 9 -29 hhcurveto
          endchar
        </CharString>
        <CharString name="baraccent">
          -194 275 103 callgsubr
          275 -87 callsubr
          endchar
        </CharString>
        <CharString name="baraccentlong">
          6 275 87 hstem
          -73 664 vstem
          568 362 rmoveto
          -608 hlineto
          -31 98 callsubr
          609 hlineto
          29 98 callgsubr
          endchar
        </CharString>
        <CharString name="baraccentmedium">
          -94 275 87 hstem
          0 415 vstem
          392 362 rmoveto
          -360 hlineto
          -30 98 callsubr
          359 hlineto
          30 98 callgsubr
          endchar
        </CharString>
        <CharString name="braceleft">
          -262 -138 82 742 82 hstemhm
          51 101 -79.91 98.91 hintmask 00000000
          hintmask 11100000
          130 -138 rmoveto
          41 hlineto
          19 152 callgsubr
          -6 11 -18 hhcurveto
          -6 hlineto
          -21 -6 16 30 4 hvcurveto
          hintmask 11010000
          19 186 8 77 -29 45 -26 17 rlinecurve
          31 18 37 45 8 76 20 187 rcurveline
          30 3 9 15 23 hhcurveto
          5 hlineto
          17 152 callgsubr
          -7 11 -19 hhcurveto
          -41 hlineto
          -46 -49 -38 -78 -8 hvcurveto
          -19 -182 -6 -58 -12 -32 -32 -14 rlinecurve
          -20 -10 -11 -12 -2 -23 -1 -12 rcurveline
          -3 -23 9 -12 17 -10 28 -14 6 -32 -6 -58 rrcurveto
          hintmask 11100000
          -19 -182 rlineto
          -79 -8 41 -37 46 hhcurveto
          endchar
        </CharString>
        <CharString name="braceright">
          -262 -138 82 742 82 hstemhm
          91 98.77 -78.77 100 hintmask 11100000
          -4 -138 rmoveto
          41 hlineto
          46 49 37 79 8 hvcurveto
          20 182 5 58 12 32 33 14 rlinecurve
          19 10 11 12 2 23 1 12 rcurveline
          3 23 -9 12 -16 10 -30 14 -5 32 6 58 rrcurveto
          hintmask 11010000
          19 182 rlineto
          78 8 -41 38 -46 hhcurveto
          -41 hlineto
          -18 -9 34 callsubr
          -10 rlineto
          -25 -2 5 -11 17 hhcurveto
          5 hlineto
          24 5 -15 -30 -3 hvcurveto
          hintmask 11100000
          -20 -187 -8 -76 29 -45 28 -18 rlinecurve
          -31 -17 -39 -45 -8 -77 -20 -186 rcurveline
          -30 -3 -8 -16 -21 hhcurveto
          -6 hlineto
          -18 -8 -26 callsubr
          -2 -10 rlineto
          -25 -2 7 -11 18 hhcurveto
          endchar
        </CharString>
        <CharString name="bracketleft">
          -272 -138 83 740 83 hstem
          -1 251.49 vstem
          29 -138 rmoveto
          104 hlineto
          19 8 11 25 2 hvcurveto
          2 11 rlineto
          25 3 -6 11 -19 hhcurveto
          -40 hlineto
          78 740 rlineto
          40 hlineto
          18 8 10 26 3 hvcurveto
          1 11 rlineto
          25 3 -6 11 -19 hhcurveto
          -104 hlineto
          -24 -11 -11 -25 -2 hvcurveto
          -88 -834 rlineto
          -25 -3 9 -11 24 hhcurveto
          endchar
        </CharString>
        <CharString name="bracketright">
          -272 -138 83 740 83 hstem
          -1.37 251.37 vstem
          21 -138 rmoveto
          105 hlineto
          23 11 11 25 2 hvcurveto
          88 834 rlineto
          25 3 -9 11 -23 hhcurveto
          -105 hlineto
          -18 -9 -11 -25 -2 hvcurveto
          -2 -11 rlineto
          -26 -2 7 -10 17 hhcurveto
          41 hlineto
          -78 -740 rlineto
          -40 hlineto
          -18 -9 34 callsubr
          -11 rlineto
          -25 -3 7 -11 18 hhcurveto
          endchar
        </CharString>
        <CharString name="breve">
          -255 579 82 hstem
          45.84 251.16 vstem
          160 -78 callgsubr
          endchar
        </CharString>
        <CharString name="brokenbar">
          -311 -140 910 hstem
          14 184 vstem
          160 770 rmoveto
          -13 hlineto
          -29 -13 106 callgsubr
          -12 -110 -23 -209 -9 vvcurveto
          -17 11 -9 27 vhcurveto
          13 hlineto
          28 14 10 19 2 hvcurveto
          11 108 23 207 10 vvcurveto
          17 -8 11 -30 vhcurveto
          -55 -529 rmoveto
          -13 hlineto
          -29 -14 106 callgsubr
          -11 -108 -23 -205 -12 vvcurveto
          -18 8 -10 30 vhcurveto
          13 hlineto
          28 13 -60 callsubr
          11 109 23 204 12 vvcurveto
          18 -8 10 -29 vhcurveto
          endchar
        </CharString>
        <CharString name="bullet">
          -213 197 259 hstem
          36.25 239.48 vstem
          142 197 rmoveto
          65 58 41 88 10 hvcurveto
          88 9 -49 42 -65 hhcurveto
          -66 -58 -42 -88 -9 hvcurveto
          -88 -9 49 -41 65 hhcurveto
          endchar
        </CharString>
        <CharString name="c">
          137 callgsubr
          82 callsubr
          222 -7 -81 callgsubr
        </CharString>
        <CharString name="cacute">
          137 callgsubr
          49 154 82 callsubr
          235 579 rmoveto
          -106 callsubr
          -13 -586 -81 callgsubr
        </CharString>
        <CharString name="cacute.loclPLK">
          137 callgsubr
          49 154 82 callsubr
          245 579 -75 callgsubr
          -23 -586 -81 callgsubr
        </CharString>
        <CharString name="caron">
          -255 576 145 hstem
          54 237 vstem
          154 576 -103 callgsubr
          endchar
        </CharString>
        <CharString name="caron.alt">
          -255 700 -20 hstem
          77 108 vstem
          109 516 rmoveto
          -9 callsubr
          -15 24 -5 16 vhcurveto
          endchar
        </CharString>
        <CharString name="ccaron">
          137 callgsubr
          46 145 82 callsubr
          260 576 -103 callgsubr
          -38 -583 -81 callgsubr
        </CharString>
        <CharString name="ccedilla">
          -103 -211 64 141 99 337 100 hstem
          34.8 130.06 50.14 84 vstem
          279 530 rmoveto
          -137 -84 -80 -189 -20 hvcurveto
          -17 -170 51 -83 116 -13 rrcurveto
          -18 -51 -5 -15 -8 -66 callgsubr
          14 46 53 6 70 25 3 30 rlinecurve
          19 2 -16 48 -19 hhcurveto
          -3 -6 -4 -3 -8 hvcurveto
          -8 -17 -25 -14 -36 hhcurveto
          -64 -24 48 122 13 hvcurveto
          122 13 37 45 62 hhcurveto
          32 23 -14 -8 13 hvcurveto
          -4 7 4 -2 5 hhcurveto
          16 29 48 20 2 hvcurveto
          32 3 -67 28 -68 hhcurveto
          endchar
        </CharString>
        <CharString name="ccircumflex">
          137 callgsubr
          43 145 82 callsubr
          165 573 -107 callgsubr
          57 -580 -81 callgsubr
        </CharString>
        <CharString name="cdotaccent">
          137 callgsubr
          59 113 62 callgsubr
          47.14 120 vstem
          266 -79 callsubr
          -44 -596 -81 callgsubr
        </CharString>
        <CharString name="cedilla">
          -255 -211 64 95 58 hstem
          140 84 vstem
          156 -52 rmoveto
          17 58 rlineto
          -56 hlineto
          -21 -60 -6 -16 -9 -66 callgsubr
          endchar
        </CharString>
        <CharString name="cent">
          -71 528 -20 21 -20 hstemhm
          34.84 129.61 20.55 53.5 10.5 52 hintmask 01101000
          297 529 rmoveto
          hintmask 10101000
          4 37 rlineto
          14 -4 6 -14 vhcurveto
          -11 hlineto
          -14 -6 -6 -14 -1 hvcurveto
          -4 -38 -118 -12 -73 -81 -18 -174 rlinecurve
          -17 -171 52 -83 117 -12 rrcurveto
          hintmask 01111000
          -5 -49 rlineto
          -14 3 -6 15 vhcurveto
          11 hlineto
          13 7 7 13 2 hvcurveto
          5 48 54 5 73 26 3 30 rlinecurve
          19 2 -16 48 -19 hhcurveto
          -3 -6 -4 -3 -8 hvcurveto
          -16 -7 -22 -13 -32 -2 36 337 rcurveline
          28 -2 21 -13 12 -7 rrcurveto
          -4 7 4 -2 5 hhcurveto
          16 29 48 20 2 hvcurveto
          hintmask 01101000
          3 29 -56 26 -61 4 rrcurveto
          -129 -266 rmoveto
          10 89 22 48 35 20 -33 -317 rcurveline
          -33 19 -11 50 10 91 rrcurveto
          endchar
        </CharString>
        <CharString name="circumflex">
          -255 573 145 hstem
          41 238 vstem
          60 573 -107 callgsubr
          endchar
        </CharString>
        <CharString name="colon">
          -323 -2 139 249 139 hstemhm
          9 129 -88.5 129 hintmask 00000000
          hintmask 11010000
          93 386 rmoveto
          27 136 callgsubr
          -14 10 -36 hhcurveto
          -27 109 callsubr
          hintmask 11100000
          -41 -388 40 callgsubr
        </CharString>
        <CharString name="comma">
          -323 -122 259 hstem
          -41 174.35 vstem
          -5 -122 23 callgsubr
        </CharString>
        <CharString name="commaaccentinvert">
          -158 579 187 hstem
          103 108 vstem
          190 766 rmoveto
          -29 -58 -71 -78 -22 12 -16 29 hvcurveto
          56 callgsubr
          vhcurveto
          endchar
        </CharString>
        <CharString name="copyright">
          81 -7 58 96 62 283 64 95 58 hstem
          20 60 90 74 288 4 callgsubr
          9 96 rmoveto
          33 67 18 27 8 -12 35 -16 hvcurveto
          -6 -23 -26 -43 hhcurveto
          -48 -23 47 96 95 23 45 49 hvcurveto
          43 16 -21 6 hhcurveto
          12 18 33 13 21 -54 18 -40 -98 -49 -68 -136 -141 47 -64 98 hvcurveto
          endchar
        </CharString>
        <CharString name="currency">
          -49 102 95 208 95 hstem
          63 95 147 96 vstem
          78 98 rmoveto
          8 8 3 8 8 hvcurveto
          24 22 rlineto
          -18 24 29 -11 32 hhcurveto
          33 32 11 19 28 hvcurveto
          19 -23 rlineto
          7 -8 8 -3 7 9 7 4 7 hflex1
          22 19 8 7 5 9 1 7 rlinecurve
          1 8 -3 8 -7 8 -26 29 rcurveline
          16 29 12 33 4 35 4 36 -5 33 -12 30 36 32 rcurveline
          9 8 4 8 1 8 1 8 -3 7 -7 7 -18 20 rcurveline
          -6 7 -7 4 -8 -7 -9 -4 -9 hflex1
          -28 -27 rlineto
          18 -23 -29 11 -32 hhcurveto
          -32 -30 -11 -17 -26 hvcurveto
          -24 25 rlineto
          8 -6 -8 4 -8 hhcurveto
          -7 -9 -3 -7 -7 hvcurveto
          -23 -21 -7 -7 -4 -8 -1 -7 rlinecurve
          -1 -8 3 -8 7 -8 28 -30 rcurveline
          -19 -30 -12 -35 -4 -36 -4 -36 6 -33 11 -29 -31 -28 rcurveline
          -9 -8 -5 -8 -1 -8 rrcurveto
          -8 2 -8 7 -6 vhcurveto
          17 -20 rlineto
          -8 7 8 -3 7 hhcurveto
          143 99 rmoveto
          -41 -29 35 69 7 hvcurveto
          69 7 37 35 41 hhcurveto
          41 29 -35 -69 -8 hvcurveto
          -69 -7 -36 -35 -41 hhcurveto
          endchar
        </CharString>
        <CharString name="d">
          -30 -7 103 333 101 223 -20 hstem
          13 callsubr
          123 vstem
          -77 callsubr
          51 103 7 callgsubr
        </CharString>
        <CharString name="dagger">
          -83 414 98 190 -20 hstem
          56.05 357.46 123 callsubr
          56 526 7 callsubr
          -56 -526 rlineto
          -18 -2 11 -10 28 hhcurveto
          endchar
        </CharString>
        <CharString name="daggerdbl">
          -83 49 97 268 98 190 -20 hstem
          17.62 395.89 123 callsubr
          17 161 rlineto
          103 hlineto
          19 8 12 30 3 hvcurveto
          1 12 rlineto
          30 4 147 callgsubr
          -103 hlineto
          29 268 7 callsubr
          -29 -268 rlineto
          -105 hlineto
          -17 -9 -13 -30 -4 hvcurveto
          -1 -12 125 callsubr
          -12 17 hhcurveto
          105 hlineto
          -17 -161 rlineto
          -18 -2 11 -10 28 hhcurveto
          endchar
        </CharString>
        <CharString name="dcaron">
          -30 -7 103 333 101 170 -20 73 -20 hstem
          13 callsubr
          123 88 108 vstem
          -77 callsubr
          365 523 rmoveto
          -9 callsubr
          -15 24 -5 16 vhcurveto
          -314 -420 7 callgsubr
        </CharString>
        <CharString name="dcroat">
          -30 -7 103 333 101 58 86 79 -20 hstemhm
          13 callsubr
          170 -112.5 123.5 hintmask 11111010
          493 674 rmoveto
          -29 hlineto
          1 18 2 17 2 16 rrcurveto
          18 1 -15 10 -36 hhcurveto
          -22 -6 callgsubr
          -5 -51 rlineto
          -39 hlineto
          -17 -9 34 callsubr
          -13 rlineto
          -26 -2 6 -11 17 hhcurveto
          39 hlineto
          -10 -95 rlineto
          21 -20 -26 16 -41 hhcurveto
          -103 -74 -95 -171 -17 hvcurveto
          -171 -19 53 -100 89 hhcurveto
          hintmask 11111100
          51 44 31 47 27 hvcurveto
          -59 8 36 -19 42 hhcurveto
          65 callsubr
          17 callsubr
          7 27 1 hvcurveto
          6 69 22 208 20 182 rrcurveto
          hintmask 11111010
          30 hlineto
          19 8 11 26 2 49 callsubr
          2 -5 11 -19 hhcurveto
          -211 -527 rmoveto
          -30 -20 -24 -21 -26 hhcurveto
          -43 -16 54 112 12 hvcurveto
          117 12 29 50 49 hhcurveto
          23 18 -10 -15 13 hvcurveto
          endchar
        </CharString>
        <CharString name="degree">
          -235 442 56 153 56 hstem
          65 58 94 60 vstem
          157 442 rmoveto
          59 51 44 88 10 hvcurveto
          89 9 -42 44 -59 hhcurveto
          -59 -52 -44 -89 -9 hvcurveto
          -88 -10 43 -44 59 hhcurveto
          5 56 rmoveto
          -27 -18 25 51 6 hvcurveto
          51 5 23 26 27 hhcurveto
          27 18 -26 -51 -6 hvcurveto
          -51 -5 -23 -25 -27 hhcurveto
          endchar
        </CharString>
        <CharString name="dieresis">
          -255 589 113 hstem
          44.5 147 callsubr
          89 589 -102 callsubr
          endchar
        </CharString>
        <CharString name="divide">
          -63 -2 120 63 93 62 121 hstemhm
          146.5 111 -75.5 110.5 hintmask 00000000
          hintmask 01101000
          226 336 rmoveto
          10 hlineto
          36 15 10 19 2 hvcurveto
          7 63 rlineto
          19 2 121 callsubr
          -9 hlineto
          -36 -16 79 callsubr
          -6 -63 rlineto
          -19 -2 13 -10 36 hhcurveto
          -190 -155 rmoveto
          360 hlineto
          18 7 14 29 4 hvcurveto
          1 7 rlineto
          29 2 -4 14 -18 hhcurveto
          -360 hlineto
          -18 -8 -14 -29 -3 hvcurveto
          -1 -7 rlineto
          -29 -3 6 -14 17 hhcurveto
          hintmask 11010000
          154 -183 rmoveto
          10 6 callgsubr
          7 64 rlineto
          19 1 -14 9 -36 hhcurveto
          -9 hlineto
          -36 -16 -9 -19 -1 hvcurveto
          -7 -64 -15 callsubr
          35 hhcurveto
          endchar
        </CharString>
        <CharString name="dollar">
          -71 -7 112 602 -20 21 -20 hstemhm
          50 119 -8 52.5 29 52.5 -9 119 hintmask 10101010
          178 -72 rmoveto
          11 hlineto
          13 8 6 14 1 hvcurveto
          5 48 rlineto
          118 14 71 79 119 vvcurveto
          99 -47 47 -98 51 vhcurveto
          20 192 23 -1 23 -5 27 -11 rlinecurve
          -2 7 10 -4 7 hhcurveto
          22 17 56 24 10 -6 10 -11 6 hvcurveto
          hintmask 10101100
          -26 16 -42 9 -39 3 rrcurveto
          hintmask 11010100
          1 11 2 18 4 vvcurveto
          14 -4 6 -13 vhcurveto
          -12 hlineto
          -15 -5 -6 -14 -2 hvcurveto
          -3 -34 rlineto
          -110 -10 -81 -77 -113 vvcurveto
          -120 79 -43 69 -37 vhcurveto
          -21 -202 rlineto
          -46 -32 12 22 -36 hvcurveto
          4 -6 -5 3 -6 hhcurveto
          -23 -18 -53 -29 1 hvcurveto
          -22 23 -14 21 -9 vhcurveto
          hintmask 10101010
          33 -18 38 -7 44 -1 rrcurveto
          -2 -18 -2 -23 -4 vvcurveto
          -14 3 -6 14 vhcurveto
          hintmask 10110010
          33 504 rmoveto
          -27 19 -15 23 31 vvcurveto
          39 18 33 41 14 vhcurveto
          1 -478 rmoveto
          17 166 rlineto
          24 -18 16 -23 -33 vvcurveto
          -52 -24 -28 -33 -12 vhcurveto
          endchar
        </CharString>
        <CharString name="dotaccent">
          -255 589 113 hstemhm
          110 120 callgsubr
          hintmask 11000000
          164 -79 callsubr
          endchar
        </CharString>
        <CharString name="dotbelowcomb">
          -511 39 callsubr
          hstemhm
          -101 120 callgsubr
          hintmask 11000000
          -47 -193 -107 callsubr
          endchar
        </CharString>
        <CharString name="dotlessi">
          -257 -6 102 429 -20 hstem
          46 122 vstem
          130 -6 -101 callsubr
          endchar
        </CharString>
        <CharString name="e">
          -8 callgsubr
          hstem
          19 callgsubr
          vstem
          376 139 -97 callgsubr
          endchar
        </CharString>
        <CharString name="eacute">
          80 callsubr
          249 579 rmoveto
          -106 callsubr
          127 -440 -97 callgsubr
          endchar
        </CharString>
        <CharString name="ebreve">
          -8 callgsubr
          49 82 hstem
          19 callgsubr
          vstem
          279 -78 callgsubr
          97 -440 -97 callgsubr
          endchar
        </CharString>
        <CharString name="ecaron">
          -8 callgsubr
          46 145 hstem
          19 callgsubr
          vstem
          226 596 rmoveto
          -16 8 16 -4 24 hhcurveto
          9 hlineto
          24 16 4 16 12 hvcurveto
          68 96 rlineto
          4 6 4 7 4 vvcurveto
          7 1 -6 5 -13 hhcurveto
          -25 hlineto
          -21 -15 -5 -12 -8 hvcurveto
          -38 -56 -27 55 rlineto
          13 -7 -13 5 -19 hhcurveto
          -25 hlineto
          -13 -7 -5 -7 -1 hvcurveto
          -4 2 -7 3 -6 vhcurveto
          197 -553 -97 callgsubr
          endchar
        </CharString>
        <CharString name="ecircumflex">
          -8 callgsubr
          43 145 hstem
          19 callgsubr
          vstem
          179 573 -107 callgsubr
          197 -434 -97 callgsubr
          endchar
        </CharString>
        <CharString name="edieresis">
          -8 callgsubr
          59 113 hstemhm
          38 127 -3.5 101 48 101 -92.5 117 hintmask 00000000
          hintmask 11110110
          206 589 -102 callsubr
          21 -450 rmoveto
          hintmask 11111010
          -63 callsubr
          hintmask 11111001
          114 86 67 116 51 -28 89 -129 -166 -75 -146 -179 hvcurveto
          -148 -1 77 -64 120 hhcurveto
          42 79 15 37 24 hvcurveto
          9 callgsubr
          hintmask 11110110
          35 callgsubr
          hintmask 11111001
          26 callsubr
        </CharString>
        <CharString name="edotaccent">
          -8 callgsubr
          59 113 hstemhm
          38 127 61 120 -27 117 hintmask 00000000
          hintmask 11111100
          280 -79 callsubr
          96 -450 -14 callgsubr
        </CharString>
        <CharString name="egrave">
          80 callsubr
          299 579 -99 callsubr
          77 -440 -97 callgsubr
          endchar
        </CharString>
        <CharString name="eight">
          -52 -7 100 514 100 hstemhm
          22 127 -75 124 96 128 -101 122 hintmask 11100100
          202 -7 rmoveto
          hintmask 11101000
          133 75 92 110 12 hvcurveto
          11 102 -42 48 -50 33 rrcurveto
          hintmask 11010100
          47 25 46 44 9 87 rrcurveto
          107 11 -66 66 -108 hhcurveto
          -115 -80 -70 -110 -11 hvcurveto
          -9 -79 30 -43 40 -32 rrcurveto
          hintmask 11100100
          -53 -28 -49 -52 -11 -97 rrcurveto
          -119 -12 61 -84 131 hhcurveto
          hintmask 11010100
          58 436 rmoveto
          -38 23 -29 26 5 54 rrcurveto
          51 6 31 24 33 hhcurveto
          34 24 -25 -52 -5 hvcurveto
          -5 -45 -22 -32 -34 -24 rrcurveto
          hintmask 11101000
          -49 -336 rmoveto
          -41 -29 33 75 8 hvcurveto
          6 59 23 33 35 25 47 -27 42 -28 -8 -71 rrcurveto
          -55 -5 -33 -44 -45 hhcurveto
          endchar
        </CharString>
        <CharString name="ellipsis">
          41 -2 139 hstemhm
          10.5 150 callsubr
          150 callsubr
          125 hintmask 00000000
          hintmask 11110000
          54 -2 rmoveto
          23 50 callsubr
          36 hhcurveto
          183 hmoveto
          24 50 callsubr
          35 hhcurveto
          184 hmoveto
          25 hlineto
          35 130 callgsubr
          9 83 29 callgsubr
          -35 hhcurveto
          -24 96 callsubr
        </CharString>
        <CharString name="emacron">
          -8 callgsubr
          72 86 hstem
          19 callgsubr
          vstem
          184 602 -87 callsubr
          192 -463 -97 callgsubr
          endchar
        </CharString>
        <CharString name="emdash">
          375 219 93 hstem
          -0.38 887.75 vstem
          21 219 rmoveto
          835 hlineto
          18 9 12 30 3 hvcurveto
          1 8 115 callsubr
          -835 92 callgsubr
          -1 -8 125 callsubr
          -12 17 hhcurveto
          endchar
        </CharString>
        <CharString name="endash">
          -68 219 93 hstem
          -0.38 444.75 vstem
          21 219 rmoveto
          392 hlineto
          18 9 12 30 3 hvcurveto
          1 8 115 callsubr
          -392 92 callgsubr
          -1 -8 125 callsubr
          -12 17 hhcurveto
          endchar
        </CharString>
        <CharString name="eng">
          -212 101 537 104 hstem
          69 126 108 130 vstem
          244 -212 rmoveto
          64 66 41 110 11 hvcurveto
          48 446 rlineto
          93 10 -36 52 -76 hhcurveto
          -57 -48 -34 -41 -31 hvcurveto
          34 -3 5 33 -31 hhcurveto
          -17 -78 -6 -25 -2 hvcurveto
          -1 -11 6 -30 -9 -92 -36 -332 rcurveline
          -18 -1 14 -10 35 hhcurveto
          26 hlineto
          34 17 9 19 2 hvcurveto
          105 callsubr
          25 16 25 21 28 hhcurveto
          35 10 -23 -42 -4 hvcurveto
          -42 -420 rlineto
          -39 -4 -12 -13 -19 -15 -10 4 -7 hhcurveto
          -18 -14 -44 -18 -1 hvcurveto
          -34 -4 38 -9 49 hhcurveto
          endchar
        </CharString>
        <CharString name="eogonek">
          -57 -153 67 79 -6 callsubr
          hstemhm
          38 127 117 65 -28 117 hintmask 00000000
          hintmask 11111100
          426 -81 70 callgsubr
          20 5 27 13 26 hvcurveto
          6 4 4 6 4 5 rrcurveto
          9 callgsubr
          35 callgsubr
          -63 callsubr
          hintmask 11111010
          114 86 67 116 51 -28 89 -129 -166 -75 -146 -179 hvcurveto
          -148 -1 77 -64 120 hhcurveto
          hintmask 11111100
          16 22 2 5 21 hvcurveto
          -8 -24 -3 -22 -15 -58 callgsubr
          hintmask 11111010
          -155 511 -11 callgsubr
        </CharString>
        <CharString name="equal">
          -62 111 callsubr
          58 268 rmoveto
          336 110 callgsubr
          -337 108 callsubr
          -19 -174 rmoveto
          337 111 callgsubr
          -337 107 callsubr
          endchar
        </CharString>
        <CharString name="estimated">
          104 -7 55 307 50 252 50 hstem
          22 151 273 147 vstem
          312 707 rmoveto
          -159 -131 -125 -227 -232 135 -130 163 81 77 39 65 55 hvcurveto
          6 8 4 6 8 vvcurveto
          11 -14 16 -15 -8 -6 -6 -9 -8 vhcurveto
          -52 -38 -73 -31 -61 hhcurveto
          -56 -50 17 34 -41 hvcurveto
          256 420 vlineto
          227 -127 125 -154 vhcurveto
          -139 -99 rmoveto
          32 39 48 17 52 hhcurveto
          49 47 -17 -33 38 hvcurveto
          -202 -273 vlineto
          endchar
        </CharString>
        <CharString name="eth">
          -34 -7 100 332 101 -3 -20 83 57 -29.5 56.5 hstemhm
          36.17 125.76 153.13 126.17 hintmask 11001110
          419 670 rmoveto
          -3 -35 -5 -4 -34 hvcurveto
          hintmask 10110110
          -12 18 -10 14 -11 10 rrcurveto
          7 -9 -9 5 -14 hhcurveto
          -51 -6 -12 -2 -6 -4 -1 -6 rlinecurve
          -1 -9 18 -22 11 -19 -53 -8 rcurveline
          -14 -2 -6 -4 -1 -9 rrcurveto
          -18 -2 15 -20 17 hhcurveto
          3 3 0 10 65 hvcurveto
          11 -24 10 -24 8 -25 rrcurveto
          hintmask 11001110
          2 -11 -11 1 -12 hhcurveto
          -130 -75 -94 -171 -18 hvcurveto
          -173 -18 67 -95 123 hhcurveto
          140 69 95 173 18 hvcurveto
          14 133 -30 124 -47 92 53 7 rcurveline
          12 2 7 5 1 8 rrcurveto
          15 2 -13 23 -18 hhcurveto
          -108 -408 rmoveto
          -33 callsubr
          -51 -17 48 121 13 hvcurveto
          117 13 26 46 51 hhcurveto
          51 17 -46 -117 -13 hvcurveto
          endchar
        </CharString>
        <CharString name="exclam">
          -265 -2 139 565 -20 hstemhm
          22.96 224.04 -219.5 129 hintmask 11100000
          104 215 rmoveto
          8 hlineto
          36 7 10 18 4 hvcurveto
          88 433 rlineto
          17 1 -17 9 -32 hhcurveto
          -38 hlineto
          -26 callgsubr
          -45 -431 rlineto
          -18 -2 8 -10 35 hhcurveto
          hintmask 11010000
          -34 -217 rmoveto
          28 136 callgsubr
          -14 10 -36 hhcurveto
          -27 96 callsubr
        </CharString>
        <CharString name="exclamdown">
          -265 386 139 hstemhm
          94 129 hintmask 00000000
          hintmask 11000000
          137 386 rmoveto
          28 6 callgsubr
          8 83 rlineto
          18 3 121 callsubr
          -28 hlineto
          -35 131 callsubr
          -8 -83 rlineto
          -18 -2 13 -10 36 hhcurveto
          -86 -566 rmoveto
          37 hlineto
          36 16 10 19 2 hvcurveto
          45 430 rlineto
          19 2 -7 10 -36 hhcurveto
          -9 hlineto
          -35 -6 -10 -19 -4 hvcurveto
          -31 -144 -56 -266 -2 -23 rrcurveto
          -16 -2 18 -10 32 hhcurveto
          endchar
        </CharString>
        <CharString name="f">
          -225 138 callsubr
          hstemhm
          48 291 -234.5 125 hintmask 11100000
          98 -2 rmoveto
          19 hlineto
          hintmask 11010000
          149 callgsubr
          45 142 callsubr
          1 15 91 callsubr
          -45 hlineto
          -67 callgsubr
          hintmask 11100000
          112 callsubr
        </CharString>
        <CharString name="f_f">
          61 138 callsubr
          hstemhm
          48 577 -520.5 125 161 125 hintmask 11100000
          542 759 rmoveto
          hintmask 11011000
          -73 -62 -39 -111 -12 hvcurveto
          -9 -86 rlineto
          -161 hlineto
          -67 callgsubr
          42 callgsubr
          19 hlineto
          149 callgsubr
          161 hlineto
          -42 -396 rlineto
          42 callgsubr
          19 hlineto
          149 callgsubr
          45 142 callsubr
          1 15 91 callsubr
          -45 hlineto
          9 85 32 callgsubr
          7 hhcurveto
          19 15 54 8 1 hvcurveto
          hintmask 11100000
          34 3 -56 10 -30 hhcurveto
          endchar
        </CharString>
        <CharString name="f_t">
          73 -7 100 329 101 135 101 hstemhm
          104.5 125 112.5 31 callsubr
          hintmask 00000000
          hintmask 11110100
          526 422 rmoveto
          -54 callsubr
          -20 hlineto
          -1 hlineto
          -137 hlineto
          -67 callgsubr
          42 callgsubr
          19 hlineto
          149 callgsubr
          hintmask 11111000
          158 hlineto
          -18 -169 -13 -119 -24 73 callsubr
          27 10 90 20 181 hvcurveto
          endchar
        </CharString>
        <CharString name="fi">
          29 -6 102 326 101 66 113 -44 101 hstemhm
          104.5 125 102.5 122 -69 120 hintmask 11101100
          489 99 rmoveto
          35 callsubr
          -12 -6 8 26 2 hvcurveto
          4 65 14 113 20 189 rrcurveto
          16 -15 10 -35 vhcurveto
          -217 hlineto
          hintmask 11011100
          -67 callgsubr
          42 callgsubr
          19 hlineto
          149 callgsubr
          144 hlineto
          -27 -257 -2 -18 -2 -27 -1 -16 rlinecurve
          -87 -3 43 -23 49 hhcurveto
          65 callsubr
          hintmask 11101100
          69 callgsubr
          hhcurveto
          hintmask 11101010
          -39 603 -65 callsubr
        </CharString>
        <CharString name="five">
          -52 -7 100 240 100 166 101 hstem
          289 129.06 vstem
          169 -7 rmoveto
          106 123 52 169 18 hvcurveto
          170 18 -95 49 -121 hhcurveto
          -26 hlineto
          29 166 rlineto
          183 hlineto
          19 8 11 26 3 hvcurveto
          2 21 91 callsubr
          -260 hlineto
          -26 -11 -11 -25 -5 hvcurveto
          -49 -295 rlineto
          -25 -3 6 -11 26 hhcurveto
          88 hlineto
          84 33 -43 -78 -8 hvcurveto
          -77 -8 -48 -42 -58 -69 -37 36 -11 hhcurveto
          -19 -34 -50 -19 -2 hvcurveto
          -34 -3 68 -33 101 hhcurveto
          endchar
        </CharString>
        <CharString name="fl">
          45 -7 100 329 101 135 101 -6 -20 hstemhm
          48 476.9 -420.4 125 105.5 125 hintmask 11011000
          98 -2 rmoveto
          19 hlineto
          hintmask 11100100
          149 callgsubr
          45 142 callsubr
          1 15 91 callsubr
          -45 hlineto
          -67 callgsubr
          hintmask 11011000
          42 callgsubr
          hintmask 11010010
          342 -5 -69 callgsubr
          endchar
        </CharString>
        <CharString name="florin">
          -182 138 callsubr
          hstem
          -3 355 vstem
          267 759 rmoveto
          -79 -69 -44 -108 -13 hvcurveto
          -11 -84 rlineto
          -28 hlineto
          -28 -7 -37 -35 -19 6 -10 15 hvcurveto
          27 hlineto
          -83 -601 rlineto
          -16 14 -12 36 vhcurveto
          19 hlineto
          34 19 10 19 3 hvcurveto
          83 600 rlineto
          43 hlineto
          38 19 56 25 14 -3 6 -13 hvcurveto
          -70 hlineto
          12 82 rlineto
          40 5 17 13 27 24 7 -6 6 hhcurveto
          17 18 56 12 33 -49 6 -36 hvcurveto
          endchar
        </CharString>
        <CharString name="four">
          -52 151 101 450 -20 hstem
          241 124 vstem
          280 -2 rmoveto
          26 hlineto
          35 15 36 callsubr
          12 125 rlineto
          38 hlineto
          18 10 13 30 3 hvcurveto
          1 15 rlineto
          30 4 147 callgsubr
          -37 hlineto
          44 422 rlineto
          18 1 -13 10 -35 hhcurveto
          -40 hlineto
          -23 -20 -2 -18 -11 hvcurveto
          -281 -442 -1 -3 -1 -3 -1 -5 rlinecurve
          -24 -3 12 -54 15 hhcurveto
          221 hlineto
          -12 -125 rlineto
          -18 -3 14 -10 34 hhcurveto
          -154 254 rmoveto
          165 267 3 -1 -10 -46 -8 -38 -4 -48 rlinecurve
          -14 -134 rlineto
          endchar
        </CharString>
        <CharString name="fraction">
          -247 700 -20 hstem
          -122 516 vstem
          376 700 rmoveto
          -20 hlineto
          -18 -13 -8 -15 -10 hvcurveto
          -431 -654 rlineto
          -5 -6 -1 -5 -4 vvcurveto
          -6 6 -3 11 vhcurveto
          20 hlineto
          18 12 7 17 11 hvcurveto
          432 654 rlineto
          4 130 callsubr
          5 -6 4 -12 vhcurveto
          endchar
        </CharString>
        <CharString name="g">
          31 callgsubr
          43 callsubr
          hintmask 11011000
          397 525 rmoveto
          -10 hlineto
          -42 -5 -15 -32 -11 hvcurveto
          hintmask 11101000
          21 -17 -33 31 -50 hhcurveto
          -99 -75 -92 -171 -18 hvcurveto
          -126 -14 22 -138 120 hhcurveto
          43 38 22 40 27 hvcurveto
          -3 -23 rlineto
          -107 -10 -36 -46 -65 -66 -34 37 -13 hhcurveto
          -19 -4 -53 -23 6 hvcurveto
          -32 7 62 -30 84 hhcurveto
          129 66 87 207 22 hvcurveto
          hintmask 11011000
          44 419 rlineto
          15 -14 9 -32 vhcurveto
          -96 -185 rmoveto
          -17 -162 rlineto
          -51 -20 -27 -21 -25 hhcurveto
          -55 -3 75 86 9 hvcurveto
          hintmask 11101000
          113 12 28 49 54 hhcurveto
          25 17 -14 -13 12 hvcurveto
          hintmask 11011000
          -3 -14 -4 -22 -3 -26 rrcurveto
          endchar
        </CharString>
        <CharString name="g.ss01">
          62 callsubr
          89 callgsubr
          hintmask 11010010
          185 -212 rmoveto
          hintmask 11001100
          -19 callgsubr
          hintmask 11010010
          -47 callsubr
          hintmask 10101010
          -34 callgsubr
          hintmask 11010010
          45 callsubr
          hintmask 10101010
          -23 callsubr
          hintmask 11010100
          -28 callgsubr
        </CharString>
        <CharString name="gbreve">
          31 callgsubr
          74 82 43 callsubr
          hintmask 11011100
          264 -78 callgsubr
          133 -54 -70 callgsubr
        </CharString>
        <CharString name="gbreve.ss01">
          62 callsubr
          49 82 89 callgsubr
          hintmask 11011001
          274 -78 callgsubr
          -89 -791 -60 callgsubr
        </CharString>
        <CharString name="gcircumflex">
          31 callgsubr
          68 145 43 callsubr
          hintmask 11011100
          164 573 -107 callgsubr
          233 -48 -70 callgsubr
        </CharString>
        <CharString name="gcircumflex.ss01">
          62 callsubr
          43 145 89 callgsubr
          hintmask 11011001
          174 573 -107 callgsubr
          11 -785 -60 callgsubr
        </CharString>
        <CharString name="gcommaaccent">
          31 callgsubr
          43 callsubr
          55.87999 108 hintmask 11011100
          256 579 rmoveto
          56 callgsubr
          -29 -58 -71 -78 -22 12 -16 29 vhcurveto
          141 -54 -70 callgsubr
        </CharString>
        <CharString name="gcommaaccent.ss01">
          62 callsubr
          hstemhm
          12 110 -49 106 46 108 -35 107 -89 106 hintmask 11010100
          312 766 rmoveto
          -29 -58 -71 -78 -22 12 -16 29 hvcurveto
          56 callgsubr
          vhcurveto
          -127 -978 rmoveto
          hintmask 11001010
          -19 callgsubr
          hintmask 11010001
          -47 callsubr
          hintmask 10101001
          -34 callgsubr
          hintmask 11010100
          45 callsubr
          hintmask 10101001
          -23 callsubr
          hintmask 11010010
          -28 callgsubr
        </CharString>
        <CharString name="gdotaccent">
          31 callgsubr
          84 113 43 callsubr
          51.87999 120 hintmask 11011110
          265 -79 callsubr
          132 -64 rmoveto
          -10 hlineto
          -42 -5 -15 -32 -11 hvcurveto
          hintmask 11101110
          21 -17 -33 31 -50 hhcurveto
          -99 -75 -92 -171 -18 hvcurveto
          -126 -14 22 -138 120 hhcurveto
          43 38 22 40 27 hvcurveto
          -3 -23 rlineto
          -107 -10 -36 -46 -65 -66 -34 37 -13 hhcurveto
          -19 -4 -53 -23 6 hvcurveto
          -32 7 62 -30 84 hhcurveto
          129 66 87 207 22 hvcurveto
          hintmask 11011110
          44 419 rlineto
          15 -14 9 -32 vhcurveto
          -96 -185 rmoveto
          -17 -162 rlineto
          -51 -20 -27 -21 -25 hhcurveto
          -55 -3 75 86 9 hvcurveto
          hintmask 11101110
          113 12 28 49 54 hhcurveto
          25 17 -14 -13 12 hvcurveto
          hintmask 11011110
          -3 -14 -4 -22 -3 -26 rrcurveto
          endchar
        </CharString>
        <CharString name="gdotaccent.ss01">
          62 callsubr
          59 113 hstemhm
          12 110 -49 106 42 120 -43 107 -89 106 hintmask 0000000000000000
          hintmask 1101101000000000
          275 -79 callsubr
          -90 -801 rmoveto
          hintmask 1101010100000000
          -19 callgsubr
          hintmask 1101100010000000
          -47 callsubr
          hintmask 1011010010000000
          -34 callgsubr
          hintmask 1101100010000000
          -51 -25 -33 -40 -6 -56 rrcurveto
          hintmask 1101101000000000
          -90 -9 80 -40 102 hhcurveto
          hintmask 1011010010000000
          -23 callsubr
          hintmask 1101100100000000
          -28 callgsubr
        </CharString>
        <CharString name="germandbls">
          -31 0 101 214 100 187 105 hstemhm
          320 127.01 -114.01 130 hintmask 11110000
          83 -2 rmoveto
          22 -7 callsubr
          3 hvcurveto
          52 498 rlineto
          hintmask 11101000
          48 5 26 30 40 hhcurveto
          38 18 -27 -62 -6 hvcurveto
          -62 -7 -28 -36 -33 hhcurveto
          -5 hlineto
          hintmask 11110000
          -15 -9 -14 -29 -4 hvcurveto
          -2 -15 rlineto
          -30 -2 6 -12 18 hhcurveto
          8 hlineto
          43 25 -35 -75 -8 hvcurveto
          -73 -8 -30 -31 -39 hhcurveto
          -13 hlineto
          -18 -10 -13 -30 -2 hvcurveto
          -2 -15 rlineto
          -30 -4 8 -13 18 hhcurveto
          19 hlineto
          112 80 71 134 14 hvcurveto
          10 91 -27 54 -61 26 rrcurveto
          4 vlineto
          hintmask 11101000
          53 25 35 55 8 70 rrcurveto
          125 13 -78 52 -102 hhcurveto
          -121 -77 -77 -118 -13 hvcurveto
          -50 -486 rlineto
          hintmask 11110000
          -18 -3 14 -10 37 hhcurveto
          endchar
        </CharString>
        <CharString name="grave">
          -255 121 callgsubr
          40 174 vstem
          188 579 -99 callsubr
          endchar
        </CharString>
        <CharString name="gravecomb">
          -511 121 callgsubr
          -128 174 vstem
          20 579 -99 callsubr
          endchar
        </CharString>
        <CharString name="greater">
          -63 9.85 456.05 hstem
          6.59 403.42 vstem
          7 45 rmoveto
          -2 -28 2 -16 28 14 347 174 rcurveline
          18 10 8 10 1 20 1 19 rcurveline
          1 19 -2 11 -16 9 -311 174 rcurveline
          -21 11 -8 -6 -3 -34 -2 -15 rcurveline
          -3 -33 2 -11 18 -10 221 -119 rcurveline
          -248 -127 -22 -11 -4 -15 -3 -31 rlinecurve
          endchar
        </CharString>
        <CharString name="greaterequal">
          -58 0 95 hstem
          9.32 415.68 vstem
          22 159 rmoveto
          -5 -38 6 -3 28 13 343 161 rcurveline
          18 8 9 11 2 20 2 18 rcurveline
          2 19 -7 11 -15 9 -312 161 rcurveline
          -25 12 -2 -8 -4 -33 -1 -12 rcurveline
          -3 -26 4 -13 15 -10 214 -119 rcurveline
          -239 -121 -21 -10 -5 -9 -2 -20 rlinecurve
          6 -180 73 callgsubr
          -9 -14 -29 -2 hvcurveto
          -1 -9 rlineto
          -30 -3 5 -13 18 hhcurveto
          endchar
        </CharString>
        <CharString name="guillemotleft">
          -40 51 413 hstem
          21.93 422.07 vstem
          113 251 rmoveto
          101 callsubr
          151 callgsubr
          -24 -23 -8 -29 17 -24 101 callgsubr
          5 -1 6 -4 7 vhcurveto
          206 361 rmoveto
          151 callgsubr
          -22 -21 -11 -27 18 -28 101 callgsubr
          1 5 -2 6 -3 7 -84 148 rcurveline
          101 callsubr
          endchar
        </CharString>
        <CharString name="guillemotright">
          -40 51 413 hstem
          41 422.04 vstem
          265 295 rmoveto
          -95 154 rlineto
          10 -6 -7 5 -9 hhcurveto
          -21 -30 -22 -12 -2 hvcurveto
          -1 -5 2 -6 3 -7 84 -148 rcurveline
          61 callgsubr
          22 21 11 27 -18 28 rlinecurve
          189 hmoveto
          -95 154 rlineto
          10 -6 -7 5 -9 hhcurveto
          -21 -30 -22 -12 -2 hvcurveto
          -5 1 -6 4 -7 vhcurveto
          83 -148 61 callgsubr
          24 23 8 29 -17 24 rlinecurve
          endchar
        </CharString>
        <CharString name="guilsinglleft">
          -264 52 412 hstem
          26 208 vstem
          142 52 rmoveto
          17 38 20 19 2 hvcurveto
          1 7 -2 6 -4 8 -75 146 rcurveline
          106 145 6 9 2 6 1 7 rlinecurve
          20 3 -35 19 -17 hhcurveto
          -8 -8 -3 -11 -8 hvcurveto
          -118 -154 -10 -13 -5 -10 -2 -15 rlinecurve
          -1 -15 3 -10 7 -13 86 -154 rcurveline
          -11 6 7 -3 8 hhcurveto
          endchar
        </CharString>
        <CharString name="guilsinglright">
          -264 52 412 hstem
          16 209 vstem
          65 52 rmoveto
          8 8 3 11 8 hvcurveto
          119 154 9 13 6 10 2 15 rlinecurve
          1 15 -4 10 -7 13 -86 154 rcurveline
          11 -6 -7 3 -7 hhcurveto
          -17 -38 -19 -20 -3 hvcurveto
          -1 -7 2 -6 4 -9 77 -145 rcurveline
          -108 -146 -5 -8 -3 -6 -1 -7 rlinecurve
          -19 -2 33 -20 18 hhcurveto
          endchar
        </CharString>
        <CharString name="h">
          -26 -6 102 330 104 223 -20 hstemhm
          280 127 -102 130 hintmask 11110000
          370 -6 41 callgsubr
          hintmask 11101000
          -42 callgsubr
          hintmask 11110000
          68 callsubr
          vhcurveto
          endchar
        </CharString>
        <CharString name="hbar">
          -26 -6 102 330 104 58 86 79 -20 hstemhm
          98.5 127 54.5 127 -102 130 hintmask 11111100
          444 99 rmoveto
          -7 49 callgsubr
          7 21 hvcurveto
          hintmask 11111010
          19 19 162 9 80 vhcurveto
          99 11 -44 46 -71 hhcurveto
          -55 -45 -30 -37 -31 hvcurveto
          13 125 rlineto
          63 hlineto
          21 9 11 26 3 49 callsubr
          2 -5 11 -22 hhcurveto
          -63 hlineto
          5 51 rlineto
          18 2 138 callgsubr
          -35 131 callsubr
          -5 -51 rlineto
          -29 hlineto
          -19 -10 34 callsubr
          -13 rlineto
          -26 -3 7 -11 19 hhcurveto
          30 hlineto
          -59 -562 -15 callsubr
          35 hhcurveto
          26 hlineto
          34 17 9 19 3 hvcurveto
          105 callsubr
          18 11 26 28 33 hhcurveto
          36 12 -24 -41 -5 hvcurveto
          hintmask 11111100
          68 callsubr
          56 30 31 48 12 -4 14 -8 vhcurveto
          endchar
        </CharString>
        <CharString name="hcircumflex">
          -26 426 104 223 -20 47 145 hstemhm
          280 142 callgsubr
          hintmask 11110000
          72 780 -107 callgsubr
          298 -786 41 callgsubr
          hintmask 11001000
          -42 callgsubr
          hintmask 11010000
          -21 -206 rlineto
          -2 -25 -2 -23 -10 vvcurveto
          hintmask 11110000
          -78 42 -25 48 vhcurveto
          endchar
        </CharString>
        <CharString name="hookabovecomb">
          -511 693 58 hstem
          -203 78 vstem
          -222 567 -90 callsubr
          endchar
        </CharString>
        <CharString name="hungarumlaut">
          -204 121 callgsubr
          -15 325 vstem
          11 579 -78 callsubr
          endchar
        </CharString>
        <CharString name="hyphen">
          -255 219 93 hstem
          19.05 217.95 vstem
          41 219 rmoveto
          165 hlineto
          18 9 12 30 3 hvcurveto
          1 8 33 callsubr
          -166 93 callgsubr
          -2 hvcurveto
          -1 -8 rlineto
          -30 -4 7 -12 18 hhcurveto
          endchar
        </CharString>
        <CharString name="i">
          -257 525 97 callsubr
          -70 120 callgsubr
          hintmask 11010000
          152 -79 callsubr
          hintmask 11100000
          -22 -595 -101 callsubr
          endchar
        </CharString>
        <CharString name="i.loclTRK">
          -257 525 97 callsubr
          -68 120 callgsubr
          hintmask 11010000
          154 -79 callsubr
          hintmask 11100000
          -24 -595 -101 callsubr
          endchar
        </CharString>
        <CharString name="iacute">
          -257 525 122 callsubr
          hstem
          46 122 vstem
          123 579 rmoveto
          -106 callsubr
          7 -585 -101 callsubr
          endchar
        </CharString>
        <CharString name="iacute_j.loclNLD">
          -8 -212 101 636 122 callsubr
          hstem
          46 122 vstem
          123 579 rmoveto
          -106 callsubr
          256 hmoveto
          -106 callsubr
          -249 -585 -101 callsubr
          134 -206 -83 callsubr
        </CharString>
        <CharString name="ibreve">
          -257 525 -20 74 82 hstem
          46 122 vstem
          153 -78 callgsubr
          -23 -585 -101 callsubr
          endchar
        </CharString>
        <CharString name="icircumflex">
          -257 525 145 callgsubr
          46 122 vstem
          53 573 -107 callgsubr
          77 -579 -101 callsubr
          endchar
        </CharString>
        <CharString name="idieresis">
          -257 525 78 callgsubr
          35.5 101 -90.5 122 16.5 101 hintmask 00000000
          hintmask 11101000
          80 589 -102 callsubr
          hintmask 11010000
          -99 -595 -101 callsubr
          endchar
        </CharString>
        <CharString name="igrave">
          -257 525 122 callsubr
          hstem
          46 122 vstem
          173 579 -99 callsubr
          -43 -585 -101 callsubr
          endchar
        </CharString>
        <CharString name="ij">
          -8 -212 101 636 97 callsubr
          -70 120 137 120 callgsubr
          hintmask 11101100
          152 -79 callsubr
          257 hmoveto
          42 19 -60 callsubr
          6 57 -62 callgsubr
          -18 10 -42 hhcurveto
          -41 -35 callgsubr
          -6 -57 rlineto
          -19 -2 17 -9 42 hhcurveto
          hintmask 11110100
          -279 -595 -101 callsubr
          134 -206 -83 callsubr
        </CharString>
        <CharString name="imacron">
          -257 525 -20 97 86 hstem
          46 122 vstem
          58 602 -87 callsubr
          72 -608 -101 callsubr
          endchar
        </CharString>
        <CharString name="infinity">
          119 112 92 -92 95 145 95 -92 92 hstemhm
          40 95 366 96 hintmask 00000000
          hintmask 10101100
          478 447 rmoveto
          -53 -58 -31 -78 -42 hvcurveto
          hintmask 01011100
          65 -19 -44 44 -61 hhcurveto
          -84 -67 -69 -98 -10 hvcurveto
          -96 -10 49 -72 79 hhcurveto
          53 59 31 78 41 hvcurveto
          hintmask 10011100
          -65 19 45 -44 61 hhcurveto
          83 67 69 98 11 hvcurveto
          hintmask 10101100
          96 10 -50 72 -79 hhcurveto
          hintmask 01011100
          -299 -240 rmoveto
          -34 -14 32 42 4 hvcurveto
          43 5 25 31 31 hhcurveto
          25 22 -20 -59 15 hvcurveto
          -42 -22 -30 -27 -27 hhcurveto
          hintmask 10101100
          322 71 rmoveto
          -43 -4 -26 -31 -31 hhcurveto
          -24 -23 20 59 -15 hvcurveto
          42 23 29 27 28 hhcurveto
          33 15 -32 -42 -5 hvcurveto
          endchar
        </CharString>
        <CharString name="integral">
          -213 -167 95 856 95 hstem
          -56.19 429.19 vstem
          23 -167 rmoveto
          94 59 84 172 18 hvcurveto
          18 176 7 178 18 165 rrcurveto
          126 14 18 50 35 20 7 -7 7 hhcurveto
          15 17 26 30 3 hvcurveto
          40 4 -61 6 -22 hhcurveto
          -94 -59 -83 -172 -18 hvcurveto
          -19 -179 -6 -176 -17 -164 rrcurveto
          -126 -14 -18 -51 -36 -20 -7 8 -7 hhcurveto
          -15 -17 -26 -30 -3 hvcurveto
          -40 -5 62 -7 22 hhcurveto
          endchar
        </CharString>
        <CharString name="iogonek">
          -257 -171 67 629 97 callsubr
          -70 120 -108 65 hintmask 00000000
          hintmask 11101000
          152 -79 callsubr
          hintmask 11100100
          102 -688 rmoveto
          114 callgsubr
          -2 1 rlineto
          hintmask 11110000
          12 11 7 16 2 18 rrcurveto
          17 callsubr
          8 26 2 hvcurveto
          4 65 14 113 20 189 rrcurveto
          16 -15 12 -35 vhcurveto
          -20 hlineto
          -34 -19 -9 -19 -2 hvcurveto
          -5 -44 -19 -177 -11 -111 -2 -18 -2 -27 -1 -16 rrcurveto
          hintmask 11100100
          -3 -85 41 -24 47 -1 rrcurveto
          -12 -28 -4 -28 -17 -58 callgsubr
          endchar
        </CharString>
        <CharString name="itilde">
          -257 525 -20 77 callgsubr
          46 122 hintmask 00000000
          hintmask 10110000
          34 584 rmoveto
          4 callsubr
          hintmask 11010000
          -54 callgsubr
          hintmask 10110000
          -9 callgsubr
          105 -594 -101 callsubr
          endchar
        </CharString>
        <CharString name="j">
          -262 -212 101 636 78 callgsubr
          100 120 callgsubr
          hintmask 11110000
          154 -79 callsubr
          -144 -801 -83 callsubr
        </CharString>
        <CharString name="jcircumflex">
          -262 -212 101 636 145 callgsubr
          -74 348 vstem
          55 573 -107 callgsubr
          -45 -785 -83 callsubr
        </CharString>
        <CharString name="k">
          141 callsubr
          46.67 415.33 -25 callgsubr
          endchar
        </CharString>
        <CharString name="kcommaaccent">
          141 callsubr
          159 108 -25 callgsubr
          -191 -576 rmoveto
          -16 hlineto
          -36 -15 -16 -24 hvcurveto
          -78 -17 -30 -20 vvcurveto
          -14 23 -5 15 29 58 71 78 22 -12 16 -29 vhcurveto
          endchar
        </CharString>
        <CharString name="kgreenlandic">
          24 525 -20 hstem
          43 461 vstem
          167 525 rmoveto
          -19 hlineto
          -38 -56 callgsubr
          -49 -471 rlineto
          -18 12 -10 38 vhcurveto
          19 hlineto
          37 130 callgsubr
          24 221 rlineto
          4 hlineto
          144 -232 rlineto
          -14 8 22 -3 26 hhcurveto
          28 hlineto
          41 13 6 11 5 -2 4 -4 8 hvcurveto
          -160 253 181 206 rlineto
          7 8 5 8 5 vvcurveto
          7 -16 6 -32 vhcurveto
          -25 hlineto
          -26 -21 -2 -15 -12 hvcurveto
          -171 -198 rlineto
          -4 hlineto
          20 187 rlineto
          18 -12 10 -38 vhcurveto
          endchar
        </CharString>
        <CharString name="l">
          116 callsubr
          hstemhm
          49 125 hintmask 00000000
          hintmask 11100000
          154 -7 -69 callgsubr
          endchar
        </CharString>
        <CharString name="lacute">
          116 callsubr
          43 154 hstemhm
          49 125 hintmask 00000000
          hintmask 11110000
          149 776 rmoveto
          -106 callsubr
          5 -783 rmoveto
          47 33 20 42 4 hvcurveto
          19 3 -4 24 -13 -6 -9 -5 -11 hhcurveto
          -18 -10 11 31 4 hvcurveto
          hintmask 11010000
          62 590 -62 callgsubr
          -15 10 -37 hhcurveto
          -19 116 callgsubr
          -62 -592 rlineto
          hintmask 11110000
          71 callsubr
          endchar
        </CharString>
        <CharString name="lcaron">
          -241 -7 100 608 -20 72 -20 hstem
          49 125 94 108 vstem
          154 -7 -69 callgsubr
          146 524 rmoveto
          -9 callsubr
          -15 24 -5 16 vhcurveto
          endchar
        </CharString>
        <CharString name="lcommaaccent">
          116 callsubr
          hstemhm
          49 125 -109 108 hintmask 00000000
          hintmask 11100000
          154 -7 -69 callgsubr
          hintmask 11010000
          -68 -231 -76 callgsubr
          endchar
        </CharString>
        <CharString name="ldot">
          -241 -7 100 203 127 330 -20 hstem
          49 125 47 122 vstem
          154 -7 -69 callgsubr
          122 303 16 callsubr
        </CharString>
        <CharString name="less">
          -63 9.15 457.59 hstem
          26.85 404.71 vstem
          365 13 rmoveto
          17 -11 5 13 3 30 2 15 rcurveline
          2 28 -1 13 -19 13 -215 125 rcurveline
          240 125 18 10 9 12 3 31 rlinecurve
          2 15 2 25 -1 19 -28 -14 rlinecurve
          -349 -174 -17 -9 -7 -11 -3 -20 rlinecurve
          -1 -18 -2 -20 5 -12 15 -8 rlinecurve
          endchar
        </CharString>
        <CharString name="lessequal">
          -58 0 95 hstem
          5.32 432.67 vstem
          369 129 rmoveto
          22 -11 6 7 3 34 3 21 rcurveline
          2 20 -6 11 -15 8 -214 121 rcurveline
          239 119 15 9 9 10 3 33 rlinecurve
          1 9 4 37 -6 4 -24 -11 rlinecurve
          -346 -162 -17 -8 -8 -12 -2 -19 rlinecurve
          -2 -18 -1 -20 5 -12 15 -7 rlinecurve
          -29 -292 73 callgsubr
          -8 -14 -29 -3 hvcurveto
          -1 -9 rlineto
          -30 -3 5 -13 18 hhcurveto
          endchar
        </CharString>
        <CharString name="logicalnot">
          -62 250 95 hstem
          25.62 404.38 vstem
          338 74 rmoveto
          34 hlineto
          24 10 -60 callsubr
          22 207 rlineto
          25 3 -9 11 -24 hhcurveto
          -343 hlineto
          -18 -8 -13 -30 -4 hvcurveto
          -1 -9 53 callgsubr
          277 hlineto
          -15 -148 rlineto
          -18 -2 9 -10 22 hhcurveto
          endchar
        </CharString>
        <CharString name="longs">
          -238 138 callsubr
          hstem
          47.71 290.29 vstem
          97 -2 rmoveto
          19 18 callsubr
          61 582 32 callgsubr
          8 hhcurveto
          18 15 54 8 1 hvcurveto
          34 3 -56 10 -30 hhcurveto
          -73 -62 -39 -111 -12 hvcurveto
          -9 -86 rlineto
          -18 hlineto
          -19 -8 -13 -30 -4 hvcurveto
          -2 -15 rlineto
          -30 -2 6 -13 19 hhcurveto
          18 hlineto
          -41 -396 rlineto
          -18 -3 113 callgsubr
          endchar
        </CharString>
        <CharString name="lozenge">
          -65 -14 727 hstem
          40 386.12 vstem
          424 370 rmoveto
          -97 320 rlineto
          18 -5 -19 5 -26 hhcurveto
          -12 hlineto
          -24 -21 -5 -18 -8 hvcurveto
          -164 -320 -5 -7 -2 -8 -1 -7 rlinecurve
          -1 -8 1 -7 3 -8 93 -316 rcurveline
          -18 5 19 -5 25 hhcurveto
          20 hlineto
          26 19 5 18 9 hvcurveto
          160 316 5 8 1 7 1 8 rlinecurve
          1 7 -1 8 -2 7 rrcurveto
          -213 -242 rmoveto
          -54 220 101 213 50 -213 rlineto
          endchar
        </CharString>
        <CharString name="lslash">
          116 callsubr
          hstemhm
          25 246 -222 125 hintmask 11100000
          261 508 rmoveto
          -4 -4 -1 -3 -6 hvcurveto
          -37 -22 26 243 -62 callgsubr
          -15 10 -37 hhcurveto
          -19 hlineto
          hintmask 11010000
          -37 -17 -10 132 callgsubr
          -323 -29 -18 rlineto
          -16 -9 -7 -13 -18 vvcurveto
          -15 vlineto
          -12 3 -6 6 4 4 2 4 6 vhcurveto
          22 13 -21 -197 rlineto
          71 callsubr
          47 33 20 42 4 hvcurveto
          19 3 -4 24 -13 -6 -9 -5 -11 hhcurveto
          -18 -10 11 31 4 hvcurveto
          29 275 44 26 rlineto
          16 10 8 11 19 vvcurveto
          15 vlineto
          hintmask 11100000
          12 -4 5 -6 vhcurveto
          endchar
        </CharString>
        <CharString name="m">
          209 -6 102 330 96 -96 104 hstemhm
          69 126 319 176 -151 129 hintmask 00000000
          hintmask 10111000
          678 99 rmoveto
          -6 -4 -3 -10 hhcurveto
          -10 -7 6 22 1 hvcurveto
          hintmask 10110100
          9 16 144 10 106 vhcurveto
          100 11 -40 47 -70 hhcurveto
          -59 -49 -33 -39 -32 hvcurveto
          50 -11 -37 22 -50 hhcurveto
          -59 -47 -36 -39 -30 hvcurveto
          hintmask 11010100
          34 -3 5 33 -31 hhcurveto
          -17 -78 -6 -25 -2 hvcurveto
          -1 -11 6 -30 -9 -92 -36 -332 rcurveline
          -18 -1 14 -10 35 hhcurveto
          26 hlineto
          34 17 9 19 2 hvcurveto
          hintmask 10110100
          105 callsubr
          18 11 25 28 32 hhcurveto
          36 10 -24 -44 -4 hvcurveto
          -35 -332 -38 callgsubr
          25 64 callgsubr
          38 358 rlineto
          22 16 24 20 27 hhcurveto
          35 10 -24 -44 -5 hvcurveto
          hintmask 10111000
          -19 -193 -6 -52 -16 vvcurveto
          -78 42 -25 48 56 30 31 48 12 -3 14 -9 vhcurveto
          endchar
        </CharString>
        <CharString name="macron">
          -256 602 103 callgsubr
          602 -87 callsubr
          endchar
        </CharString>
        <CharString name="minus">
          -62 177 95 hstem
          16.62 408.03 vstem
          38 177 rmoveto
          355 hlineto
          19 8 13 30 3 hvcurveto
          1 9 rlineto
          30 3 -5 13 -19 hhcurveto
          -355 93 callgsubr
          -2 hvcurveto
          -2 -9 53 callgsubr
          endchar
        </CharString>
        <CharString name="multiply">
          -63 6.77 458.8 hstem
          8 401.62 vstem
          398 436 rmoveto
          -19 17 -12 10 -13 12 -18 -21 rlinecurve
          -122 -147 -93 148 -10 16 -10 -4 -24 -18 rlinecurve
          -12 -10 -23 -19 -1 -11 11 -17 rlinecurve
          99 -155 -131 -156 -16 -17 -1 -11 20 -19 rlinecurve
          10 -10 20 -18 9 -6 14 16 rlinecurve
          126 150 90 -147 14 -20 15 11 13 10 rlinecurve
          23 17 17 14 4 6 -13 21 rlinecurve
          -99 158 132 156 17 22 -3 8 -14 14 rlinecurve
          endchar
        </CharString>
        <CharString name="n">
          105 callgsubr
          38 callgsubr
          hintmask 11110000
          441 98 3 callsubr
          hintmask 11101000
          -91 callsubr
          hintmask 11110000
          -50 callgsubr
          endchar
        </CharString>
        <CharString name="nacute">
          105 callgsubr
          49 154 38 callgsubr
          hintmask 11111000
          244 579 rmoveto
          -106 callsubr
          197 -481 3 callsubr
          hintmask 11110100
          -91 callsubr
          hintmask 11111000
          -50 callgsubr
          endchar
        </CharString>
        <CharString name="nacute.loclPLK">
          105 callgsubr
          49 154 38 callgsubr
          hintmask 11111000
          254 579 -75 callgsubr
          187 -481 3 callsubr
          hintmask 11110100
          -91 callsubr
          hintmask 11111000
          -50 callgsubr
          endchar
        </CharString>
        <CharString name="napostrophe">
          105 callgsubr
          hstemhm
          41 108 -80 126 83 127 -102 130 hintmask 11101000
          62 534 -76 callgsubr
          379 -436 3 callsubr
          hintmask 11010100
          -91 callsubr
          hintmask 11101000
          -50 callgsubr
          endchar
        </CharString>
        <CharString name="ncaron">
          105 callgsubr
          46 145 38 callgsubr
          hintmask 11111000
          269 576 -103 callgsubr
          172 -478 3 callsubr
          hintmask 11110100
          -91 callsubr
          hintmask 11111000
          -50 callgsubr
          endchar
        </CharString>
        <CharString name="ncommaaccent">
          105 callgsubr
          hstemhm
          69 126 -24 108 -1 142 callgsubr
          hintmask 11001000
          441 98 3 callsubr
          hintmask 11100100
          -91 callsubr
          hintmask 11001000
          -50 callgsubr
          hintmask 11010000
          -249 -336 -76 callgsubr
          endchar
        </CharString>
        <CharString name="nine">
          -52 278 100 226 100 hstem
          321.42 125.06 vstem
          83 -6 rmoveto
          31 294 102 352 36 hvcurveto
          178 19 -83 78 -109 hhcurveto
          -103 -106 -68 -150 -16 hvcurveto
          -147 -15 84 -61 75 hhcurveto
          32 31 7 20 33 hvcurveto
          -39 -104 -76 -78 -111 -39 rrcurveto
          -10 -3 -2 -5 -10 vvcurveto
          -17 -3 9 -55 29 hhcurveto
          159 384 rmoveto
          -47 -30 38 74 7 hvcurveto
          72 9 41 42 36 hhcurveto
          39 34 -33 -114 -12 hvcurveto
          -2 -20 -2 -18 -4 -19 rrcurveto
          -11 -19 -25 -11 -25 hhcurveto
          endchar
        </CharString>
        <CharString name="notequal">
          -63 111 callsubr
          404 361 rmoveto
          -47 hlineto
          25 39 rlineto
          30 19 -6 17 -39 hhcurveto
          -19 hlineto
          -25 -11 -10 -16 -11 hvcurveto
          -38 -60 rlineto
          -185 108 callsubr
          136 hlineto
          -51 -82 rlineto
          -94 107 callsubr
          46 hlineto
          -32 -51 rlineto
          -22 -13 7 -16 37 hhcurveto
          19 hlineto
          25 10 7 19 11 hvcurveto
          40 63 rlineto
          187 111 callgsubr
          -139 hlineto
          52 82 rlineto
          95 110 callgsubr
          endchar
        </CharString>
        <CharString name="ntilde">
          105 callgsubr
          55 75 -42 75 38 callgsubr
          hintmask 00000000
          hintmask 11011100
          142 81 callgsubr
          hintmask 11101100
          -97 callsubr
          hintmask 11011100
          -77 callgsubr
          309 -490 3 callsubr
          hintmask 11101010
          -91 callsubr
          hintmask 11101100
          -21 -208 rlineto
          -2 -23 -2 -22 -11 vvcurveto
          -79 -1 43 -25 48 hhcurveto
          55 31 31 47 hvcurveto
          hintmask 11011100
          13 -4 14 -9 vhcurveto
          endchar
        </CharString>
        <CharString name="numbersign">
          3 188 98 123 98 hstem
          9.63 511.72 vstem
          80 -2 rmoveto
          14 hlineto
          29 15 10 18 5 hvcurveto
          41 162 rlineto
          84 hlineto
          -26 -100 -14 -59 -1 -6 rrcurveto
          -17 -1 12 -8 25 hhcurveto
          15 hlineto
          28 16 10 18 5 hvcurveto
          40 162 rlineto
          73 hlineto
          19 9 13 29 3 hvcurveto
          1 13 91 callsubr
          -59 hlineto
          31 123 rlineto
          67 74 callsubr
          12 145 callsubr
          -18 hhcurveto
          -53 hlineto
          38 152 rlineto
          17 4 -12 10 -27 hhcurveto
          -15 hlineto
          -29 -15 -10 -18 -6 hvcurveto
          -36 -151 rlineto
          -86 hlineto
          38 152 rlineto
          17 4 -11 10 -28 hhcurveto
          -14 hlineto
          -29 -16 -10 -18 -5 hvcurveto
          -37 -151 rlineto
          -70 92 callgsubr
          -2 -12 92 callsubr
          18 hhcurveto
          56 hlineto
          -31 -123 rlineto
          -67 131 callgsubr
          -4 hvcurveto
          -1 -13 rlineto
          -29 -3 7 -13 18 hhcurveto
          53 hlineto
          -26 -97 -15 -63 -1 -4 rrcurveto
          -18 -2 12 -8 27 hhcurveto
          128 288 rmoveto
          31 123 rlineto
          85 hlineto
          -31 -123 rlineto
          endchar
        </CharString>
        <CharString name="o">
          15 callsubr
          hstem
          -66 callsubr
          vstem
          211 -7 -95 callsubr
        </CharString>
        <CharString name="oacute">
          15 callsubr
          49 154 hstem
          -66 callsubr
          vstem
          242 579 rmoveto
          -106 callsubr
          -31 -586 -95 callsubr
        </CharString>
        <CharString name="oacute.loclPLK">
          15 callsubr
          49 154 hstem
          -66 callsubr
          vstem
          252 579 -75 callgsubr
          -41 -586 -95 callsubr
        </CharString>
        <CharString name="obreve">
          15 callsubr
          49 82 hstem
          -66 callsubr
          vstem
          272 -78 callgsubr
          -61 -586 -95 callsubr
        </CharString>
        <CharString name="ocircumflex">
          15 callsubr
          43 145 hstem
          -66 callsubr
          vstem
          172 573 -107 callgsubr
          39 1 callsubr
        </CharString>
        <CharString name="odieresis">
          15 callsubr
          59 113 -7 callgsubr
          -8.26999 101 48 101 -89.44 126.13 hintmask 00000000
          hintmask 11101100
          199 589 -102 callsubr
          hintmask 11110010
          -137 -596 -95 callsubr
        </CharString>
        <CharString name="oe">
          210 -4 callgsubr
          hstem
          35.59 127.18 153.23001 119 154 117 vstem
          646 139 rmoveto
          -63 callsubr
          114 86 67 116 51 -28 89 -129 -65 -51 -23 -38 -38 hvcurveto
          40 -28 -43 21 -57 hhcurveto
          -138 -72 -95 -174 -18 hvcurveto
          -173 -18 53 -95 137 hhcurveto
          58 47 21 39 36 hvcurveto
          -41 34 53 -19 65 hhcurveto
          42 79 15 37 24 hvcurveto
          9 callgsubr
          35 callgsubr
          -425 -46 rmoveto
          -51 -16 48 121 13 hvcurveto
          120 12 26 48 52 hhcurveto
          45 19 -37 -89 -5 hvcurveto
          -4 -26 -3 -27 -1 -28 rrcurveto
          -92 -14 -26 -38 -47 hhcurveto
          320 337 -11 callgsubr
        </CharString>
        <CharString name="ogonek">
          -255 -183 67 hstem
          43 65 vstem
          138 -183 rmoveto
          21 21 5 10 18 hvcurveto
          11 6 4 10 13 vvcurveto
          21 -9 7 -17 vhcurveto
          114 callgsubr
          -47 16 rlineto
          -30 -40 -8 -46 -25 vvcurveto
          -26 9 -66 86 vhcurveto
          endchar
        </CharString>
        <CharString name="ograve">
          15 callsubr
          49 154 hstem
          -66 callsubr
          vstem
          292 579 -99 callsubr
          -81 -586 -95 callsubr
        </CharString>
        <CharString name="ohorn">
          15 callsubr
          -75 38 -20 callgsubr
          hintmask 00000000
          hintmask 10110010
          506 546 -49 callgsubr
          hintmask 11011000
          16 -30 -29 11 -40 -64 callgsubr
          -44 callsubr
          hintmask 10110010
          46 callgsubr
          hintmask 11010100
          -285 -453 -89 callgsubr
          endchar
        </CharString>
        <CharString name="ohungarumlaut">
          15 callsubr
          49 154 hstem
          -66 callsubr
          vstem
          180 579 -78 callsubr
          -120 -586 -95 callsubr
        </CharString>
        <CharString name="omacron">
          15 callsubr
          72 86 hstem
          -66 callsubr
          vstem
          177 602 -87 callsubr
          34 -609 -95 callsubr
        </CharString>
        <CharString name="one">
          -52 0 101 602 -20 hstem
          20.07 391.28 vstem
          43 hmoveto
          336 74 callsubr
          15 145 callsubr
          -18 hhcurveto
          -95 hlineto
          61 579 rlineto
          12 1 -20 11 -16 hhcurveto
          -218 -42 -16 -3 -8 -8 -2 -14 rlinecurve
          -24 -3 1 -48 22 hhcurveto
          124 18 -50 -481 rlineto
          -117 hlineto
          -18 -10 -13 -30 -3 hvcurveto
          -1 -15 rlineto
          -30 -4 7 -13 19 hhcurveto
          endchar
        </CharString>
        <CharString name="oneeighth">
          117 -4 59 303 59 284 -20 22 -20 hstemhm
          342 75 -44 73 56 76 -60 72 hintmask 11011001
          143 -61 callsubr
          -4 -295 rmoveto
          15 hlineto
          16 13 7 17 7 hvcurveto
          hintmask 11101001
          284 655 rlineto
          1 130 callsubr
          6 -5 3 -12 vhcurveto
          -15 hlineto
          -15 -15 -6 -17 -6 hvcurveto
          -282 -656 rlineto
          -3 -5 -2 -5 -3 vvcurveto
          hintmask 11011001
          -7 6 -3 11 vhcurveto
          309 -3 rmoveto
          hintmask 11011010
          79 44 54 65 7 hvcurveto
          6 60 -24 29 -30 19 rrcurveto
          hintmask 11010101
          28 15 27 26 5 51 rrcurveto
          63 7 -39 39 -64 hhcurveto
          -68 -47 -41 -65 -6 hvcurveto
          -6 -47 18 -25 24 -19 rrcurveto
          hintmask 11011001
          -32 -16 -29 -31 -6 -57 rrcurveto
          -71 -7 36 -49 77 hhcurveto
          hintmask 11010101
          34 257 rmoveto
          -22 14 -17 15 3 32 rrcurveto
          30 3 19 14 19 hhcurveto
          20 14 -15 -30 -3 hvcurveto
          -3 -27 -13 -19 -20 -14 rrcurveto
          hintmask 11011010
          -29 -198 rmoveto
          -24 -17 19 45 5 hvcurveto
          3 34 14 20 21 15 27 -16 25 -17 -5 -42 rrcurveto
          -32 -2 -20 -26 -27 hhcurveto
          endchar
        </CharString>
        <CharString name="onehalf">
          130 0 58 294 59 290 -20 22 -20 hstemhm
          529 74 hintmask 11011000
          143 -61 callsubr
          -6 -295 rmoveto
          15 90 callgsubr
          hintmask 11101000
          3 callgsubr
          hintmask 11011000
          -7 6 -3 11 vhcurveto
          216 1 -52 callgsubr
          endchar
        </CharString>
        <CharString name="onequarter">
          75 87 59 555 -20 22 -20 hstemhm
          432.5 72 -58.5 103 hintmask 10110000
          143 -61 callsubr
          -10 -295 rmoveto
          15 90 callgsubr
          hintmask 11010000
          3 callgsubr
          hintmask 10110000
          -7 6 -3 11 vhcurveto
          322 126 callsubr
          hintmask 10101000
          11 callsubr
          hintmask 10110000
          135 callsubr
          hintmask 10101000
          81 callsubr
        </CharString>
        <CharString name="ordfeminine">
          -230 438 61 149 60 -3 -20 hstemhm
          58 72.98 59.02 98 -93 69 hintmask 10111000
          128 438 rmoveto
          29 20 16 23 13 hvcurveto
          -28 5 18 -10 23 hhcurveto
          35 17 18 26 6 -1 8 -6 hvcurveto
          -9 hlineto
          -6 -3 2 9 1 hvcurveto
          hintmask 10110100
          14 7 61 6 53 vhcurveto
          2 19 4 30 7 vvcurveto
          8 -8 5 -19 vhcurveto
          -10 hlineto
          -23 -3 -6 -17 -6 hvcurveto
          hintmask 11010100
          10 -10 -15 16 -29 hhcurveto
          -52 -40 -44 -87 -10 hvcurveto
          hintmask 10111000
          -65 -8 14 -74 64 hhcurveto
          29 61 rmoveto
          -26 -3 36 41 5 hvcurveto
          hintmask 11010100
          54 6 14 18 25 hhcurveto
          13 7 -3 -5 6 hvcurveto
          -5 -34 -8 -79 rlineto
          hintmask 10111000
          -16 -7 -13 -12 -14 hhcurveto
          endchar
        </CharString>
        <CharString name="ordmasculine">
          -219 439 71 128 71 hstem
          60 84 71 84 vstem
          165 439 rmoveto
          77 48 49 86 9 hvcurveto
          86 9 -37 49 -78 hhcurveto
          -77 -47 -49 -86 -9 hvcurveto
          -86 -9 37 -49 77 hhcurveto
          8 71 rmoveto
          -25 -10 18 46 6 hvcurveto
          46 4 14 18 24 hhcurveto
          25 8 -18 -46 -4 hvcurveto
          -46 -6 -12 -18 -24 hhcurveto
          endchar
        </CharString>
        <CharString name="oslash">
          15 callsubr
          88 callgsubr
          438 490 -43 callsubr
        </CharString>
        <CharString name="oslashacute">
          15 callsubr
          49 154 88 callgsubr
          244 579 rmoveto
          -106 callsubr
          194 -89 -43 callsubr
        </CharString>
        <CharString name="otilde">
          15 callsubr
          55 75 -42 75 hstemhm
          -66 callsubr
          hintmask 00000000
          hintmask 11011100
          140 81 callgsubr
          hintmask 11101100
          -97 callsubr
          hintmask 11011100
          -77 callgsubr
          81 -595 -95 callsubr
        </CharString>
        <CharString name="p">
          -27 -7 101 333 103 hstem
          75 126 118.91 127.61 vstem
          64 -207 rmoveto
          22 hlineto
          36 17 10 19 2 hvcurveto
          22 110 callsubr
          170 18 -52 101 -90 hhcurveto
          -48 -42 -28 -44 -29 hvcurveto
          29 -2 0 35 -29 hhcurveto
          -19 -74 -7 -21 -2 hvcurveto
          -2 -15 9 -28 -11 -95 -55 -534 rcurveline
          -19 -3 15 -10 36 hhcurveto
          162 301 rmoveto
          -23 -18 10 15 -13 hvcurveto
          28 257 rlineto
          30 19 25 21 26 hhcurveto
          43 15 124 callsubr
        </CharString>
        <CharString name="paragraph">
          -45 638 62 hstem
          47.31 452.69 vstem
          187 -172 rmoveto
          133 callgsubr
          78 hlineto
          -82 -783 rlineto
          -18 -3 8 -9 20 hhcurveto
          133 callgsubr
          24 hlineto
          19 8 8 19 2 hvcurveto
          1 6 rlineto
          21 2 -7 8 -19 hhcurveto
          -201 hlineto
          -110 -99 -87 -155 -17 hvcurveto
          -14 -139 68 -88 97 -14 -38 -362 rcurveline
          -18 -3 8 -9 20 hhcurveto
          endchar
        </CharString>
        <CharString name="parenleft">
          -262 -209 992 hstem
          11.78 101.78 vstem
          139 -209 rmoveto
          18 30 21 -17 callsubr
          1 6 -1 7 -4 7 -70 130 -12 146 18 161 16 161 43 146 97 130 6 7 2 7 1 7 rrcurveto
          19 2 -28 19 -17 hhcurveto
          -9 -9 -4 -10 -9 hvcurveto
          -111 -122 -69 -175 -19 -185 -20 -186 32 -175 86 -121 rrcurveto
          -10 7 8 -4 9 hhcurveto
          endchar
        </CharString>
        <CharString name="parenright">
          -262 -209 992 hstem
          140 101.78 vstem
          11 -209 rmoveto
          9 9 4 10 8 hvcurveto
          112 122 68 174 20 186 19 185 -31 176 -86 121 rrcurveto
          10 -7 -7 4 -9 hhcurveto
          -18 -32 -20 -19 -2 hvcurveto
          -1 -6 2 -7 4 -7 70 -130 11 -146 -17 -161 -17 -162 -43 -146 -96 -130 -6 -7 -2 -6 -1 -6 rrcurveto
          -19 -2 27 -20 18 hhcurveto
          endchar
        </CharString>
        <CharString name="partialdiff">
          -100 -9 104 224 103 209 104 hstem
          285 125.2 vstem
          158 -9 rmoveto
          135 89 127 216 23 hvcurveto
          250 26 -72 151 -140 hhcurveto
          -86 -44 -36 -30 -3 hvcurveto
          -20 -2 24 -46 18 13 20 28 39 hhcurveto
          56 39 -76 -164 -8 hvcurveto
          22 -23 -31 9 -31 hhcurveto
          -92 -86 -88 -141 -15 hvcurveto
          -130 -14 59 -72 106 hhcurveto
          16 104 rmoveto
          -38 -16 34 66 6 hvcurveto
          68 8 35 56 43 hhcurveto
          24 18 -13 -25 17 hvcurveto
          -93 -9 -34 -93 -54 hhcurveto
          endchar
        </CharString>
        <CharString name="percent">
          175 55 callsubr
          hintmask 1111011110000000
          20 callgsubr
          hintmask 1110111110000000
          50 callgsubr
          hintmask 1111011110000000
          2 callsubr
          7 68 callgsubr
          endchar
        </CharString>
        <CharString name="period">
          -323 -2 139 hstemhm
          9 129 hintmask 00000000
          hintmask 11000000
          52 -2 40 callgsubr
        </CharString>
        <CharString name="periodcentered">
          -297 296 127 hstem
          59 122 vstem
          114 296 16 callsubr
        </CharString>
        <CharString name="perthousand">
          475 55 callsubr
          36 86.56 91.85 86.59 hintmask 1111011111100000
          20 callgsubr
          hintmask 0000100010000000
          50 callgsubr
          hintmask 1111011111100000
          2 callsubr
          301 hmoveto
          62 74 28 138 14 hvcurveto
          137 14 -68 29 -61 hhcurveto
          -62 -73 -29 -137 -15 hvcurveto
          -138 -14 68 -28 61 hhcurveto
          -294 68 callgsubr
          301 hmoveto
          -36 -3 36 57 6 hvcurveto
          52 5 11 39 37 hhcurveto
          37 3 -39 -52 -6 hvcurveto
          -57 -6 -11 -36 -37 hhcurveto
          endchar
        </CharString>
        <CharString name="pi">
          -4 422 101 hstem
          279.05 120.95 vstem
          79 -2 rmoveto
          9 hlineto
          30 25 9 19 9 hvcurveto
          34 91 38 180 17 125 rrcurveto
          77 hlineto
          -34 -293 rlineto
          -67 -8 -5 -64 51 hhcurveto
          22 hlineto
          37 18 11 17 1 hvcurveto
          2 12 -3 38 8 78 28 268 rcurveline
          37 hlineto
          19 10 9 20 4 hvcurveto
          4 16 3 17 1 12 rrcurveto
          19 2 -9 8 -20 hhcurveto
          -323 hlineto
          -65 -62 -9 -39 -4 hvcurveto
          -13 -2 -5 -51 31 hhcurveto
          11 16 10 1 43 hvcurveto
          -18 -125 -41 -164 -37 -103 rrcurveto
          -2 -4 -1 -3 -3 vvcurveto
          -12 -2 20 -10 34 hhcurveto
          endchar
        </CharString>
        <CharString name="plus">
          -62 187 93 hstem
          32 381 vstem
          249 469 rmoveto
          -11 hlineto
          -31 -13 -8 -51 callsubr
          -17 -163 rlineto
          -111 hlineto
          -27 -5 -35 -25 -23 6 -10 17 hvcurveto
          111 hlineto
          -17 -161 rlineto
          -19 8 -8 32 vhcurveto
          11 hlineto
          29 15 8 19 2 hvcurveto
          17 161 rlineto
          118 hlineto
          28 4 33 26 23 -5 11 -17 hvcurveto
          -119 hlineto
          17 163 rlineto
          18 -9 8 -31 vhcurveto
          endchar
        </CharString>
        <CharString name="plusminus">
          -62 0 95 223 93 hstem
          6 422 vstem
          265 600 rmoveto
          -12 hlineto
          -29 -14 -9 -21 -2 hvcurveto
          -17 -159 rlineto
          -112 hlineto
          -30 -6 -40 -22 -21 7 -10 19 hvcurveto
          112 hlineto
          -16 -158 rlineto
          -20 8 -10 31 vhcurveto
          12 hlineto
          29 15 10 20 2 hvcurveto
          16 158 rlineto
          115 hlineto
          30 5 38 22 22 -7 11 -19 hvcurveto
          -114 hlineto
          17 159 rlineto
          21 -9 9 -31 vhcurveto
          107 -505 rmoveto
          -330 hlineto
          -29 -7 -41 -23 -21 7 -10 19 hvcurveto
          330 hlineto
          29 8 41 23 20 -8 11 -19 hvcurveto
          endchar
        </CharString>
        <CharString name="product">
          89 591 109 hstem
          50 582 vstem
          609 700 rmoveto
          -526 hlineto
          -23 -10 -27 -46 -25 6 -11 17 hvcurveto
          61 133 callsubr
          35 20 -60 callsubr
          69 667 rlineto
          154 133 callsubr
          36 19 -60 callsubr
          69 667 rlineto
          65 hlineto
          23 10 28 45 25 -6 11 -17 hvcurveto
          endchar
        </CharString>
        <CharString name="q">
          -30 -7 101 333 103 -5 -20 hstemhm
          37.2 127.01 hintmask 10110000
          301 -207 rmoveto
          22 hlineto
          36 17 10 19 2 hvcurveto
          71 675 10 callsubr
          -9 hlineto
          -25 -16 -4 -17 -7 hvcurveto
          hintmask 11010000
          -15 -46 rlineto
          44 -19 -40 28 -46 hhcurveto
          -92 -74 -100 -169 -17 hvcurveto
          -173 -19 53 -95 105 hhcurveto
          42 30 17 20 22 hvcurveto
          -21 -208 rlineto
          hintmask 10110000
          -19 -3 15 -10 36 hhcurveto
          -78 301 rmoveto
          -49 -19 45 121 13 hvcurveto
          hintmask 11010000
          116 12 27 51 45 hhcurveto
          25 19 -19 -28 15 hvcurveto
          -28 -260 rlineto
          hintmask 10110000
          -16 -16 -20 -10 -24 hhcurveto
          endchar
        </CharString>
        <CharString name="question">
          -120 -2 139 459 111 hstem
          65.5 132 72.5 135 vstem
          136 215 rmoveto
          20 hlineto
          30 12 6 18 7 hvcurveto
          14 55 37 36 43 39 48 46 50 45 8 80 rrcurveto
          103 12 -72 64 -120 hhcurveto
          -70 -97 -27 -45 -5 hvcurveto
          -18 -2 25 -53 22 12 37 32 50 hhcurveto
          54 24 -25 -46 -5 hvcurveto
          -4 -41 -42 -38 -45 -47 -47 -52 -30 -52 -5 -53 rrcurveto
          -19 -2 11 -8 30 hhcurveto
          -25 -217 rmoveto
          26 18 callsubr
          9 132 callsubr
          -15 10 -37 hhcurveto
          -26 116 callgsubr
          -9 -83 rlineto
          112 callsubr
        </CharString>
        <CharString name="questiondown">
          -120 -184 111 459 139 hstem
          -14 135 72.5 132 vstem
          280 525 rmoveto
          -26 116 callgsubr
          -9 -83 rlineto
          42 callgsubr
          26 18 callsubr
          9 132 callsubr
          -15 10 -37 hhcurveto
          -25 -217 rmoveto
          -20 hlineto
          -30 -12 -6 -18 -7 hvcurveto
          -14 -55 -37 -36 -43 -39 -48 -46 -50 -45 -8 -80 rrcurveto
          -103 -12 72 -64 120 hhcurveto
          70 97 27 45 5 hvcurveto
          18 2 -25 53 -22 -12 -37 -32 -50 hhcurveto
          -54 -24 25 46 5 hvcurveto
          4 41 42 38 45 47 47 52 30 52 5 53 rrcurveto
          19 2 -11 8 -30 hhcurveto
          endchar
        </CharString>
        <CharString name="quotedbl">
          -202 702 -20 hstemhm
          69.5 114.5 28 115 hintmask 11000000
          98 20 callsubr
          hintmask 11100000
          143 hmoveto
          12 hlineto
          18 10 7 16 4 hvcurveto
          15 62 26 113 1 9 rrcurveto
          65 callgsubr
          -10 116 callgsubr
          -1 -8 4 -176 rlineto
          -16 1 8 -7 18 hhcurveto
          endchar
        </CharString>
        <CharString name="quotedblbase">
          -163 -122 259 hstem
          -25 343 vstem
          12 -122 -10 callsubr
        </CharString>
        <CharString name="quotedblleft">
          -163 491 259 hstem
          43 343 vstem
          92 491 rmoveto
          -3 callgsubr
          157 hmoveto
          -3 callgsubr
          endchar
        </CharString>
        <CharString name="quotedblright">
          -163 756 -20 hstem
          31 343 vstem
          68 497 -10 callsubr
        </CharString>
        <CharString name="quoteleft">
          -301 491 259 hstem
          51 186 vstem
          100 491 rmoveto
          -3 callgsubr
          endchar
        </CharString>
        <CharString name="quoteright">
          -301 756 -20 hstem
          49 186 vstem
          86 497 28 callsubr
          endchar
        </CharString>
        <CharString name="quotesinglbase">
          -301 -122 259 hstem
          -16 186 vstem
          21 -122 28 callsubr
          endchar
        </CharString>
        <CharString name="quotesingle">
          -347 125 callgsubr
          68.5 114.5 vstem
          97 20 callsubr
          endchar
        </CharString>
        <CharString name="quotesingle.loclGUA">
          -340 700 -20 hstem
          46 139.03 vstem
          83 386 rmoveto
          24 2 60 109 18 165 rrcurveto
          22 2 -13 16 -31 hhcurveto
          -16 hlineto
          -36 -18 -16 -24 -3 hvcurveto
          -24 -254 rlineto
          -15 -2 24 -5 15 hhcurveto
          endchar
        </CharString>
        <CharString name="r">
          53 callsubr
          hstemhm
          39 306 -268 124 hintmask 00110000
          89 -2 rmoveto
          19 18 callsubr
          hintmask 01010000
          51 callsubr
          hintmask 10010000
          44 callgsubr
          hintmask 00101000
          -35 callsubr
          hintmask 00110000
          112 callsubr
        </CharString>
        <CharString name="racute">
          53 callsubr
          68 154 148 callgsubr
          181 578 rmoveto
          -106 callsubr
          -92 -580 -5 callgsubr
        </CharString>
        <CharString name="radical">
          -16 -154 968 hstem
          19 487 vstem
          260 -154 rmoveto
          23 hlineto
          28 17 9 19 4 hvcurveto
          174 912 rlineto
          10 vlineto
          10 -11 8 -26 vhcurveto
          -25 hlineto
          -28 131 callsubr
          -119 -677 rlineto
          -6 -28 -6 -63 -8 vvcurveto
          -4 hlineto
          1 8 -12 50 -10 42 -61 257 rcurveline
          14 -3 -9 8 -11 hhcurveto
          -16 -60 -31 -21 -41 hvcurveto
          -15 -8 -6 -5 -12 vvcurveto
          -6 2 -7 11 -28 vhcurveto
          -14 6 7 -6 11 hhcurveto
          6 13 4 14 25 hvcurveto
          109 -396 rlineto
          -20 6 18 -7 27 hhcurveto
          endchar
        </CharString>
        <CharString name="rcaron">
          53 callsubr
          65 145 148 callgsubr
          206 575 -103 callgsubr
          -117 -577 -5 callgsubr
        </CharString>
        <CharString name="rcommaaccent">
          53 callsubr
          hstemhm
          48 108 -79 124 hintmask 00110000
          89 -2 rmoveto
          19 18 callsubr
          hintmask 01010000
          51 callsubr
          hintmask 10001000
          44 callgsubr
          -35 callsubr
          hintmask 00110000
          42 callgsubr
          -20 -238 -76 callgsubr
          endchar
        </CharString>
        <CharString name="registered">
          80 -7 58 266 63 109 63 99 58 hstem
          20 60 121 74 69 75 113 4 callgsubr
          -76 101 rmoveto
          17 hlineto
          20 8 6 10 hvcurveto
          149 13 vlineto
          28 5 -12 -31 8 hvcurveto
          36 -111 rlineto
          -8 2 10 -3 15 hhcurveto
          20 hlineto
          19 8 4 6 3 0 3 -2 5 hvcurveto
          -37 121 -10 28 -13 22 -10 7 rlinecurve
          3 vlineto
          30 16 22 31 46 vvcurveto
          70 -33 35 -78 vhcurveto
          -88 hlineto
          -12 -7 -6 -15 hvcurveto
          -363 vlineto
          -10 9 -6 20 vhcurveto
          45 228 rmoveto
          109 36 vlineto
          20 13 -18 -34 -31 -14 -26 -16 hvcurveto
          endchar
        </CharString>
        <CharString name="ring">
          -255 555 52 83 53 hstem
          76 53 81 53 vstem
          159 555 -70 callsubr
          endchar
        </CharString>
        <CharString name="s">
          76 callsubr
          hstemhm
          41 127 22 125 hintmask 11010000
          132 -8 18 callgsubr
          hintmask 11110000
          -36 22 -35 18 5 41 rrcurveto
          29 3 23 14 30 35 22 -20 8 hhcurveto
          15 28 50 21 2 hvcurveto
          36 4 -71 17 -51 hhcurveto
          -92 -72 -59 -95 -11 hvcurveto
          -8 -85 43 -36 49 -27 rrcurveto
          hintmask 11010000
          -28 callsubr
        </CharString>
        <CharString name="sacute">
          76 callsubr
          48 154 83 callsubr
          178 579 rmoveto
          -106 callsubr
          -46 -587 -72 callgsubr
        </CharString>
        <CharString name="sacute.loclPLK">
          76 callsubr
          48 154 83 callsubr
          188 579 -75 callgsubr
          -56 -587 -72 callgsubr
        </CharString>
        <CharString name="scaron">
          76 callsubr
          45 145 83 callsubr
          203 576 -103 callgsubr
          -71 -584 -72 callgsubr
        </CharString>
        <CharString name="scedilla">
          -158 -211 64 140 103 331 104 hstemhm
          41 127 -26 84 -36 125 hintmask 00000000
          hintmask 11110000
          224 427 rmoveto
          35 22 -20 8 hhcurveto
          15 28 50 21 2 hvcurveto
          36 4 -71 17 -51 hhcurveto
          -92 -72 -59 -95 -11 hvcurveto
          -8 -85 43 -36 49 -27 rrcurveto
          hintmask 11100100
          -46 callgsubr
          hintmask 11101000
          -4 -32 58 -27 61 -4 rrcurveto
          -17 -49 -5 -15 -8 -66 callgsubr
          14 48 rlineto
          hintmask 11100100
          80 15 54 60 9 82 9 82 -39 38 -51 30 rrcurveto
          hintmask 11110000
          -36 22 -35 18 5 41 rrcurveto
          29 3 23 14 30 hhcurveto
          endchar
        </CharString>
        <CharString name="scircumflex">
          76 callsubr
          42 145 83 callsubr
          108 573 -107 callgsubr
          24 -581 -72 callgsubr
        </CharString>
        <CharString name="scommaaccent">
          76 callsubr
          hstemhm
          41 127 -77 108 -9 125 hintmask 11010000
          132 -8 rmoveto
          hintmask 11001000
          12 callgsubr
          hintmask 11100000
          -36 22 -35 18 5 41 rrcurveto
          29 3 23 14 30 35 22 -20 8 hhcurveto
          15 28 50 21 2 hvcurveto
          36 4 -71 17 -51 hhcurveto
          -92 -72 -59 -95 -11 hvcurveto
          -8 -85 43 -36 49 -27 rrcurveto
          hintmask 11001000
          -46 callgsubr
          hintmask 11010000
          -35 -4 69 -29 68 hhcurveto
          -20 -230 -76 callgsubr
          endchar
        </CharString>
        <CharString name="section">
          -156 -7 104 507 102 hstemhm
          30 112 -78 126 -4 126 -77 111 hintmask 11010100
          136 -7 rmoveto
          hintmask 11001000
          94 79 60 95 3 hvcurveto
          2 36 -10 29 -23 26 rrcurveto
          hintmask 11010100
          40 29 25 50 51 vvcurveto
          65 -30 36 -59 32 vhcurveto
          -32 16 -36 14 1 34 rrcurveto
          25 2 21 13 25 42 21 -21 9 hhcurveto
          16 29 55 18 35 -74 15 -43 -94 -76 -58 -95 -4 hvcurveto
          -1 -34 10 -31 23 -23 rrcurveto
          hintmask 11101000
          -44 -31 -22 -50 -49 vvcurveto
          -61 27 -38 56 -31 vhcurveto
          42 -24 33 -12 -2 -32 rrcurveto
          -24 -1 -19 -16 -28 -45 -21 27 -9 hhcurveto
          -16 -35 -54 -21 hvcurveto
          hintmask 11010100
          -35 74 -21 50 vhcurveto
          hintmask 11100100
          67 301 rmoveto
          -35 14 -30 14 4 41 2 22 12 15 17 9 36 -15 30 -14 -4 -40 -3 -23 -13 -15 -16 -8 rrcurveto
          endchar
        </CharString>
        <CharString name="semicolon">
          -323 386 139 hstemhm
          46.5 129 hintmask 00000000
          hintmask 11000000
          90 386 rmoveto
          27 136 callgsubr
          -13 10 -36 hhcurveto
          -28 109 callsubr
          -125 -508 23 callgsubr
        </CharString>
        <CharString name="seven">
          -52 599 101 hstem
          35 431 vstem
          84 -2 rmoveto
          28 hlineto
          26 21 4 15 6 hvcurveto
          297 595 2 3 1 5 1 4 rlinecurve
          27 2 -11 49 -10 hhcurveto
          -349 92 callgsubr
          -2 -15 rlineto
          -30 -4 8 -13 18 hhcurveto
          237 hlineto
          -282 -564 -3 -7 -4 -7 -1 -5 rlinecurve
          -12 -1 15 -6 35 hhcurveto
          endchar
        </CharString>
        <CharString name="six">
          -52 -7 101 225 101 283 -20 hstem
          27.79 125.77 vstem
          204 -7 rmoveto
          104 105 69 150 16 hvcurveto
          147 16 -86 61 -74 hhcurveto
          -32 -31 -8 -19 -33 hvcurveto
          39 104 76 77 112 40 9 3 2 4 2 10 rrcurveto
          17 1 -8 55 -30 hhcurveto
          -31 -294 -102 -352 -37 hvcurveto
          -178 -18 84 -78 108 hhcurveto
          12 101 rmoveto
          -38 -34 33 114 12 hvcurveto
          2 19 3 19 3 19 rrcurveto
          11 19 25 10 25 hhcurveto
          46 31 -38 -73 -7 hvcurveto
          -73 -8 -41 -41 -38 hhcurveto
          endchar
        </CharString>
        <CharString name="slash">
          -191 125 callgsubr
          -17 342 vstem
          18 12 callsubr
        </CharString>
        <CharString name="space">
          -374 endchar
        </CharString>
        <CharString name="sterling">
          -100 0 101 220 101 188 97 hstemhm
          -13 435 -311 122.5 hintmask 11110000
          16 hmoveto
          323 74 callsubr
          15 145 callsubr
          -18 hhcurveto
          hintmask 11101000
          -200 hlineto
          28 22 25 37 10 90 7 71 rcurveline
          86 hlineto
          18 10 13 30 3 hvcurveto
          2 15 145 callsubr
          -18 hhcurveto
          -87 hlineto
          9 84 rlineto
          73 8 28 31 52 24 28 -9 4 hhcurveto
          16 22 42 24 2 hvcurveto
          34 4 -63 6 -36 hhcurveto
          -130 -68 -73 -133 -14 hvcurveto
          -8 -79 rlineto
          -41 hlineto
          -19 -9 -13 -30 -3 hvcurveto
          -2 -15 92 callsubr
          18 hhcurveto
          41 hlineto
          -16 -152 -8 -74 -79 1 -4 -42 rlinecurve
          -2 -18 rlineto
          hintmask 11110000
          -25 -3 9 -11 23 hhcurveto
          endchar
        </CharString>
</ttFont>
